<svg xmlns="http://www.w3.org/2000/svg" viewBox="0 0 115.37 75.59"><defs><style>.cls-1{fill:none;stroke:#fff;stroke-miterlimit:10;}.cls-2{fill:#fff;}.cls-3{fill:#f7931e;}</style></defs><title>Asset 237</title><g id="Layer_2" data-name="Layer 2"><g id="Layer_1-2" data-name="Layer 1"><rect class="cls-1" x="0.5" y="0.5" width="114.37" height="33.51"/><path class="cls-2" d="M17.39,10.17H9.8a.09.09,0,0,0-.1.1v6.26a.1.1,0,0,0,.1.11h5.11a.22.22,0,0,1,.25.25V18a.22.22,0,0,1-.25.25H9.8a.09.09,0,0,0-.1.1v6.32a.09.09,0,0,0,.1.1h7.59a.23.23,0,0,1,.25.25V26a.23.23,0,0,1-.25.25H8.16A.22.22,0,0,1,7.91,26V8.85a.22.22,0,0,1,.25-.25h9.23a.22.22,0,0,1,.25.25V9.91A.23.23,0,0,1,17.39,10.17Z"/><path class="cls-2" d="M21.18,25.48A2.89,2.89,0,0,1,20,23.08v-.23a.22.22,0,0,1,.25-.25h1.24a.22.22,0,0,1,.25.25V23a1.76,1.76,0,0,0,.72,1.4,2.8,2.8,0,0,0,1.86.59,2.64,2.64,0,0,0,1.79-.58A1.81,1.81,0,0,0,26.79,23a1.55,1.55,0,0,0-.38-1.06,2.83,2.83,0,0,0-.94-.69c-.37-.16-.88-.36-1.54-.58a14.64,14.64,0,0,1-2-.81,3.76,3.76,0,0,1-1.33-1.12,3,3,0,0,1-.54-1.83,3.17,3.17,0,0,1,1.14-2.57,4.53,4.53,0,0,1,3-.94,4.53,4.53,0,0,1,3.07,1,3.17,3.17,0,0,1,1.15,2.53v.05a.22.22,0,0,1-.25.25H27a.22.22,0,0,1-.25-.25v-.1a1.78,1.78,0,0,0-.7-1.43,2.83,2.83,0,0,0-1.86-.57,2.69,2.69,0,0,0-1.75.54,1.73,1.73,0,0,0-.67,1.41,1.52,1.52,0,0,0,.67,1.34,9.79,9.79,0,0,0,2.11,1,16.45,16.45,0,0,1,2,.8A4.07,4.07,0,0,1,28,21a2.91,2.91,0,0,1,.57,1.86,3.17,3.17,0,0,1-1.16,2.57,4.68,4.68,0,0,1-3.11,1A4.92,4.92,0,0,1,21.18,25.48Z"/><path class="cls-2" d="M36.24,14.92h-2.4c-.07,0-.11,0-.11.1V22.6a2.31,2.31,0,0,0,.47,1.65,2,2,0,0,0,1.51.47h.43a.23.23,0,0,1,.25.25V26a.23.23,0,0,1-.25.25l-.79,0a4,4,0,0,1-2.5-.67A3,3,0,0,1,32,23.15V15c0-.07,0-.1-.1-.1H30.63a.23.23,0,0,1-.26-.26v-.91a.23.23,0,0,1,.26-.25h1.26c.07,0,.1,0,.1-.1V10.52a.22.22,0,0,1,.25-.25h1.24a.22.22,0,0,1,.25.25V13.4c0,.07,0,.1.11.1h2.4a.23.23,0,0,1,.25.25v.91A.23.23,0,0,1,36.24,14.92Z"/><path class="cls-2" d="M46.58,14.46a4.19,4.19,0,0,1,1.15,3.09V26a.22.22,0,0,1-.25.25H46.19a.22.22,0,0,1-.25-.25v-.91a.08.08,0,0,0,0-.08s0,0-.09,0a3.47,3.47,0,0,1-1.41,1.06,5.09,5.09,0,0,1-1.92.35,4.37,4.37,0,0,1-2.72-.86,3.3,3.3,0,0,1-1.12-2.8,3.7,3.7,0,0,1,1.3-3.07,5.5,5.5,0,0,1,3.55-1.05h2.35a.09.09,0,0,0,.1-.1v-1a3.08,3.08,0,0,0-.64-2,2.38,2.38,0,0,0-1.91-.74,2.67,2.67,0,0,0-1.65.49,2,2,0,0,0-.78,1.3.25.25,0,0,1-.28.23l-1.39-.08a.25.25,0,0,1-.19-.07.19.19,0,0,1,0-.18,3.28,3.28,0,0,1,1.37-2.36,4.81,4.81,0,0,1,3-.9A4.26,4.26,0,0,1,46.58,14.46ZM45,24.23a2.29,2.29,0,0,0,.92-1.93V20.25c0-.07,0-.1-.1-.1H43.62a3.6,3.6,0,0,0-2.3.67,2.24,2.24,0,0,0-.86,1.9,2,2,0,0,0,.65,1.66,2.62,2.62,0,0,0,1.72.54A3.57,3.57,0,0,0,45,24.23Z"/><path class="cls-2" d="M52.26,25.49a4.09,4.09,0,0,1-1.44-2.69,25.34,25.34,0,0,1-.16-2.93c0-.86.06-1.83.16-2.91a4,4,0,0,1,1.44-2.65,4.55,4.55,0,0,1,3-1,4.73,4.73,0,0,1,3,1,3.58,3.58,0,0,1,1.43,2.4l.08.53v0a.22.22,0,0,1-.07.17.21.21,0,0,1-.16.06l-1.29.08a.27.27,0,0,1-.28-.23A1.85,1.85,0,0,0,58,17a2.43,2.43,0,0,0-.87-1.51,2.76,2.76,0,0,0-1.84-.63,2.53,2.53,0,0,0-1.83.68,2.75,2.75,0,0,0-.84,1.77,21.21,21.21,0,0,0-.13,2.57,21.7,21.7,0,0,0,.13,2.61,2.7,2.7,0,0,0,.84,1.77,2.64,2.64,0,0,0,1.83.65,2.78,2.78,0,0,0,1.86-.63A2.29,2.29,0,0,0,58,22.75l0-.2c0-.19.13-.26.28-.23l1.26.1c.16,0,.23.11.23.23v.1a1.53,1.53,0,0,1,0,.3,3.58,3.58,0,0,1-1.4,2.47,4.74,4.74,0,0,1-3.05,1A4.47,4.47,0,0,1,52.26,25.49Z"/><path class="cls-2" d="M62.78,10.77a1.39,1.39,0,0,1-.39-1,1.34,1.34,0,0,1,1.42-1.41,1.4,1.4,0,0,1,1,.39,1.35,1.35,0,0,1,.4,1,1.36,1.36,0,0,1-.4,1,1.38,1.38,0,0,1-1,.41A1.36,1.36,0,0,1,62.78,10.77ZM62.87,26V13.75a.22.22,0,0,1,.25-.25h1.29a.22.22,0,0,1,.25.25V26a.22.22,0,0,1-.25.25H63.12A.22.22,0,0,1,62.87,26Z"/><path class="cls-2" d="M69.77,25.49a4.18,4.18,0,0,1-1.44-2.69,25.15,25.15,0,0,1-.15-2.93A23.89,23.89,0,0,1,68.33,17a4.09,4.09,0,0,1,1.43-2.68,5.1,5.1,0,0,1,6.09,0A4.07,4.07,0,0,1,77.27,17a20.57,20.57,0,0,1,.16,2.88,21.07,21.07,0,0,1-.16,2.93,4,4,0,0,1-1.42,2.69,4.59,4.59,0,0,1-3,1A4.52,4.52,0,0,1,69.77,25.49Zm4.86-1.24a2.78,2.78,0,0,0,.9-1.78,24.63,24.63,0,0,0,.1-2.58,24,24,0,0,0-.1-2.57,2.63,2.63,0,0,0-2.73-2.45,2.59,2.59,0,0,0-1.84.67,2.82,2.82,0,0,0-.89,1.78,24,24,0,0,0-.1,2.57,24.13,24.13,0,0,0,.1,2.58,2.75,2.75,0,0,0,.87,1.78,2.67,2.67,0,0,0,1.86.67A2.6,2.6,0,0,0,74.63,24.25Zm-2.94-12.5a.22.22,0,0,1,0-.22l1.55-2.75a.35.35,0,0,1,.3-.18h1.09a.19.19,0,0,1,.19.09.24.24,0,0,1,0,.21l-1.75,2.76a.36.36,0,0,1-.3.17h-.86C71.79,11.83,71.72,11.81,71.69,11.75Z"/><path class="cls-2" d="M88.25,14.45a4.35,4.35,0,0,1,1,3.07V26a.23.23,0,0,1-.26.25H87.74a.23.23,0,0,1-.26-.25V17.77a3,3,0,0,0-.68-2.09,2.33,2.33,0,0,0-1.87-.79,2.46,2.46,0,0,0-1.91.8,3.05,3.05,0,0,0-.72,2.13V26a.22.22,0,0,1-.25.25H80.76a.22.22,0,0,1-.25-.25V13.75a.22.22,0,0,1,.25-.25h1.29a.22.22,0,0,1,.25.25v1a.09.09,0,0,0,0,.08s0,0,.09,0a3.4,3.4,0,0,1,3-1.47A3.58,3.58,0,0,1,88.25,14.45Z"/><path class="cls-2" d="M99.51,8.6h3.06a.31.31,0,0,1,.3.3V26a.29.29,0,0,1-.09.22.29.29,0,0,1-.21.09h-3a.29.29,0,0,1-.21-.09.29.29,0,0,1-.09-.22V12.19a.13.13,0,0,0,0-.1.06.06,0,0,0-.09,0l-2.25.43-.1,0c-.15,0-.22-.1-.22-.28l-.08-2.18a.37.37,0,0,1,.23-.35l2.37-1A.93.93,0,0,1,99.51,8.6Z"/><polygon class="cls-3" points="77.8 40.79 57.69 75.59 37.57 40.79 77.8 40.79"/></g></g></svg>