<svg xmlns="http://www.w3.org/2000/svg" viewBox="0 0 154.83 33.51"><defs><style>.cls-1{fill:#fff;}.cls-2{fill:none;stroke:#000;stroke-miterlimit:10;}</style></defs><title>Asset 200</title><g id="Layer_2" data-name="Layer 2"><g id="Layer_1-2" data-name="Layer 1"><path class="cls-1" d="M80.43,19.65a3.62,3.62,0,0,0-2.3.67,2.28,2.28,0,0,0-.86,1.91,2,2,0,0,0,.66,1.65,2.62,2.62,0,0,0,1.72.54,3.52,3.52,0,0,0,2.18-.69,2.27,2.27,0,0,0,.92-1.93V19.75c0-.07,0-.1-.1-.1Z"/><path class="cls-1" d="M107.73,15a2.89,2.89,0,0,0-3.7,0,2.81,2.81,0,0,0-.88,1.78,24.13,24.13,0,0,0-.1,2.58,24,24,0,0,0,.1,2.57,2.63,2.63,0,0,0,2.73,2.45,2.63,2.63,0,0,0,1.83-.67A2.82,2.82,0,0,0,108.6,22a24.06,24.06,0,0,0,.11-2.57,23.61,23.61,0,0,0-.11-2.58A2.66,2.66,0,0,0,107.73,15Z"/><path class="cls-1" d="M40.46,0V33.51H154.83V0ZM63.85,24.74A5.3,5.3,0,0,1,60.14,26a5.49,5.49,0,0,1-3.78-1.25A4.27,4.27,0,0,1,55,21.39v-.68a.22.22,0,0,1,.25-.25h1.24a.22.22,0,0,1,.25.25v.58a2.93,2.93,0,0,0,1,2.28,3.69,3.69,0,0,0,2.55.85,3.23,3.23,0,0,0,2.35-.81,2.73,2.73,0,0,0,.86-2.12A2.7,2.7,0,0,0,63,20a4.13,4.13,0,0,0-1.19-1.16c-.52-.35-1.27-.8-2.25-1.34A23.69,23.69,0,0,1,57.12,16a5.07,5.07,0,0,1-1.45-1.54,4.07,4.07,0,0,1-.56-2.22,4.08,4.08,0,0,1,1.31-3.21A5.1,5.1,0,0,1,59.94,7.9a5.3,5.3,0,0,1,3.74,1.29,4.45,4.45,0,0,1,1.39,3.41v.58c0,.17-.09.25-.26.25H63.55a.22.22,0,0,1-.25-.25v-.56a3,3,0,0,0-.91-2.28,3.44,3.44,0,0,0-2.5-.88,3.17,3.17,0,0,0-2.22.74,2.68,2.68,0,0,0-.79,2.07,2.54,2.54,0,0,0,.38,1.44,3.73,3.73,0,0,0,1.1,1.06c.48.32,1.21.75,2.21,1.29a28.3,28.3,0,0,1,2.64,1.63,5.59,5.59,0,0,1,1.46,1.54,3.89,3.89,0,0,1,.55,2.14A4.35,4.35,0,0,1,63.85,24.74ZM73.3,14.16c0,.17-.08.26-.25.26h-2.4c-.07,0-.1,0-.1.1V22.1A2.26,2.26,0,0,0,71,23.75a2,2,0,0,0,1.5.47H73a.22.22,0,0,1,.25.25v1.07a.22.22,0,0,1-.25.25l-.78,0a4,4,0,0,1-2.51-.67,3,3,0,0,1-.85-2.48V14.52c0-.07,0-.1-.11-.1H67.44c-.17,0-.25-.09-.25-.26v-.91a.22.22,0,0,1,.25-.25H68.7c.07,0,.11,0,.11-.1V10a.22.22,0,0,1,.25-.25H70.3a.22.22,0,0,1,.25.25V12.9c0,.07,0,.1.1.1h2.4a.22.22,0,0,1,.25.25ZM84.55,25.54a.23.23,0,0,1-.25.25H83a.23.23,0,0,1-.26-.25v-.91a.1.1,0,0,0,0-.08s-.06,0-.09,0a3.43,3.43,0,0,1-1.42,1.06,5.09,5.09,0,0,1-1.92.35,4.34,4.34,0,0,1-2.71-.86,3.3,3.3,0,0,1-1.13-2.8,3.73,3.73,0,0,1,1.3-3.07,5.5,5.5,0,0,1,3.55-1.05h2.35a.09.09,0,0,0,.1-.1v-1a3,3,0,0,0-.64-2,2.38,2.38,0,0,0-1.91-.74,2.66,2.66,0,0,0-1.64.49,1.92,1.92,0,0,0-.78,1.3.25.25,0,0,1-.28.23l-1.39-.08a.22.22,0,0,1-.19-.07.19.19,0,0,1,0-.18,3.33,3.33,0,0,1,1.38-2.36,4.81,4.81,0,0,1,3-.9A4.28,4.28,0,0,1,83.4,14a4.2,4.2,0,0,1,1.15,3.09Zm8.34-11.38a.23.23,0,0,1-.25.26H90.23a.09.09,0,0,0-.1.1V22.1a2.31,2.31,0,0,0,.47,1.65,2,2,0,0,0,1.5.47h.43a.23.23,0,0,1,.26.25v1.07a.23.23,0,0,1-.26.25l-.78,0a4,4,0,0,1-2.5-.67,3,3,0,0,1-.86-2.48V14.52c0-.07,0-.1-.1-.1H87a.23.23,0,0,1-.25-.26v-.91A.23.23,0,0,1,87,13h1.27c.07,0,.1,0,.1-.1V10a.22.22,0,0,1,.25-.25h1.24a.22.22,0,0,1,.25.25V12.9a.09.09,0,0,0,.1.1h2.41a.23.23,0,0,1,.25.25Zm4.85,11.38a.23.23,0,0,1-.25.25H96.2a.23.23,0,0,1-.26-.25V13.25A.23.23,0,0,1,96.2,13h1.29a.23.23,0,0,1,.25.25Zm.15-15.27a1.38,1.38,0,0,1-1,.41,1.38,1.38,0,0,1-1.42-1.42,1.35,1.35,0,0,1,.4-1,1.38,1.38,0,0,1,1-.39,1.4,1.4,0,0,1,1,.39,1.35,1.35,0,0,1,.4,1A1.36,1.36,0,0,1,97.89,10.27Zm12.46,12A4,4,0,0,1,108.92,25a5.12,5.12,0,0,1-6.08,0,4.18,4.18,0,0,1-1.44-2.69,25.15,25.15,0,0,1-.15-2.93,23.89,23.89,0,0,1,.15-2.88,4.11,4.11,0,0,1,1.43-2.68,5.1,5.1,0,0,1,6.09,0,4.11,4.11,0,0,1,1.43,2.68,20.87,20.87,0,0,1,.15,2.88A21.4,21.4,0,0,1,110.35,22.3Zm12.13,3.24a.23.23,0,0,1-.26.25h-1.28a.23.23,0,0,1-.26-.25V17.27a3,3,0,0,0-.68-2.09,2.33,2.33,0,0,0-1.87-.79,2.46,2.46,0,0,0-1.91.8,3.05,3.05,0,0,0-.72,2.13v8.22a.22.22,0,0,1-.25.25H114a.22.22,0,0,1-.25-.25V13.25A.22.22,0,0,1,114,13h1.29a.22.22,0,0,1,.25.25v1a.12.12,0,0,0,0,.08.09.09,0,0,0,.09,0,3.4,3.4,0,0,1,3-1.47A3.58,3.58,0,0,1,121.45,14a4.35,4.35,0,0,1,1,3.07Zm17.46-2.35a4.63,4.63,0,0,1-1.78,2.07,5.38,5.38,0,0,1-2.9.73,5.46,5.46,0,0,1-3.43-1.06,4.58,4.58,0,0,1-1.75-2.83,11.51,11.51,0,0,1-.2-1.72.27.27,0,0,1,.3-.3h3a.27.27,0,0,1,.3.3,5.06,5.06,0,0,0,.15,1.11,1.79,1.79,0,0,0,.56,1.06,1.53,1.53,0,0,0,1.08.38,1.56,1.56,0,0,0,1-.34,1.86,1.86,0,0,0,.59-1,6.74,6.74,0,0,0,.2-1.77,5.2,5.2,0,0,0-.25-1.79,1.63,1.63,0,0,0-1.59-1.32,1.69,1.69,0,0,0-1,.36.35.35,0,0,1-.18,0,.37.37,0,0,1-.25-.1l-1.49-1.65a.44.44,0,0,1-.1-.22.29.29,0,0,1,.1-.21L136,11.31a.08.08,0,0,0,0-.1s-.05-.05-.1-.05h-5.36a.29.29,0,0,1-.21-.09.29.29,0,0,1-.09-.22V8.4a.31.31,0,0,1,.3-.3h9.63a.29.29,0,0,1,.22.09.28.28,0,0,1,.08.21v2.53a.66.66,0,0,1-.15.38l-3.16,3.46c0,.09,0,.14.05.15a3.72,3.72,0,0,1,1.71.77A4.29,4.29,0,0,1,140,17.25a7.33,7.33,0,0,1,.51,2.85A7.28,7.28,0,0,1,139.94,23.19Z"/><polygon class="cls-1" points="32.53 24.46 32.53 0 0 0 0 24.46 23.07 24.46 23.07 30.84 27.08 24.46 32.53 24.46"/><line class="cls-2" x1="7.73" y1="12.1" x2="24.8" y2="12.1"/><line class="cls-2" x1="7.73" y1="6.64" x2="24.8" y2="6.64"/><line class="cls-2" x1="7.73" y1="17.56" x2="24.8" y2="17.56"/></g></g></svg>