<svg xmlns="http://www.w3.org/2000/svg" viewBox="0 0 187.88 54.66"><defs><style>.cls-1{fill:none;stroke:#fff;stroke-miterlimit:10;}.cls-2{fill:#fff;}</style></defs><title>Asset 234</title><g id="Layer_2" data-name="Layer 2"><g id="Layer_1-2" data-name="Layer 1"><path class="cls-1" d="M16.36.5A15.86,15.86,0,0,0,.5,16.36v37.8H32.22V16.36A15.86,15.86,0,0,0,16.36.5Z"/><path class="cls-2" d="M51.6,19.27a4.55,4.55,0,0,1,1.83,1.86,5.7,5.7,0,0,1,.65,2.77V36.32a.23.23,0,0,1-.26.26H52.53a.23.23,0,0,1-.26-.26l0-4.85H45.46v4.85c0,.17-.08.26-.25.26h-1.3c-.17,0-.25-.09-.25-.26V23.9a5.59,5.59,0,0,1,.65-2.77,4.55,4.55,0,0,1,1.83-1.86,6,6,0,0,1,5.46,0Zm.67,10.5v-6a3.62,3.62,0,0,0-.94-2.61,3.54,3.54,0,0,0-4.93,0,3.62,3.62,0,0,0-.94,2.61v6Z"/><path class="cls-2" d="M67,20.36h-7.6a.09.09,0,0,0-.1.1v6.31a.09.09,0,0,0,.1.1h5.11c.17,0,.26.08.26.25v1.07c0,.17-.09.25-.26.25H59.36a.1.1,0,0,0-.1.11v7.77c0,.17-.08.26-.25.26h-1.3c-.17,0-.25-.09-.25-.26V19a.22.22,0,0,1,.25-.25H67c.17,0,.26.08.26.25v1.07C67.22,20.28,67.13,20.36,67,20.36Z"/><path class="cls-2" d="M78.25,36.37l-3.16-7.85a.1.1,0,0,0-.1-.08H71.71a.1.1,0,0,0-.1.11v7.77c0,.17-.08.26-.25.26h-1.3c-.17,0-.25-.09-.25-.26V19a.22.22,0,0,1,.25-.25h5.39a4.5,4.5,0,0,1,2.35.61,4.06,4.06,0,0,1,1.6,1.73A5.55,5.55,0,0,1,80,23.69a5.14,5.14,0,0,1-.83,2.95,4,4,0,0,1-2.29,1.63c-.07,0-.09.07,0,.12l3.28,7.88,0,.1c0,.14-.08.21-.23.21H78.53A.28.28,0,0,1,78.25,36.37ZM71.61,20.46v6.43a.1.1,0,0,0,.1.11h3.51a2.75,2.75,0,0,0,2.14-.92,3.48,3.48,0,0,0,.81-2.39,3.5,3.5,0,0,0-.81-2.41,2.75,2.75,0,0,0-2.14-.92H71.71A.09.09,0,0,0,71.61,20.46Z"/><path class="cls-2" d="M83.23,36.32V19a.22.22,0,0,1,.25-.25h1.3A.22.22,0,0,1,85,19V36.32c0,.17-.08.26-.25.26h-1.3C83.31,36.58,83.23,36.49,83.23,36.32Z"/><path class="cls-2" d="M90.18,35.41a4.86,4.86,0,0,1-1.41-3.64v-8.2a4.82,4.82,0,0,1,1.41-3.63,5.83,5.83,0,0,1,7.47,0,4.72,4.72,0,0,1,1.41,3.58v.23c0,.17-.08.26-.25.26l-1.3.05c-.17,0-.25-.08-.25-.23v-.36a3.21,3.21,0,0,0-.93-2.39,3.69,3.69,0,0,0-4.84,0,3.22,3.22,0,0,0-.92,2.4V31.9a3.22,3.22,0,0,0,.92,2.4,3.66,3.66,0,0,0,4.84,0,3.21,3.21,0,0,0,.93-2.39v-.36c0-.15.08-.22.25-.22l1.3.07c.17,0,.25.09.25.26v.17a4.77,4.77,0,0,1-1.41,3.6,5.79,5.79,0,0,1-7.47,0Z"/><path class="cls-2" d="M109.62,19.27a4.55,4.55,0,0,1,1.83,1.86,5.7,5.7,0,0,1,.65,2.77V36.32a.23.23,0,0,1-.26.26h-1.29a.23.23,0,0,1-.26-.26l0-4.85h-6.84v4.85c0,.17-.08.26-.25.26h-1.3c-.17,0-.25-.09-.25-.26V23.9a5.59,5.59,0,0,1,.65-2.77,4.55,4.55,0,0,1,1.83-1.86,6,6,0,0,1,5.46,0Zm.67,10.5v-6a3.62,3.62,0,0,0-.94-2.61,3.54,3.54,0,0,0-4.93,0,3.62,3.62,0,0,0-.94,2.61v6Z"/><path class="cls-2" d="M124.58,18.79h1.29c.17,0,.26.08.26.25V36.32a.23.23,0,0,1-.26.26H124.5a.32.32,0,0,1-.31-.18l-6.81-13.6a.14.14,0,0,0-.09-.05s0,0,0,.08l0,13.49c0,.17-.08.26-.25.26h-1.3c-.17,0-.25-.09-.25-.26V19a.22.22,0,0,1,.25-.25h1.37a.31.31,0,0,1,.31.17l6.81,13.65a.11.11,0,0,0,.09,0s0,0,0-.07l0-13.55C124.32,18.87,124.41,18.79,124.58,18.79Z"/><path class="cls-2" d="M130.34,36.32V19c0-.17.09-.25.26-.25h1.29c.17,0,.26.08.26.25V36.32a.23.23,0,0,1-.26.26H130.6A.23.23,0,0,1,130.34,36.32Z"/><path class="cls-2" d="M136.86,35.52a4.28,4.28,0,0,1-1.41-3.36v-.69a.23.23,0,0,1,.26-.26H137a.23.23,0,0,1,.26.26v.58a2.94,2.94,0,0,0,1,2.29,3.7,3.7,0,0,0,2.57.87,3.3,3.3,0,0,0,2.36-.82,2.77,2.77,0,0,0,.87-2.13,2.72,2.72,0,0,0-.41-1.5,4,4,0,0,0-1.19-1.17c-.53-.36-1.28-.81-2.27-1.35a24.74,24.74,0,0,1-2.47-1.47,5.29,5.29,0,0,1-1.47-1.55,4.25,4.25,0,0,1-.55-2.24,4.1,4.1,0,0,1,1.32-3.23,5.13,5.13,0,0,1,3.53-1.17,5.32,5.32,0,0,1,3.76,1.3,4.46,4.46,0,0,1,1.4,3.43v.59c0,.17-.09.25-.26.25h-1.27a.22.22,0,0,1-.25-.25v-.56a3,3,0,0,0-.92-2.3,3.45,3.45,0,0,0-2.51-.88,3.19,3.19,0,0,0-2.23.74,2.69,2.69,0,0,0-.8,2.08,2.55,2.55,0,0,0,.39,1.45,3.88,3.88,0,0,0,1.1,1.07q.72.48,2.22,1.29a28.26,28.26,0,0,1,2.66,1.64A5.52,5.52,0,0,1,145.22,30a4,4,0,0,1,.55,2.15,4.39,4.39,0,0,1-1.37,3.39,5.32,5.32,0,0,1-3.74,1.26A5.5,5.5,0,0,1,136.86,35.52Z"/><path class="cls-2" d="M159,18.79h1.32c.17,0,.26.08.26.25V36.32a.23.23,0,0,1-.26.26H159a.23.23,0,0,1-.26-.26V22.5c0-.05,0-.09-.05-.1s-.06,0-.07.05l-3.38,5.87a.38.38,0,0,1-.31.18h-.28a.35.35,0,0,1-.3-.18L151,22.47s0-.07-.08,0a.11.11,0,0,0-.05.1v13.8c0,.17-.08.26-.25.26h-1.3c-.17,0-.25-.09-.25-.26V19a.22.22,0,0,1,.25-.25h1.32a.38.38,0,0,1,.31.17l3.84,6.54.07,0a.15.15,0,0,0,.08,0L158.71,19A.36.36,0,0,1,159,18.79Z"/><path class="cls-2" d="M166.78,36.13A4.55,4.55,0,0,1,165,34.32a5.4,5.4,0,0,1-.65-2.7V23.77a5.46,5.46,0,0,1,.65-2.71,4.48,4.48,0,0,1,1.83-1.83,6.06,6.06,0,0,1,5.46,0,4.57,4.57,0,0,1,1.84,1.83,5.47,5.47,0,0,1,.66,2.71v7.85a5.4,5.4,0,0,1-.66,2.7,4.64,4.64,0,0,1-1.84,1.81,6.06,6.06,0,0,1-5.46,0ZM172,34.24a3.51,3.51,0,0,0,.94-2.54v-8a3.59,3.59,0,0,0-.94-2.58,3.63,3.63,0,0,0-5,0,3.59,3.59,0,0,0-.94,2.58v8a3.51,3.51,0,0,0,.94,2.54,3.66,3.66,0,0,0,5,0Z"/><path class="cls-2" d="M179,35.52a4.28,4.28,0,0,1-1.41-3.36v-.69a.23.23,0,0,1,.26-.26h1.24a.23.23,0,0,1,.26.26v.58a2.94,2.94,0,0,0,1,2.29,3.7,3.7,0,0,0,2.57.87,3.3,3.3,0,0,0,2.36-.82,2.77,2.77,0,0,0,.87-2.13,2.72,2.72,0,0,0-.41-1.5,4,4,0,0,0-1.19-1.17c-.53-.36-1.28-.81-2.27-1.35a24.74,24.74,0,0,1-2.47-1.47,5.12,5.12,0,0,1-1.46-1.55,4.16,4.16,0,0,1-.56-2.24A4.1,4.1,0,0,1,179,19.75a5.13,5.13,0,0,1,3.53-1.17,5.32,5.32,0,0,1,3.76,1.3,4.46,4.46,0,0,1,1.4,3.43v.59a.22.22,0,0,1-.25.25H186.2a.22.22,0,0,1-.25-.25v-.56A3,3,0,0,0,185,21a3.47,3.47,0,0,0-2.52-.88,3.15,3.15,0,0,0-2.22.74,2.66,2.66,0,0,0-.8,2.08,2.55,2.55,0,0,0,.38,1.45A3.88,3.88,0,0,0,181,25.5c.48.32,1.23.75,2.23,1.29a29.23,29.23,0,0,1,2.65,1.64A5.7,5.7,0,0,1,187.34,30a4,4,0,0,1,.54,2.15,4.39,4.39,0,0,1-1.37,3.39,5.32,5.32,0,0,1-3.74,1.26A5.5,5.5,0,0,1,179,35.52Z"/><circle class="cls-2" cx="16.36" cy="27.33" r="12.58"/></g></g></svg>