<svg xmlns="http://www.w3.org/2000/svg" viewBox="0 0 115.37 75.69"><defs><style>.cls-1{fill:none;stroke:#fff;stroke-miterlimit:10;}.cls-2{fill:#fff;}.cls-3{fill:#f7931e;}</style></defs><title>Asset 245</title><g id="Layer_2" data-name="Layer 2"><g id="Layer_1-2" data-name="Layer 1"><rect class="cls-1" x="0.5" y="0.5" width="114.37" height="33.51"/><path class="cls-2" d="M16.4,25.24A4.27,4.27,0,0,1,15,21.89v-.68a.22.22,0,0,1,.25-.25h1.24a.22.22,0,0,1,.25.25v.58a2.9,2.9,0,0,0,1,2.27,3.66,3.66,0,0,0,2.56.86,3.31,3.31,0,0,0,2.35-.81A2.76,2.76,0,0,0,23.47,22a2.71,2.71,0,0,0-.41-1.49,4.13,4.13,0,0,0-1.19-1.16c-.52-.36-1.27-.8-2.25-1.34a23.69,23.69,0,0,1-2.46-1.47A5.07,5.07,0,0,1,15.71,15a4.18,4.18,0,0,1-.56-2.22,4,4,0,0,1,1.32-3.21A5.06,5.06,0,0,1,20,8.4a5.3,5.3,0,0,1,3.74,1.29,4.45,4.45,0,0,1,1.39,3.41v.58c0,.17-.09.25-.26.25H23.59a.22.22,0,0,1-.25-.25v-.56a3,3,0,0,0-.91-2.28,3.44,3.44,0,0,0-2.5-.88,3.12,3.12,0,0,0-2.21.74,2.68,2.68,0,0,0-.8,2.07,2.62,2.62,0,0,0,.38,1.44,3.73,3.73,0,0,0,1.1,1.06c.48.32,1.21.75,2.21,1.29a28.3,28.3,0,0,1,2.64,1.63,5.78,5.78,0,0,1,1.47,1.54,4,4,0,0,1,.54,2.14,4.35,4.35,0,0,1-1.37,3.37,5.29,5.29,0,0,1-3.71,1.25A5.51,5.51,0,0,1,16.4,25.24Z"/><path class="cls-2" d="M33.09,14.92h-2.4c-.07,0-.1,0-.1.1V22.6a2.31,2.31,0,0,0,.47,1.65,2,2,0,0,0,1.5.47H33a.22.22,0,0,1,.25.25V26a.22.22,0,0,1-.25.25l-.78,0a4,4,0,0,1-2.5-.67,3,3,0,0,1-.86-2.49V15a.09.09,0,0,0-.1-.1H27.48c-.17,0-.25-.09-.25-.26v-.91a.22.22,0,0,1,.25-.25h1.27a.09.09,0,0,0,.1-.1V10.52a.22.22,0,0,1,.25-.25h1.24a.22.22,0,0,1,.25.25V13.4c0,.07,0,.1.1.1h2.4a.23.23,0,0,1,.26.25v.91A.23.23,0,0,1,33.09,14.92Z"/><path class="cls-2" d="M43.44,14.46a4.2,4.2,0,0,1,1.15,3.09V26a.22.22,0,0,1-.25.25H43.05A.22.22,0,0,1,42.8,26v-.91a.1.1,0,0,0,0-.08s-.06,0-.09,0a3.43,3.43,0,0,1-1.42,1.06,5.09,5.09,0,0,1-1.92.35,4.34,4.34,0,0,1-2.71-.86,3.3,3.3,0,0,1-1.13-2.8,3.73,3.73,0,0,1,1.3-3.07,5.5,5.5,0,0,1,3.55-1.05h2.35a.1.1,0,0,0,.11-.1v-1a3,3,0,0,0-.65-2,2.37,2.37,0,0,0-1.91-.74,2.66,2.66,0,0,0-1.64.49,1.92,1.92,0,0,0-.78,1.3.25.25,0,0,1-.28.23l-1.39-.08a.24.24,0,0,1-.19-.07.19.19,0,0,1,0-.18A3.33,3.33,0,0,1,37.3,14.2a4.81,4.81,0,0,1,3-.9A4.28,4.28,0,0,1,43.44,14.46Zm-1.57,9.77a2.27,2.27,0,0,0,.93-1.93V20.25c0-.07,0-.1-.11-.1H40.47a3.62,3.62,0,0,0-2.3.67,2.28,2.28,0,0,0-.86,1.91A2,2,0,0,0,38,24.38a2.62,2.62,0,0,0,1.72.54A3.52,3.52,0,0,0,41.87,24.23Z"/><path class="cls-2" d="M52.68,14.92h-2.4c-.07,0-.11,0-.11.1V22.6a2.31,2.31,0,0,0,.47,1.65,2,2,0,0,0,1.51.47h.42a.23.23,0,0,1,.26.25V26a.23.23,0,0,1-.26.25l-.78,0a4,4,0,0,1-2.5-.67,3,3,0,0,1-.86-2.49V15c0-.07,0-.1-.1-.1H47.07a.23.23,0,0,1-.26-.26v-.91a.23.23,0,0,1,.26-.25h1.26c.07,0,.1,0,.1-.1V10.52a.22.22,0,0,1,.25-.25h1.24a.22.22,0,0,1,.25.25V13.4c0,.07,0,.1.11.1h2.4a.23.23,0,0,1,.25.25v.91A.23.23,0,0,1,52.68,14.92Z"/><path class="cls-2" d="M55.9,10.77a1.39,1.39,0,0,1-.39-1,1.34,1.34,0,0,1,1.41-1.41,1.4,1.4,0,0,1,1,.39,1.46,1.46,0,0,1,0,2,1.38,1.38,0,0,1-1,.41A1.36,1.36,0,0,1,55.9,10.77ZM56,26V13.75a.22.22,0,0,1,.25-.25h1.29a.22.22,0,0,1,.25.25V26a.22.22,0,0,1-.25.25H56.24A.22.22,0,0,1,56,26Z"/><path class="cls-2" d="M62.88,25.49a4.18,4.18,0,0,1-1.44-2.69,25.15,25.15,0,0,1-.15-2.93A23.89,23.89,0,0,1,61.44,17a4.13,4.13,0,0,1,1.43-2.68,5.1,5.1,0,0,1,6.09,0A4.09,4.09,0,0,1,70.39,17a20.87,20.87,0,0,1,.15,2.88,21.4,21.4,0,0,1-.15,2.93A4,4,0,0,1,69,25.49a5.12,5.12,0,0,1-6.08,0Zm4.87-1.24a2.83,2.83,0,0,0,.9-1.78c.06-.62.1-1.48.1-2.58s0-2-.1-2.57a2.72,2.72,0,0,0-.88-1.78,2.89,2.89,0,0,0-3.7,0,2.81,2.81,0,0,0-.88,1.78,24,24,0,0,0-.1,2.57,24.13,24.13,0,0,0,.1,2.58,2.63,2.63,0,0,0,2.73,2.45A2.63,2.63,0,0,0,67.75,24.25Z"/><path class="cls-2" d="M81.5,14.45a4.39,4.39,0,0,1,1,3.07V26a.23.23,0,0,1-.25.25H81a.23.23,0,0,1-.26-.25V17.77A3,3,0,0,0,80,15.68a2.33,2.33,0,0,0-1.87-.79,2.46,2.46,0,0,0-1.91.8,3.05,3.05,0,0,0-.72,2.13V26a.22.22,0,0,1-.25.25H74a.22.22,0,0,1-.25-.25V13.75A.22.22,0,0,1,74,13.5h1.29a.22.22,0,0,1,.25.25v1a.12.12,0,0,0,0,.08.09.09,0,0,0,.09,0,3.4,3.4,0,0,1,3-1.47A3.62,3.62,0,0,1,81.5,14.45Z"/><path class="cls-2" d="M94.62,23.18a.11.11,0,0,0,.1.05h6.07a.27.27,0,0,1,.21.09.29.29,0,0,1,.09.21V26a.29.29,0,0,1-.09.22.27.27,0,0,1-.21.09H90.43a.29.29,0,0,1-.22-.09.29.29,0,0,1-.08-.22V23.53a.49.49,0,0,1,.15-.35q3.06-3.51,5.08-6.09c1.21-1.57,1.82-2.81,1.82-3.71A2,2,0,0,0,96.7,12a1.85,1.85,0,0,0-2.57,0,1.89,1.89,0,0,0-.49,1.35v.84a.31.31,0,0,1-.3.3h-3a.29.29,0,0,1-.22-.09.29.29,0,0,1-.09-.21V13a4.49,4.49,0,0,1,1.65-3.32A5.75,5.75,0,0,1,95.48,8.4a6,6,0,0,1,2.8.63,4.51,4.51,0,0,1,1.85,1.77,5,5,0,0,1,.66,2.55,6,6,0,0,1-.48,2.34,11.61,11.61,0,0,1-1.47,2.46c-.42.56-.92,1.18-1.51,1.87s-1.18,1.37-1.77,2l-.91,1A.08.08,0,0,0,94.62,23.18Z"/><polygon class="cls-3" points="77.48 40.89 57.37 75.69 37.25 40.89 77.48 40.89"/></g></g></svg>