<svg xmlns="http://www.w3.org/2000/svg" viewBox="0 0 276.12 88.75"><defs><style>.cls-1{fill:#fff;}</style></defs><title>Asset 209</title><g id="Layer_2" data-name="Layer 2"><g id="Layer_1-2" data-name="Layer 1"><path class="cls-1" d="M6.68,65.83a12,12,0,0,1-4.92-4.58A13,13,0,0,1,0,54.42V50.28a.71.71,0,0,1,.22-.53.71.71,0,0,1,.53-.22H8.09a.75.75,0,0,1,.75.75v4.2a5.43,5.43,0,0,0,1.41,3.92A5,5,0,0,0,14,59.88a5.12,5.12,0,0,0,3.8-1.51,5.33,5.33,0,0,0,1.47-3.89V23.83a.75.75,0,0,1,.75-.75H27.4a.75.75,0,0,1,.75.75V54.42a13.08,13.08,0,0,1-1.76,6.83,11.88,11.88,0,0,1-5,4.58A16.08,16.08,0,0,1,14,67.46,15.81,15.81,0,0,1,6.68,65.83Z"/><path class="cls-1" d="M41.31,65.71a12.46,12.46,0,0,1-5-4.93,14.49,14.49,0,0,1-1.79-7.3V23.83a.75.75,0,0,1,.75-.75h7.34a.71.71,0,0,1,.53.22.69.69,0,0,1,.22.53V53.92a6.15,6.15,0,0,0,1.5,4.33,5.76,5.76,0,0,0,8,0,6.15,6.15,0,0,0,1.5-4.33V23.83a.69.69,0,0,1,.22-.53.73.73,0,0,1,.53-.22h7.34a.75.75,0,0,1,.75.75V53.48a14.59,14.59,0,0,1-1.78,7.3,12.55,12.55,0,0,1-5,4.93,15.61,15.61,0,0,1-7.52,1.75A15.65,15.65,0,0,1,41.31,65.71Z"/><path class="cls-1" d="M95.82,30.44a.69.69,0,0,1-.53.22H78.49a.28.28,0,0,0-.32.31v9.78a.29.29,0,0,0,.32.32H89a.71.71,0,0,1,.53.22.69.69,0,0,1,.22.53V47.9a.69.69,0,0,1-.22.53.71.71,0,0,1-.53.22H78.49a.29.29,0,0,0-.32.32V59.06a.28.28,0,0,0,.32.31h16.8a.75.75,0,0,1,.75.76v6.08a.71.71,0,0,1-.22.53.69.69,0,0,1-.53.22H70.09a.73.73,0,0,1-.54-.22.74.74,0,0,1-.21-.53V23.83a.72.72,0,0,1,.21-.53.73.73,0,0,1,.54-.22h25.2a.75.75,0,0,1,.75.75v6.08A.69.69,0,0,1,95.82,30.44Z"/><path class="cls-1" d="M107.45,65.77a12.24,12.24,0,0,1-5-4.8,14.14,14.14,0,0,1-1.78-7.18V36.18A14,14,0,0,1,102.4,29a12.21,12.21,0,0,1,5-4.76,16.06,16.06,0,0,1,7.52-1.7,16.42,16.42,0,0,1,7.5,1.67,12.11,12.11,0,0,1,5.07,4.63,12.89,12.89,0,0,1,1.79,6.74V37a.73.73,0,0,1-.22.54.75.75,0,0,1-.53.22h-7.34a.75.75,0,0,1-.53-.22.73.73,0,0,1-.22-.54V35.68a5.47,5.47,0,0,0-1.5-3.95,5.88,5.88,0,0,0-8.06.06,6,6,0,0,0-1.54,4.26V54a5.87,5.87,0,0,0,1.6,4.27,5.62,5.62,0,0,0,4.17,1.63,5.37,5.37,0,0,0,3.92-1.45,5.27,5.27,0,0,0,1.47-4V50.6a.28.28,0,0,0-.31-.32h-4.89a.75.75,0,0,1-.75-.75v-5.7a.75.75,0,0,1,.75-.76h13.23a.75.75,0,0,1,.53.22.73.73,0,0,1,.22.54v10q0,6.27-3.92,10T115,67.46A16.06,16.06,0,0,1,107.45,65.77Z"/><path class="cls-1" d="M141.4,65.77a12.5,12.5,0,0,1-5.11-4.95,14.88,14.88,0,0,1-1.82-7.46V36.68a14.73,14.73,0,0,1,1.82-7.4,12.5,12.5,0,0,1,5.11-5A15.92,15.92,0,0,1,149,22.57a16.11,16.11,0,0,1,7.65,1.76,12.45,12.45,0,0,1,5.14,5,14.63,14.63,0,0,1,1.82,7.4V53.36a14.78,14.78,0,0,1-1.82,7.46,12.45,12.45,0,0,1-5.14,4.95A16.11,16.11,0,0,1,149,67.52,15.92,15.92,0,0,1,141.4,65.77Zm11.81-7.56a6.38,6.38,0,0,0,1.57-4.48V36.43a6.49,6.49,0,0,0-1.57-4.55,5.38,5.38,0,0,0-4.2-1.72,5.3,5.3,0,0,0-4.13,1.72,6.49,6.49,0,0,0-1.57,4.55v17.3a6.38,6.38,0,0,0,1.57,4.48A5.31,5.31,0,0,0,149,59.94,5.39,5.39,0,0,0,153.21,58.21Z"/><path class="cls-1" d="M231.75,0a44.38,44.38,0,1,0,44.37,44.37A44.37,44.37,0,0,0,231.75,0Zm22.4,44.94L236,55.45,217.76,66a.65.65,0,0,1-1-.57v-42a.65.65,0,0,1,1-.57L236,33.3l18.19,10.51A.65.65,0,0,1,254.15,44.94Z"/></g></g></svg>