<svg xmlns="http://www.w3.org/2000/svg" viewBox="0 0 265.51 89.63"><defs><style>.cls-1{fill:#fff;}.cls-2{fill:none;}</style></defs><title>Asset 148</title><g id="Layer_2" data-name="Layer 2"><g id="Layer_1-2" data-name="Layer 1"><path class="cls-1" d="M10.91,66.33,0,23.89v-.25q0-.57.69-.57h8a.76.76,0,0,1,.82.69L15.8,52.91c0,.17.1.25.19.25s.14-.08.18-.25l6.27-29.15a.76.76,0,0,1,.82-.69H31c.58,0,.81.27.69.82l-11,42.44a.82.82,0,0,1-.88.62h-8A.82.82,0,0,1,10.91,66.33Z"/><path class="cls-1" d="M36.77,66.74a.73.73,0,0,1-.22-.54V23.82a.71.71,0,0,1,.22-.53.69.69,0,0,1,.53-.22h7.34a.73.73,0,0,1,.53.22.75.75,0,0,1,.22.53V66.2a.77.77,0,0,1-.22.54.76.76,0,0,1-.53.21H37.3A.72.72,0,0,1,36.77,66.74Z"/><path class="cls-1" d="M57.55,65.92a11.84,11.84,0,0,1-5-4.32,11.68,11.68,0,0,1-1.78-6.43V53.54a.75.75,0,0,1,.75-.75h7.21a.71.71,0,0,1,.53.22.69.69,0,0,1,.22.53v1.19a4.74,4.74,0,0,0,1.63,3.67,6.31,6.31,0,0,0,4.39,1.47,5.16,5.16,0,0,0,3.73-1.25,4.3,4.3,0,0,0,1.28-3.2,3.91,3.91,0,0,0-.81-2.48A8.88,8.88,0,0,0,67.36,51c-1-.61-2.5-1.43-4.55-2.48A52.92,52.92,0,0,1,56.67,45a14.84,14.84,0,0,1-4.07-4.2,11,11,0,0,1-1.7-6.2,11.66,11.66,0,0,1,1.73-6.37A11.3,11.3,0,0,1,57.49,24a18.13,18.13,0,0,1,14.6.13A11.93,11.93,0,0,1,79,35.3v1.25a.69.69,0,0,1-.22.53.71.71,0,0,1-.53.22H71a.73.73,0,0,1-.54-.22.72.72,0,0,1-.21-.53V35.42a5,5,0,0,0-1.57-3.76,5.92,5.92,0,0,0-4.26-1.5,5.08,5.08,0,0,0-3.55,1.16,4.14,4.14,0,0,0-1.28,3.22,4.23,4.23,0,0,0,.75,2.51,7.81,7.81,0,0,0,2.32,2c1,.65,2.63,1.49,4.76,2.54l1.32.75a57.49,57.49,0,0,1,5.67,3.48,12.76,12.76,0,0,1,3.42,3.73A10.26,10.26,0,0,1,79.24,55a11.35,11.35,0,0,1-3.86,9.06q-3.85,3.36-10.25,3.36A17.65,17.65,0,0,1,57.55,65.92Z"/><path class="cls-1" d="M84.79,66.74a.73.73,0,0,1-.22-.54V23.82a.71.71,0,0,1,.22-.53.69.69,0,0,1,.53-.22h7.34a.73.73,0,0,1,.53.22.75.75,0,0,1,.22.53V66.2a.77.77,0,0,1-.22.54.76.76,0,0,1-.53.21H85.32A.72.72,0,0,1,84.79,66.74Z"/><path class="cls-1" d="M127.79,23.29a.71.71,0,0,1,.22.53V30a.71.71,0,0,1-.22.53.69.69,0,0,1-.53.22h-9.53a.27.27,0,0,0-.31.31V66.2a.77.77,0,0,1-.22.54.76.76,0,0,1-.53.21h-7.34a.72.72,0,0,1-.53-.21.73.73,0,0,1-.22-.54V31a.28.28,0,0,0-.32-.31H99.05a.69.69,0,0,1-.53-.22A.71.71,0,0,1,98.3,30V23.82a.71.71,0,0,1,.22-.53.69.69,0,0,1,.53-.22h28.21A.69.69,0,0,1,127.79,23.29Z"/><path class="cls-1" d="M143.75,22.57a15.61,15.61,0,0,1,7.52,1.76,12.46,12.46,0,0,1,5,4.92,14.59,14.59,0,0,1,1.78,7.3V66.2a.73.73,0,0,1-.22.54.72.72,0,0,1-.53.21H150a.76.76,0,0,1-.54-.21.77.77,0,0,1-.22-.54V57.05h-11V66.2a.73.73,0,0,1-.22.54.74.74,0,0,1-.53.21h-7.34a.74.74,0,0,1-.53-.21.73.73,0,0,1-.22-.54V36.55a14.6,14.6,0,0,1,1.79-7.3,12.44,12.44,0,0,1,5-4.92A15.65,15.65,0,0,1,143.75,22.57Zm5.51,27V36.11a6.15,6.15,0,0,0-1.5-4.33,5.79,5.79,0,0,0-8,0,6.15,6.15,0,0,0-1.5,4.33V49.59Z"/><path class="cls-1" d="M204.81,49.9a9,9,0,0,1-.76,3.87,5.8,5.8,0,0,1-2.23,2.6,6.75,6.75,0,0,1-3.63.92A6.88,6.88,0,0,1,193.88,56a5.74,5.74,0,0,1-2.19-3.55,13.57,13.57,0,0,1-.25-2.15.34.34,0,0,1,.38-.38h3.74a.34.34,0,0,1,.38.38,6.94,6.94,0,0,0,.19,1.39,2.32,2.32,0,0,0,.7,1.34,2,2,0,0,0,1.36.47,1.91,1.91,0,0,0,1.28-.43,2.32,2.32,0,0,0,.75-1.22,8.59,8.59,0,0,0,.25-2.22,6.66,6.66,0,0,0-.31-2.25,2,2,0,0,0-2-1.65,2.14,2.14,0,0,0-1.21.45.38.38,0,0,1-.22.06.4.4,0,0,1-.31-.13L194.55,44a.55.55,0,0,1-.13-.28.34.34,0,0,1,.13-.25l4.5-4.6a.11.11,0,0,0,0-.13.14.14,0,0,0-.13-.06h-6.72a.38.38,0,0,1-.38-.38V35.22A.36.36,0,0,1,192,35a.37.37,0,0,1,.27-.12h12.08a.37.37,0,0,1,.27.12.36.36,0,0,1,.11.26v3.17a.87.87,0,0,1-.19.48l-4,4.34c-.07.11,0,.17.06.19a4.57,4.57,0,0,1,2.14,1,5.34,5.34,0,0,1,1.44,2A9.31,9.31,0,0,1,204.81,49.9Z"/><path class="cls-1" d="M220.6,50a9.51,9.51,0,0,1-.44,2.95,5.59,5.59,0,0,1-2.22,3.16,7,7,0,0,1-4.06,1.11,6.92,6.92,0,0,1-3.55-.87,5.36,5.36,0,0,1-2.22-2.52.28.28,0,0,0,0-.08.59.59,0,0,0-.08-.11,6.68,6.68,0,0,1-.83-3.45l0-9.92A5.2,5.2,0,0,1,209,36.14a7.1,7.1,0,0,1,4.78-1.55,6.78,6.78,0,0,1,4.63,1.55,5.23,5.23,0,0,1,1.78,4.12v.92a.37.37,0,0,1-.11.27.36.36,0,0,1-.27.11h-3.71a.38.38,0,0,1-.38-.38v-.47a2.29,2.29,0,0,0-.56-1.6,1.79,1.79,0,0,0-1.38-.62,2,2,0,0,0-1.5.63,2.31,2.31,0,0,0-.59,1.62v3c0,.07,0,.11.06.13a.11.11,0,0,0,.13,0,4.19,4.19,0,0,1,2.85-1,5.43,5.43,0,0,1,3.27,1,5.79,5.79,0,0,1,2,2.74A8.92,8.92,0,0,1,220.6,50Zm-4.53-.1a6.18,6.18,0,0,0-.32-2.12,1.88,1.88,0,0,0-1.9-1.33A1.86,1.86,0,0,0,212,47.81a6,6,0,0,0-.32,2.15,7.27,7.27,0,0,0,.22,1.87,1.91,1.91,0,0,0,2,1.59,2,2,0,0,0,2-1.62A7.8,7.8,0,0,0,216.07,49.93Z"/><path class="cls-1" d="M224.53,55.53a6.71,6.71,0,0,1-1.87-5V41.34a6.67,6.67,0,0,1,1.87-5,7.72,7.72,0,0,1,10,0,6.64,6.64,0,0,1,1.89,5v9.19a6.69,6.69,0,0,1-1.89,5,7.72,7.72,0,0,1-10,0Zm6.78-2.73a2.89,2.89,0,0,0,.67-2V41.12a2.85,2.85,0,0,0-.67-2,2.29,2.29,0,0,0-1.77-.73,2.26,2.26,0,0,0-1.76.73,2.89,2.89,0,0,0-.65,2v9.67a2.93,2.93,0,0,0,.65,2,2.2,2.2,0,0,0,1.76.75A2.24,2.24,0,0,0,231.31,52.8Z"/><path class="cls-1" d="M239.62,40.25a3,3,0,0,1-1.46-2.58,2.85,2.85,0,0,1,.4-1.49,2.89,2.89,0,0,1,1.06-1.08,3,3,0,0,1,4.45,2.57,3,3,0,0,1-.39,1.5,2.94,2.94,0,0,1-1.08,1.08,3,3,0,0,1-3,0Zm2.45-1.62a1.31,1.31,0,0,0,.4-1,1.39,1.39,0,0,0-.4-1,1.35,1.35,0,0,0-1-.4,1.31,1.31,0,0,0-1,.4,1.41,1.41,0,0,0-.38,1,1.34,1.34,0,0,0,.38,1,1.28,1.28,0,0,0,1,.4A1.31,1.31,0,0,0,242.07,38.63Z"/><path class="cls-2" d="M217.69,86.53A41.73,41.73,0,0,0,259.43,44.8H176A41.73,41.73,0,0,0,217.69,86.53Z"/><path class="cls-1" d="M179,44.8H172.9a44.8,44.8,0,0,1,87.37-14l-5.81,1.9A38.69,38.69,0,0,0,179,44.8Z"/><polygon class="cls-1" points="265.51 27.54 259.43 44.8 247.52 30.9 265.51 27.54"/><path class="cls-1" d="M218.7,89.63a46.21,46.21,0,0,1-18.26-3.82c-17-7.29-27.54-23-27.54-41H179c0,15.52,9.14,29.08,23.84,35.39s30.54,3.53,41.69-7.07A38.47,38.47,0,0,0,256.28,48l6.11.4a44.75,44.75,0,0,1-13.63,29.13A43.38,43.38,0,0,1,218.7,89.63Z"/></g></g></svg>