<svg xmlns="http://www.w3.org/2000/svg" viewBox="0 0 155.83 34.51"><defs><style>.cls-1{fill:none;stroke:#fff;stroke-miterlimit:10;}.cls-2{fill:#fff;}</style></defs><title>Asset 221</title><g id="Layer_2" data-name="Layer 2"><g id="Layer_1-2" data-name="Layer 1"><rect class="cls-1" x="40.96" y="0.5" width="114.37" height="33.51"/><path class="cls-2" d="M57.84,10.17H50.26a.09.09,0,0,0-.1.1v6.26a.1.1,0,0,0,.1.11h5.11a.22.22,0,0,1,.25.25V18a.22.22,0,0,1-.25.25H50.26a.09.09,0,0,0-.1.1v6.32a.09.09,0,0,0,.1.1h7.58a.23.23,0,0,1,.26.25V26a.23.23,0,0,1-.26.25H48.62a.22.22,0,0,1-.25-.25V8.85a.22.22,0,0,1,.25-.25h9.22c.17,0,.26.08.26.25V9.91A.23.23,0,0,1,57.84,10.17Z"/><path class="cls-2" d="M61.63,25.48a2.91,2.91,0,0,1-1.18-2.4v-.23a.22.22,0,0,1,.25-.25h1.24a.22.22,0,0,1,.25.25V23a1.76,1.76,0,0,0,.72,1.4,2.8,2.8,0,0,0,1.86.59,2.64,2.64,0,0,0,1.79-.58A1.8,1.8,0,0,0,67.24,23a1.5,1.5,0,0,0-.38-1.06,2.69,2.69,0,0,0-.93-.69c-.37-.16-.88-.36-1.54-.58a14.64,14.64,0,0,1-2-.81,3.68,3.68,0,0,1-1.33-1.12,3,3,0,0,1-.54-1.83,3.19,3.19,0,0,1,1.13-2.57,5.29,5.29,0,0,1,6.08,0,3.17,3.17,0,0,1,1.15,2.53v.05a.22.22,0,0,1-.25.25H67.5c-.17,0-.26-.08-.26-.25v-.1a1.78,1.78,0,0,0-.69-1.43,2.83,2.83,0,0,0-1.86-.57,2.69,2.69,0,0,0-1.75.54,1.73,1.73,0,0,0-.67,1.41,1.52,1.52,0,0,0,.67,1.34,9.79,9.79,0,0,0,2.11,1,17.1,17.1,0,0,1,2,.8A4.07,4.07,0,0,1,68.47,21,2.91,2.91,0,0,1,69,22.88a3.17,3.17,0,0,1-1.16,2.57,4.7,4.7,0,0,1-3.11,1A5,5,0,0,1,61.63,25.48Z"/><path class="cls-2" d="M76.69,14.92h-2.4a.09.09,0,0,0-.1.1V22.6a2.31,2.31,0,0,0,.47,1.65,2,2,0,0,0,1.5.47h.43a.23.23,0,0,1,.26.25V26a.23.23,0,0,1-.26.25l-.78,0a4,4,0,0,1-2.5-.67,3,3,0,0,1-.86-2.49V15c0-.07,0-.1-.1-.1H71.08a.23.23,0,0,1-.25-.26v-.91a.23.23,0,0,1,.25-.25h1.27c.07,0,.1,0,.1-.1V10.52a.22.22,0,0,1,.25-.25h1.24a.22.22,0,0,1,.25.25V13.4a.09.09,0,0,0,.1.1h2.4a.23.23,0,0,1,.26.25v.91A.23.23,0,0,1,76.69,14.92Z"/><path class="cls-2" d="M87,14.46a4.2,4.2,0,0,1,1.15,3.09V26a.22.22,0,0,1-.25.25H86.65A.22.22,0,0,1,86.4,26v-.91a.08.08,0,0,0,0-.08s-.06,0-.09,0a3.47,3.47,0,0,1-1.41,1.06,5.17,5.17,0,0,1-1.92.35,4.35,4.35,0,0,1-2.72-.86,3.3,3.3,0,0,1-1.13-2.8,3.71,3.71,0,0,1,1.31-3.07A5.48,5.48,0,0,1,84,18.71H86.3a.09.09,0,0,0,.1-.1v-1a3,3,0,0,0-.65-2,2.36,2.36,0,0,0-1.9-.74,2.67,2.67,0,0,0-1.65.49,1.92,1.92,0,0,0-.78,1.3.25.25,0,0,1-.28.23l-1.39-.08a.24.24,0,0,1-.19-.07.22.22,0,0,1,0-.18A3.33,3.33,0,0,1,80.9,14.2a4.81,4.81,0,0,1,3-.9A4.26,4.26,0,0,1,87,14.46Zm-1.56,9.77a2.29,2.29,0,0,0,.92-1.93V20.25a.09.09,0,0,0-.1-.1H84.07a3.64,3.64,0,0,0-2.3.67,2.28,2.28,0,0,0-.86,1.91,2,2,0,0,0,.66,1.65,2.62,2.62,0,0,0,1.72.54A3.57,3.57,0,0,0,85.48,24.23Z"/><path class="cls-2" d="M92.71,25.49a4.18,4.18,0,0,1-1.44-2.69,25.51,25.51,0,0,1-.15-2.93q0-1.29.15-2.91a4.12,4.12,0,0,1,1.44-2.65,4.58,4.58,0,0,1,3-1,4.75,4.75,0,0,1,3,1,3.62,3.62,0,0,1,1.43,2.4l.08.53v0a.26.26,0,0,1-.07.17.23.23,0,0,1-.16.06l-1.29.08a.26.26,0,0,1-.28-.23,1.85,1.85,0,0,0,0-.31,2.4,2.4,0,0,0-.88-1.51,2.71,2.71,0,0,0-1.83-.63,2.53,2.53,0,0,0-1.83.68A2.8,2.8,0,0,0,93,17.32a23.73,23.73,0,0,0-.12,2.57A24.26,24.26,0,0,0,93,22.5a2.76,2.76,0,0,0,.85,1.77,2.64,2.64,0,0,0,1.83.65,2.79,2.79,0,0,0,1.86-.63,2.29,2.29,0,0,0,.85-1.54l0-.2c0-.19.13-.26.28-.23l1.26.1c.15,0,.23.11.23.23v.1a1.53,1.53,0,0,1,0,.3,3.62,3.62,0,0,1-1.4,2.47,4.76,4.76,0,0,1-3,1A4.52,4.52,0,0,1,92.71,25.49Z"/><path class="cls-2" d="M103.24,10.77a1.39,1.39,0,0,1-.39-1,1.44,1.44,0,0,1,2.42-1,1.46,1.46,0,0,1,0,2,1.46,1.46,0,0,1-2,0ZM103.33,26V13.75a.22.22,0,0,1,.25-.25h1.29a.22.22,0,0,1,.25.25V26a.22.22,0,0,1-.25.25h-1.29A.22.22,0,0,1,103.33,26Z"/><path class="cls-2" d="M110.23,25.49a4.09,4.09,0,0,1-1.44-2.69,23,23,0,0,1-.16-2.93,21.82,21.82,0,0,1,.16-2.88,4.07,4.07,0,0,1,1.42-2.68,5.1,5.1,0,0,1,6.09,0A4.09,4.09,0,0,1,117.73,17a20.87,20.87,0,0,1,.15,2.88,21.4,21.4,0,0,1-.15,2.93,4,4,0,0,1-1.43,2.69,5.11,5.11,0,0,1-6.07,0Zm4.86-1.24a2.78,2.78,0,0,0,.9-1.78c.06-.62.1-1.48.1-2.58s0-2-.1-2.57a2.75,2.75,0,0,0-.87-1.78,2.67,2.67,0,0,0-1.86-.67,2.63,2.63,0,0,0-1.85.67,2.86,2.86,0,0,0-.88,1.78,24,24,0,0,0-.1,2.57,24.13,24.13,0,0,0,.1,2.58,2.63,2.63,0,0,0,2.73,2.45A2.63,2.63,0,0,0,115.09,24.25Zm-2.94-12.5a.2.2,0,0,1,0-.22l1.54-2.75A.38.38,0,0,1,114,8.6h1.08c.1,0,.17,0,.19.09a.21.21,0,0,1,0,.21l-1.75,2.76a.36.36,0,0,1-.3.17h-.86C112.25,11.83,112.18,11.81,112.15,11.75Z"/><path class="cls-2" d="M128.71,14.45a4.39,4.39,0,0,1,1,3.07V26a.22.22,0,0,1-.25.25h-1.29a.22.22,0,0,1-.25-.25V17.77a3.09,3.09,0,0,0-.68-2.09,2.34,2.34,0,0,0-1.87-.79,2.46,2.46,0,0,0-1.91.8,3.05,3.05,0,0,0-.72,2.13V26a.22.22,0,0,1-.25.25h-1.29A.22.22,0,0,1,121,26V13.75a.22.22,0,0,1,.25-.25h1.29a.22.22,0,0,1,.25.25v1a.09.09,0,0,0,0,.08s0,0,.09,0a3.38,3.38,0,0,1,3-1.47A3.58,3.58,0,0,1,128.71,14.45Z"/><path class="cls-2" d="M148.08,20.7a7.53,7.53,0,0,1-.35,2.35A4.46,4.46,0,0,1,146,25.58a6.21,6.21,0,0,1-6.07.19,4.25,4.25,0,0,1-1.77-2,.13.13,0,0,0,0-.06.24.24,0,0,0-.06-.09,5.32,5.32,0,0,1-.66-2.76l0-7.9a4.13,4.13,0,0,1,1.44-3.31,5.62,5.62,0,0,1,3.81-1.24,5.37,5.37,0,0,1,3.69,1.24,4.12,4.12,0,0,1,1.42,3.28v.73a.31.31,0,0,1-.31.31h-2.95a.31.31,0,0,1-.31-.31v-.38a1.8,1.8,0,0,0-.44-1.27,1.4,1.4,0,0,0-1.1-.49,1.54,1.54,0,0,0-1.2.5A1.84,1.84,0,0,0,141,13.3v2.43a.1.1,0,0,0,.06.1.09.09,0,0,0,.1,0,3.34,3.34,0,0,1,2.27-.81,4.27,4.27,0,0,1,2.6.8,4.57,4.57,0,0,1,1.6,2.18A7.18,7.18,0,0,1,148.08,20.7Zm-3.61-.07a4.8,4.8,0,0,0-.26-1.69,1.59,1.59,0,0,0-3,0,4.65,4.65,0,0,0-.26,1.71,5.43,5.43,0,0,0,.18,1.49,1.52,1.52,0,0,0,1.57,1.27,1.59,1.59,0,0,0,1.59-1.29A5.85,5.85,0,0,0,144.47,20.63Z"/><polygon class="cls-1" points="33.03 25.4 33.03 0.95 0.5 0.95 0.5 25.4 23.57 25.4 23.57 31.79 27.58 25.4 33.03 25.4"/><line class="cls-1" x1="8.23" y1="13.05" x2="25.3" y2="13.05"/><line class="cls-1" x1="8.23" y1="7.58" x2="25.3" y2="7.58"/><line class="cls-1" x1="8.23" y1="18.51" x2="25.3" y2="18.51"/></g></g></svg>