<svg xmlns="http://www.w3.org/2000/svg" viewBox="0 0 141.11 27.17"><defs><style>.cls-1{fill:#fff;}.cls-2{fill:none;stroke:#fff;stroke-miterlimit:10;}</style></defs><title>Asset 227</title><g id="Layer_2" data-name="Layer 2"><g id="Layer_1-2" data-name="Layer 1"><path class="cls-1" d="M49.54,21.87v-17a.22.22,0,0,1,.25-.25h1.28a.22.22,0,0,1,.25.25V20.47a.09.09,0,0,0,.1.1h7.3a.22.22,0,0,1,.25.25v1.05a.22.22,0,0,1-.25.25H49.79A.22.22,0,0,1,49.54,21.87Z"/><path class="cls-1" d="M68.51,10.39a4.17,4.17,0,0,1,1.14,3.06v8.42a.22.22,0,0,1-.25.25H68.12a.22.22,0,0,1-.25-.25V21a.08.08,0,0,0,0-.08s0,0-.09,0a3.27,3.27,0,0,1-1.4,1,5,5,0,0,1-1.91.35,4.28,4.28,0,0,1-2.69-.85,3.27,3.27,0,0,1-1.12-2.78,3.68,3.68,0,0,1,1.29-3.05,5.5,5.5,0,0,1,3.53-1h2.33c.07,0,.1,0,.1-.1v-.95a3,3,0,0,0-.64-2,2.35,2.35,0,0,0-1.89-.74,2.59,2.59,0,0,0-1.63.49,1.87,1.87,0,0,0-.78,1.29c0,.15-.11.22-.28.22l-1.38-.07a.22.22,0,0,1-.18-.08.16.16,0,0,1,0-.17,3.33,3.33,0,0,1,1.37-2.35,4.78,4.78,0,0,1,2.94-.89A4.23,4.23,0,0,1,68.51,10.39ZM67,20.08a2.27,2.27,0,0,0,.92-1.92v-2c0-.07,0-.1-.1-.1H65.56a3.63,3.63,0,0,0-2.28.66,2.27,2.27,0,0,0-.85,1.9,2,2,0,0,0,.65,1.64,2.58,2.58,0,0,0,1.71.54A3.49,3.49,0,0,0,67,20.08Z"/><path class="cls-1" d="M80.57,10.37a4.35,4.35,0,0,1,1,3.05v8.45a.22.22,0,0,1-.25.25H80.05a.22.22,0,0,1-.25-.25v-8.2a3.06,3.06,0,0,0-.67-2.08,2.34,2.34,0,0,0-1.86-.78,2.44,2.44,0,0,0-1.89.79,3,3,0,0,0-.72,2.12v8.15a.22.22,0,0,1-.25.25H73.13a.22.22,0,0,1-.25-.25V9.68a.23.23,0,0,1,.25-.25h1.28a.22.22,0,0,1,.25.25v1a.1.1,0,0,0,0,.08.07.07,0,0,0,.09,0,3.36,3.36,0,0,1,3-1.45A3.57,3.57,0,0,1,80.57,10.37Z"/><path class="cls-1" d="M92,9.43h1.28a.22.22,0,0,1,.25.25V21.77q0,5.67-6.19,5.39a.25.25,0,0,1-.25-.27l0-1.13a.2.2,0,0,1,.08-.19.17.17,0,0,1,.17,0,4.69,4.69,0,0,0,3.37-.86,3.91,3.91,0,0,0,1-3v-.83a.07.07,0,0,0,0-.07s0,0-.09,0a3.3,3.3,0,0,1-2.9,1.41,3.9,3.9,0,0,1-2.69-1,4.24,4.24,0,0,1-1.33-2.62,21.69,21.69,0,0,1-.15-2.83,18.9,18.9,0,0,1,.18-3A4.05,4.05,0,0,1,86,10.21a3.81,3.81,0,0,1,2.67-1,3.42,3.42,0,0,1,3,1.38s.07.05.09,0a.05.05,0,0,0,0-.06V9.68A.22.22,0,0,1,92,9.43Zm-.25,6.32c0-1,0-1.85-.08-2.56a2.69,2.69,0,0,0-.79-1.73,2.41,2.41,0,0,0-1.76-.67,2.53,2.53,0,0,0-1.8.67,2.92,2.92,0,0,0-.86,1.73,24.08,24.08,0,0,0-.1,2.56c0,.84,0,1.67.1,2.51A2.73,2.73,0,0,0,87.35,20a2.57,2.57,0,0,0,1.81.68A2.42,2.42,0,0,0,90.92,20a2.66,2.66,0,0,0,.79-1.73C91.76,17.61,91.79,16.77,91.79,15.75Z"/><path class="cls-1" d="M103.85,9.43h1.28a.23.23,0,0,1,.25.25V21.87a.22.22,0,0,1-.25.25h-1.28a.22.22,0,0,1-.25-.25v-1c0-.05,0-.07,0-.07a.14.14,0,0,0-.09.05,3.14,3.14,0,0,1-2.91,1.43,3.93,3.93,0,0,1-2.78-1,3.74,3.74,0,0,1-1.08-2.9V9.68A.23.23,0,0,1,97,9.43h1.28a.22.22,0,0,1,.25.25v8.25A3,3,0,0,0,99.13,20a2.31,2.31,0,0,0,1.84.74A2.45,2.45,0,0,0,102.9,20a3.1,3.1,0,0,0,.7-2.12V9.68A.22.22,0,0,1,103.85,9.43Z"/><path class="cls-1" d="M116.1,10.39a4.17,4.17,0,0,1,1.14,3.06v8.42a.22.22,0,0,1-.25.25h-1.28a.22.22,0,0,1-.25-.25V21a.08.08,0,0,0,0-.08s0,0-.09,0a3.27,3.27,0,0,1-1.4,1,5.08,5.08,0,0,1-1.91.35,4.28,4.28,0,0,1-2.69-.85,3.27,3.27,0,0,1-1.12-2.78,3.68,3.68,0,0,1,1.29-3.05,5.5,5.5,0,0,1,3.53-1h2.33a.09.09,0,0,0,.1-.1v-.95a3,3,0,0,0-.64-2,2.35,2.35,0,0,0-1.89-.74,2.59,2.59,0,0,0-1.63.49,1.87,1.87,0,0,0-.78,1.29c0,.15-.11.22-.28.22l-1.38-.07a.22.22,0,0,1-.18-.08.16.16,0,0,1,0-.17A3.32,3.32,0,0,1,110,10.12a4.83,4.83,0,0,1,3-.89A4.23,4.23,0,0,1,116.1,10.39Zm-1.56,9.69a2.27,2.27,0,0,0,.92-1.92v-2a.09.09,0,0,0-.1-.1h-2.21a3.63,3.63,0,0,0-2.28.66,2.27,2.27,0,0,0-.85,1.9,2,2,0,0,0,.65,1.64,2.57,2.57,0,0,0,1.7.54A3.49,3.49,0,0,0,114.54,20.08Z"/><path class="cls-1" d="M127.54,9.43h1.28a.22.22,0,0,1,.25.25V21.77q0,5.67-6.19,5.39a.25.25,0,0,1-.25-.27l0-1.13a.23.23,0,0,1,.08-.19.18.18,0,0,1,.17,0,4.72,4.72,0,0,0,3.38-.86,4,4,0,0,0,1-3v-.83a.08.08,0,0,0,0-.07s-.06,0-.09,0a3.31,3.31,0,0,1-2.91,1.41,3.87,3.87,0,0,1-2.68-1,4.19,4.19,0,0,1-1.33-2.62,21.69,21.69,0,0,1-.15-2.83,19.11,19.11,0,0,1,.17-3,4.11,4.11,0,0,1,1.27-2.61,3.81,3.81,0,0,1,2.67-1,3.43,3.43,0,0,1,3,1.38s.06.05.09,0a.06.06,0,0,0,0-.06V9.68A.23.23,0,0,1,127.54,9.43Zm-.25,6.32c0-1,0-1.85-.07-2.56a2.74,2.74,0,0,0-.79-1.73,2.42,2.42,0,0,0-1.77-.67,2.49,2.49,0,0,0-1.79.67,2.88,2.88,0,0,0-.87,1.73,24.08,24.08,0,0,0-.1,2.56c0,.84,0,1.67.1,2.51a2.78,2.78,0,0,0,.85,1.73,2.57,2.57,0,0,0,1.81.68,2.43,2.43,0,0,0,1.77-.68,2.71,2.71,0,0,0,.79-1.73C127.27,17.61,127.29,16.77,127.29,15.75Z"/><path class="cls-1" d="M138.29,20.28a2.73,2.73,0,0,0,1-1.32.22.22,0,0,1,.3-.17l1.15.22a.2.2,0,0,1,.16.11.31.31,0,0,1,0,.19,4.08,4.08,0,0,1-1.56,2.21,4.61,4.61,0,0,1-2.73.8,4.48,4.48,0,0,1-3-1,4.18,4.18,0,0,1-1.43-2.62,11.81,11.81,0,0,1-.13-1.48c0-.57,0-1,0-1.42v-.79a16.74,16.74,0,0,1,.1-2.08,4,4,0,0,1,1.39-2.71,4.93,4.93,0,0,1,6.13.08,4.25,4.25,0,0,1,1.35,2.9c.05.56.08,1.57.08,3a.22.22,0,0,1-.25.25h-6.92c-.07,0-.1,0-.1.1,0,.52,0,1.1,0,1.73a2.64,2.64,0,0,0,.86,1.74,2.7,2.7,0,0,0,1.89.67A2.82,2.82,0,0,0,138.29,20.28Zm-3.56-8.83a2.69,2.69,0,0,0-.84,1.74c0,.71,0,1.29,0,1.76,0,.07,0,.1.1.1h5.29a.09.09,0,0,0,.1-.1c0-.48,0-1.06-.1-1.73a2.87,2.87,0,0,0-.84-1.76,2.56,2.56,0,0,0-1.82-.67A2.59,2.59,0,0,0,134.73,11.45Z"/><rect class="cls-2" x="0.5" y="0.5" width="32.65" height="24.6"/><line class="cls-2" x1="20.81" y1="0.5" x2="12.85" y2="25.1"/><path class="cls-1" d="M9.28,4.57A2.83,2.83,0,0,1,10.4,5.7a3.54,3.54,0,0,1,.39,1.69V15a.13.13,0,0,1-.15.15H9.85c-.11,0-.16-.05-.16-.15l0-3H5.53v3a.13.13,0,0,1-.15.15H4.59c-.11,0-.16-.05-.16-.15V7.39a3.43,3.43,0,0,1,.4-1.69A2.75,2.75,0,0,1,5.94,4.57a3.36,3.36,0,0,1,1.67-.41A3.36,3.36,0,0,1,9.28,4.57ZM9.69,11V7.33a2.24,2.24,0,0,0-.57-1.6,2,2,0,0,0-1.51-.6,2,2,0,0,0-1.5.6,2.2,2.2,0,0,0-.58,1.6V11Z"/><polyline class="cls-2" points="20.64 14.77 27.64 14.77 20.64 21.7"/><line class="cls-2" x1="27.64" y1="21.7" x2="24.14" y2="18.24"/><line class="cls-2" x1="26.57" y1="11.35" x2="22.14" y2="11.35"/></g></g></svg>