<svg xmlns="http://www.w3.org/2000/svg" viewBox="0 0 115.53 55.31"><defs><style>.cls-1{fill:#fff;}</style></defs><title>Asset 152</title><g id="Layer_2" data-name="Layer 2"><g id="Layer_1-2" data-name="Layer 1"><path class="cls-1" d="M115.32,23.15,94.1,9.86V5.3a.48.48,0,0,0-.17-.37.52.52,0,0,0-.38-.11l-5.88,1L78.5.07a.48.48,0,0,0-.49,0,.49.49,0,0,0-.25.42v7L.4,20.56A.48.48,0,0,0,0,21V48a.46.46,0,0,0,.44.47L43.66,52a.46.46,0,0,0,.36-.13.48.48,0,0,0,.16-.35V33.67c0-8,5.75-14.55,12.81-14.55s12.74,6.52,12.74,14.63V53.38h0v.27s0,0,0,.07l.07,0a.47.47,0,0,0,.34.2l7.93.79a.5.5,0,0,0,.37-.12.48.48,0,0,0,.16-.36L78.69,8.3l8.76-1.48,5.68,3.56V54.83a.47.47,0,0,0,.19.38.45.45,0,0,0,.29.1h.13l21.44-6a.48.48,0,0,0,.35-.46V23.56A.45.45,0,0,0,115.32,23.15ZM78.71,7.33v-6l7.52,4.71ZM93.14,9.25,88.88,6.58l4.26-.72ZM114.58,48.5,94.1,54.2V11l20.48,12.83Z"/></g></g></svg>