<svg xmlns="http://www.w3.org/2000/svg" viewBox="0 0 112 25.6"><defs><style>.cls-1{fill:#fff;}.cls-2{fill:none;stroke:#fff;stroke-miterlimit:10;}</style></defs><title>Asset 228</title><g id="Layer_2" data-name="Layer 2"><g id="Layer_1-2" data-name="Layer 1"><path class="cls-1" d="M49.66,21.87v-17a.22.22,0,0,1,.25-.25h1.28a.22.22,0,0,1,.25.25V21.87a.22.22,0,0,1-.25.25H49.91A.22.22,0,0,1,49.66,21.87Z"/><path class="cls-1" d="M62.35,4.57h1.28a.22.22,0,0,1,.25.25V21.87a.22.22,0,0,1-.25.25H62.35a.22.22,0,0,1-.25-.25v-1c0-.05,0-.08,0-.08a.14.14,0,0,0-.09.05,3.18,3.18,0,0,1-2.91,1.48,3.61,3.61,0,0,1-2.51-.84,5.11,5.11,0,0,1-1.39-2.67,12.48,12.48,0,0,1-.33-2.91,13.41,13.41,0,0,1,.28-3,4.76,4.76,0,0,1,1.39-2.77,3.88,3.88,0,0,1,2.69-.89,3.63,3.63,0,0,1,1.72.36A2.72,2.72,0,0,1,62,10.71s0,.07.07.06.05,0,.05-.08V4.82A.22.22,0,0,1,62.35,4.57Zm-.3,11.21a10.38,10.38,0,0,0-.4-3.24,3,3,0,0,0-.81-1.3,2,2,0,0,0-1.36-.45,2.42,2.42,0,0,0-2.36,1.7,9.4,9.4,0,0,0-.47,3.29,9.47,9.47,0,0,0,.4,3.13,3,3,0,0,0,.89,1.4,2.24,2.24,0,0,0,1.51.48,2,2,0,0,0,1.4-.48,3.1,3.1,0,0,0,.83-1.37A10.52,10.52,0,0,0,62.05,15.78Z"/><path class="cls-1" d="M67.52,6.72a1.4,1.4,0,0,1-.38-1,1.42,1.42,0,0,1,2.4-1,1.33,1.33,0,0,1,.4,1,1.33,1.33,0,0,1-.4,1,1.45,1.45,0,0,1-2,0Zm.09,15.15V9.68a.23.23,0,0,1,.25-.25h1.28a.22.22,0,0,1,.25.25V21.87a.22.22,0,0,1-.25.25H67.86A.22.22,0,0,1,67.61,21.87Z"/><path class="cls-1" d="M74.45,21.33A4.14,4.14,0,0,1,73,18.66a24.9,24.9,0,0,1-.15-2.91A23.65,23.65,0,0,1,73,12.89a4,4,0,0,1,1.42-2.65,5,5,0,0,1,6,0,4,4,0,0,1,1.41,2.65A20.64,20.64,0,0,1,82,15.75a21.16,21.16,0,0,1-.15,2.91,4,4,0,0,1-1.41,2.67,4.56,4.56,0,0,1-3,1A4.48,4.48,0,0,1,74.45,21.33Zm4.82-1.23a2.8,2.8,0,0,0,.89-1.77c.06-.61.1-1.47.1-2.55s0-2-.1-2.56a2.73,2.73,0,0,0-.87-1.77,2.88,2.88,0,0,0-3.67,0,2.82,2.82,0,0,0-.87,1.77,23.83,23.83,0,0,0-.1,2.56,23.75,23.75,0,0,0,.1,2.55,2.74,2.74,0,0,0,4.52,1.77Z"/><path class="cls-1" d="M99.35,10.37a4.57,4.57,0,0,1,1,3.07v8.43a.22.22,0,0,1-.25.25H98.81a.22.22,0,0,1-.25-.25V13.7a3.15,3.15,0,0,0-.66-2.11,2.2,2.2,0,0,0-1.74-.78,2.33,2.33,0,0,0-1.82.77,3,3,0,0,0-.69,2.07v8.22a.22.22,0,0,1-.25.25H92.12a.22.22,0,0,1-.25-.25V13.7a3.15,3.15,0,0,0-.66-2.11,2.17,2.17,0,0,0-1.74-.78,2.29,2.29,0,0,0-1.8.77A3,3,0,0,0,87,13.65v8.22a.22.22,0,0,1-.25.25H85.46a.22.22,0,0,1-.25-.25V9.68a.23.23,0,0,1,.25-.25h1.28a.22.22,0,0,1,.25.25v.88s0,.06,0,.06,0,0,.09,0a3,3,0,0,1,1.27-1,4.38,4.38,0,0,1,1.66-.32,3.57,3.57,0,0,1,1.92.5,3.23,3.23,0,0,1,1.26,1.4q0,.13.12,0a3.23,3.23,0,0,1,1.39-1.44,4.18,4.18,0,0,1,2-.46A3.33,3.33,0,0,1,99.35,10.37Z"/><path class="cls-1" d="M110.87,10.39a4.16,4.16,0,0,1,1.13,3v8.43a.22.22,0,0,1-.25.25h-1.27a.22.22,0,0,1-.25-.25V21a.1.1,0,0,0,0-.08.07.07,0,0,0-.09,0,3.41,3.41,0,0,1-1.4,1,5,5,0,0,1-1.9.35,4.31,4.31,0,0,1-2.7-.85A3.3,3.3,0,0,1,103,18.68a3.67,3.67,0,0,1,1.29-3,5.47,5.47,0,0,1,3.52-1h2.33a.09.09,0,0,0,.1-.1v-1a3,3,0,0,0-.64-2,2.35,2.35,0,0,0-1.89-.74,2.61,2.61,0,0,0-1.63.49,2,2,0,0,0-.78,1.29c0,.15-.1.22-.27.22l-1.38-.07a.26.26,0,0,1-.19-.08.17.17,0,0,1,0-.17,3.32,3.32,0,0,1,1.36-2.35,4.78,4.78,0,0,1,2.94-.89A4.23,4.23,0,0,1,110.87,10.39Zm-1.56,9.69a2.27,2.27,0,0,0,.92-1.92v-2a.09.09,0,0,0-.1-.1h-2.21a3.63,3.63,0,0,0-2.28.66,2.28,2.28,0,0,0-.85,1.89,2,2,0,0,0,.65,1.65,2.61,2.61,0,0,0,1.71.54A3.49,3.49,0,0,0,109.31,20.08Z"/><rect class="cls-2" x="0.5" y="0.5" width="32.65" height="24.6"/><line class="cls-2" x1="20.81" y1="0.5" x2="12.85" y2="25.1"/><path class="cls-1" d="M9.28,4.57A2.83,2.83,0,0,1,10.4,5.7a3.54,3.54,0,0,1,.39,1.69V15a.13.13,0,0,1-.15.15H9.85c-.11,0-.16-.05-.16-.15l0-3H5.53v3a.13.13,0,0,1-.15.15H4.59c-.11,0-.16-.05-.16-.15V7.39a3.43,3.43,0,0,1,.4-1.69A2.75,2.75,0,0,1,5.94,4.57a3.36,3.36,0,0,1,1.67-.41A3.36,3.36,0,0,1,9.28,4.57ZM9.69,11V7.33a2.24,2.24,0,0,0-.57-1.6,2,2,0,0,0-1.51-.6,2,2,0,0,0-1.5.6,2.2,2.2,0,0,0-.58,1.6V11Z"/><polyline class="cls-2" points="20.64 14.77 27.64 14.77 20.64 21.7"/><line class="cls-2" x1="27.64" y1="21.7" x2="24.14" y2="18.24"/><line class="cls-2" x1="26.57" y1="11.35" x2="22.14" y2="11.35"/></g></g></svg>