<svg xmlns="http://www.w3.org/2000/svg" viewBox="0 0 91.88 24.75"><defs><style>.cls-1{fill:#fff;}</style></defs><title>Asset 226</title><g id="Layer_2" data-name="Layer 2"><g id="Layer_1-2" data-name="Layer 1"><path class="cls-1" d="M47.66,4.93a4.62,4.62,0,0,1,1.81,1.83A5.74,5.74,0,0,1,50.1,9.5V21.76a.22.22,0,0,1-.25.25H48.58c-.17,0-.26-.08-.26-.25l0-4.79H41.6v4.79a.22.22,0,0,1-.25.25H40.08a.22.22,0,0,1-.25-.25V9.5a5.74,5.74,0,0,1,.63-2.74,4.62,4.62,0,0,1,1.81-1.83,5.91,5.91,0,0,1,5.39,0Zm.66,10.36V9.4a3.62,3.62,0,0,0-.92-2.59,3.54,3.54,0,0,0-4.87,0A3.62,3.62,0,0,0,41.6,9.4v5.89Z"/><path class="cls-1" d="M60,9.32h1.28a.22.22,0,0,1,.25.25V21.76a.22.22,0,0,1-.25.25H60a.22.22,0,0,1-.25-.25v-1c0-.05,0-.08,0-.08a.12.12,0,0,0-.09.06,3.16,3.16,0,0,1-2.91,1.42,3.89,3.89,0,0,1-2.78-1,3.78,3.78,0,0,1-1.08-2.91V9.57a.22.22,0,0,1,.25-.25h1.28a.23.23,0,0,1,.25.25v8.25a3,3,0,0,0,.65,2.07,2.32,2.32,0,0,0,1.83.74,2.44,2.44,0,0,0,1.93-.79,3.06,3.06,0,0,0,.7-2.12V9.57A.23.23,0,0,1,60,9.32Z"/><path class="cls-1" d="M72.17,4.46h1.28a.22.22,0,0,1,.25.25V21.76a.22.22,0,0,1-.25.25H72.17a.22.22,0,0,1-.25-.25v-1c0-.06,0-.08,0-.08a.21.21,0,0,0-.09.05,3.17,3.17,0,0,1-2.9,1.48,3.62,3.62,0,0,1-2.52-.84A5.12,5.12,0,0,1,65,18.7a13,13,0,0,1-.32-2.91,14.1,14.1,0,0,1,.27-3A4.77,4.77,0,0,1,66.32,10,3.88,3.88,0,0,1,69,9.15a3.6,3.6,0,0,1,1.72.36,2.65,2.65,0,0,1,1.06,1.09c0,.05,0,.07.08.06s0,0,0-.08V4.71A.22.22,0,0,1,72.17,4.46Zm-.3,11.21a10.64,10.64,0,0,0-.4-3.24,2.94,2.94,0,0,0-.82-1.3,2,2,0,0,0-1.36-.45,2.41,2.41,0,0,0-2.36,1.7,9.38,9.38,0,0,0-.48,3.29,9.78,9.78,0,0,0,.4,3.13,3.17,3.17,0,0,0,.89,1.4,2.29,2.29,0,0,0,1.52.48,2,2,0,0,0,1.41-.48,3.08,3.08,0,0,0,.82-1.38A10.36,10.36,0,0,0,71.87,15.67Z"/><path class="cls-1" d="M77.35,6.61a1.36,1.36,0,0,1-.39-1,1.34,1.34,0,0,1,1.4-1.4,1.4,1.4,0,0,1,1,.39,1.36,1.36,0,0,1,.4,1A1.38,1.38,0,0,1,78.36,7,1.33,1.33,0,0,1,77.35,6.61Zm.08,15.15V9.57a.23.23,0,0,1,.26-.25H79a.23.23,0,0,1,.26.25V21.76c0,.17-.09.25-.26.25H77.69C77.52,22,77.43,21.93,77.43,21.76Z"/><path class="cls-1" d="M84.28,21.22a4.14,4.14,0,0,1-1.43-2.67,24.9,24.9,0,0,1-.15-2.91,23.54,23.54,0,0,1,.15-2.86,4.05,4.05,0,0,1,1.42-2.66,5.06,5.06,0,0,1,6,0,4.09,4.09,0,0,1,1.42,2.66,20.64,20.64,0,0,1,.15,2.86,21.16,21.16,0,0,1-.15,2.91,4,4,0,0,1-1.42,2.67,5.09,5.09,0,0,1-6,0ZM89.11,20A2.8,2.8,0,0,0,90,18.22c.06-.61.1-1.47.1-2.55s0-2-.1-2.56a2.73,2.73,0,0,0-.87-1.77,2.66,2.66,0,0,0-1.84-.66,2.6,2.6,0,0,0-1.83.66,2.79,2.79,0,0,0-.88,1.77,23.83,23.83,0,0,0-.1,2.56,23.75,23.75,0,0,0,.1,2.55A2.75,2.75,0,0,0,89.11,20Z"/><path class="cls-1" d="M15.63,12.41V23.25a1.32,1.32,0,0,1-.83,1.41,1.37,1.37,0,0,1-1.55-.43Q10,20.9,6.63,17.62c-2.06-.06-4.13,0-6.19,0A.44.44,0,0,1,0,17.14Q0,12.33,0,7.5a.3.3,0,0,1,.3-.31c2.1,0,4.21,0,6.31,0Q9.92,3.91,13.18.61A1.39,1.39,0,0,1,14.79.1a1.43,1.43,0,0,1,.85,1.52Q15.63,7,15.63,12.41Z"/><path class="cls-1" d="M22.32,21.5a9.71,9.71,0,0,0,5.89-8.34A10.69,10.69,0,0,0,27,7.65a9.72,9.72,0,0,0-4.74-4.4,1.24,1.24,0,0,0-.48-.11.82.82,0,0,0-.76.49.86.86,0,0,0,.45,1.17l.25.13.19.09a8.35,8.35,0,0,1,4.48,6.16,8,8,0,0,1-2.28,6.93,11.18,11.18,0,0,1-2,1.45l-.69.42c-.49.33-.64.77-.41,1.18A.9.9,0,0,0,22.32,21.5Z"/><path class="cls-1" d="M20.26,16.7A4.78,4.78,0,0,0,23,12.36c0-.06,0-.16,0-.27a6.75,6.75,0,0,0-.1-.71A4.51,4.51,0,0,0,20.14,8a.9.9,0,0,0-.38-.08.84.84,0,0,0-.47,1.53,3.36,3.36,0,0,0,.54.38,2.78,2.78,0,0,1,1.45,2.55,2.74,2.74,0,0,1-1.44,2.51,2.26,2.26,0,0,0-.38.25l-.06.05c-.49.36-.61.75-.38,1.17A.9.9,0,0,0,20.26,16.7Z"/></g></g></svg>