<svg xmlns="http://www.w3.org/2000/svg" viewBox="0 0 97.17 30.7"><defs><style>.cls-1{fill:#fff;}</style></defs><title>Asset 225</title><g id="Layer_2" data-name="Layer 2"><g id="Layer_1-2" data-name="Layer 1"><path class="cls-1" d="M53,6.27a4.47,4.47,0,0,1,1.8,1.83,5.56,5.56,0,0,1,.64,2.73V23.09a.22.22,0,0,1-.25.25H53.87a.22.22,0,0,1-.25-.25l0-4.79H46.9v4.79a.22.22,0,0,1-.25.25H45.37a.22.22,0,0,1-.25-.25V10.83a5.56,5.56,0,0,1,.64-2.73,4.49,4.49,0,0,1,1.81-1.83,5.34,5.34,0,0,1,2.69-.66A5.4,5.4,0,0,1,53,6.27Zm.66,10.35V10.73a3.58,3.58,0,0,0-.93-2.58,3.5,3.5,0,0,0-4.86,0,3.58,3.58,0,0,0-.93,2.58v5.89Z"/><path class="cls-1" d="M65.33,10.65h1.28a.22.22,0,0,1,.25.25V23.09a.22.22,0,0,1-.25.25H65.33a.22.22,0,0,1-.25-.25v-1c0-.05,0-.07,0-.07a.14.14,0,0,0-.09.05,3.14,3.14,0,0,1-2.9,1.43,3.94,3.94,0,0,1-2.79-1,3.74,3.74,0,0,1-1.08-2.9V10.9a.23.23,0,0,1,.26-.25h1.27a.22.22,0,0,1,.25.25v8.25a3,3,0,0,0,.66,2.07,2.28,2.28,0,0,0,1.83.74,2.44,2.44,0,0,0,1.93-.79,3,3,0,0,0,.7-2.12V10.9A.22.22,0,0,1,65.33,10.65Z"/><path class="cls-1" d="M77.47,5.79h1.27c.17,0,.26.08.26.25V23.09c0,.17-.09.25-.26.25H77.47a.22.22,0,0,1-.25-.25v-1c0-.05,0-.08,0-.08a.14.14,0,0,0-.09,0,3.18,3.18,0,0,1-2.91,1.48,3.65,3.65,0,0,1-2.52-.84A5.11,5.11,0,0,1,70.27,20a12.48,12.48,0,0,1-.33-2.91,14,14,0,0,1,.28-3,4.79,4.79,0,0,1,1.39-2.77,4,4,0,0,1,2.7-.89,3.56,3.56,0,0,1,1.71.36,2.68,2.68,0,0,1,1.07,1.09c0,.05,0,.07.08.07s0,0,0-.09V6A.22.22,0,0,1,77.47,5.79ZM77.17,17a10.34,10.34,0,0,0-.41-3.24,3.08,3.08,0,0,0-.81-1.3A2,2,0,0,0,74.58,12a2.41,2.41,0,0,0-2.35,1.7A9.38,9.38,0,0,0,71.75,17a9.47,9.47,0,0,0,.4,3.13A3.17,3.17,0,0,0,73,21.54a2.32,2.32,0,0,0,1.52.47,2,2,0,0,0,1.4-.47,3.2,3.2,0,0,0,.83-1.38A10.48,10.48,0,0,0,77.17,17Z"/><path class="cls-1" d="M82.64,8a1.4,1.4,0,0,1-.38-1,1.36,1.36,0,0,1,.38-1,1.5,1.5,0,0,1,2,0,1.34,1.34,0,0,1,.4,1,1.37,1.37,0,0,1-.4,1,1.48,1.48,0,0,1-2,0Zm.09,15.14V10.9a.22.22,0,0,1,.25-.25h1.28a.22.22,0,0,1,.25.25V23.09a.22.22,0,0,1-.25.25H83A.22.22,0,0,1,82.73,23.09Z"/><path class="cls-1" d="M89.58,22.55a4.1,4.1,0,0,1-1.43-2.67A24.78,24.78,0,0,1,88,17a23.65,23.65,0,0,1,.15-2.86,4.06,4.06,0,0,1,1.41-2.65,5,5,0,0,1,6,0A4.06,4.06,0,0,1,97,14.11,20.74,20.74,0,0,1,97.17,17,21.16,21.16,0,0,1,97,19.88a4,4,0,0,1-1.41,2.67,4.59,4.59,0,0,1-3,1A4.49,4.49,0,0,1,89.58,22.55Zm4.82-1.23a2.75,2.75,0,0,0,.89-1.77,24.12,24.12,0,0,0,.1-2.55,23.83,23.83,0,0,0-.1-2.56A2.6,2.6,0,0,0,92.59,12a2.65,2.65,0,0,0-1.84.66,2.85,2.85,0,0,0-.87,1.77,23.83,23.83,0,0,0-.1,2.56,23.75,23.75,0,0,0,.1,2.55,2.67,2.67,0,0,0,.86,1.77,2.63,2.63,0,0,0,1.85.67A2.58,2.58,0,0,0,94.4,21.32Z"/><path class="cls-1" d="M20.93,13.74V24.58A1.34,1.34,0,0,1,20.09,26a1.37,1.37,0,0,1-1.54-.44c-2.2-2.22-4.4-4.42-6.63-6.61-2.06-.05-4.12,0-6.18,0a.45.45,0,0,1-.44-.44c0-3.22,0-6.43,0-9.65a.31.31,0,0,1,.31-.31c2.1,0,4.2,0,6.3,0Q15.22,5.24,18.47,2a1.4,1.4,0,0,1,1.62-.52A1.45,1.45,0,0,1,20.94,3C20.92,6.54,20.93,10.14,20.93,13.74Z"/><path class="cls-1" d="M27.62,22.83a9.72,9.72,0,0,0,5.89-8.34A10.69,10.69,0,0,0,32.31,9a9.75,9.75,0,0,0-4.73-4.4,1.28,1.28,0,0,0-.48-.11.82.82,0,0,0-.76.49.85.85,0,0,0,.45,1.17l.24.13.2.09a8.38,8.38,0,0,1,4.48,6.17,8,8,0,0,1-2.29,6.92,10.38,10.38,0,0,1-2,1.45l-.68.43c-.49.32-.65.76-.41,1.17A.9.9,0,0,0,27.62,22.83Z"/><path class="cls-1" d="M25.55,18a4.77,4.77,0,0,0,2.78-4.34,1.42,1.42,0,0,1,0-.27,3.8,3.8,0,0,0-.1-.71,4.5,4.5,0,0,0-2.75-3.36.91.91,0,0,0-.39-.08.8.8,0,0,0-.72.44.77.77,0,0,0,.26,1.09,2.82,2.82,0,0,0,.54.38,2.78,2.78,0,0,1,1.45,2.55,2.76,2.76,0,0,1-1.44,2.51,3.11,3.11,0,0,0-.38.25l-.07.05c-.48.36-.61.75-.37,1.18A.89.89,0,0,0,25.55,18Z"/><rect class="cls-1" x="-4.47" y="14.35" width="46.75" height="2" transform="translate(-5.44 15.12) rotate(-38.54)"/></g></g></svg>