<svg xmlns="http://www.w3.org/2000/svg" viewBox="0 0 155.9 34.51"><defs><style>.cls-1{fill:#fff;}.cls-2{fill:none;stroke:#fff;stroke-miterlimit:10;}</style></defs><title>Asset 224</title><g id="Layer_2" data-name="Layer 2"><g id="Layer_1-2" data-name="Layer 1"><path class="cls-1" d="M60.39,25.68l-3.15-7.85a.11.11,0,0,0-.1-.08H53.86c-.07,0-.1,0-.1.1v7.78c0,.17-.09.25-.26.25H52.21c-.17,0-.26-.08-.26-.25V8.35a.23.23,0,0,1,.26-.26h5.38a4.57,4.57,0,0,1,2.35.61,4.18,4.18,0,0,1,1.6,1.73A5.47,5.47,0,0,1,62.12,13,5.1,5.1,0,0,1,61.28,16,4,4,0,0,1,59,17.57c-.07,0-.08.08-.05.13l3.28,7.88,0,.1c0,.14-.07.2-.22.2H60.67A.27.27,0,0,1,60.39,25.68ZM53.76,9.77V16.2c0,.07,0,.1.1.1h3.5a2.71,2.71,0,0,0,2.14-.91A3.48,3.48,0,0,0,60.31,13a3.52,3.52,0,0,0-.81-2.42,2.71,2.71,0,0,0-2.14-.91h-3.5C53.79,9.67,53.76,9.7,53.76,9.77Z"/><path class="cls-1" d="M71,24a2.72,2.72,0,0,0,1-1.34.24.24,0,0,1,.3-.18l1.17.23a.23.23,0,0,1,.17.12.31.31,0,0,1,0,.19,4.08,4.08,0,0,1-1.58,2.23,5.12,5.12,0,0,1-5.79-.16,4.25,4.25,0,0,1-1.45-2.66,11.82,11.82,0,0,1-.13-1.5c0-.57,0-1.05,0-1.43v-.8a17.17,17.17,0,0,1,.1-2.11,4.19,4.19,0,0,1,1.41-2.75,5,5,0,0,1,6.22.08,4.34,4.34,0,0,1,1.37,3c0,.56.07,1.58.07,3.07,0,.17-.08.26-.25.26h-7c-.07,0-.11,0-.11.1,0,.52,0,1.11,0,1.75a2.66,2.66,0,0,0,2.8,2.44A2.78,2.78,0,0,0,71,24Zm-3.6-8.95a2.77,2.77,0,0,0-.86,1.77c0,.71,0,1.3,0,1.77a.1.1,0,0,0,.11.11H72c.07,0,.1,0,.1-.11a17.24,17.24,0,0,0-.1-1.75,2.86,2.86,0,0,0-.85-1.78,2.58,2.58,0,0,0-1.85-.68A2.61,2.61,0,0,0,67.42,15.07Z"/><path class="cls-1" d="M78.23,25.08a4.19,4.19,0,0,1-1.45-2.7,26,26,0,0,1-.15-2.95c0-.87.05-1.84.15-2.92a4.07,4.07,0,0,1,1.45-2.67,4.54,4.54,0,0,1,3-1,4.73,4.73,0,0,1,3,1,3.65,3.65,0,0,1,1.44,2.41l.07.53v.05a.21.21,0,0,1-.23.23l-1.29.08a.26.26,0,0,1-.28-.23,1,1,0,0,0,0-.3A2.36,2.36,0,0,0,83.1,15a2.78,2.78,0,0,0-1.85-.63,2.55,2.55,0,0,0-1.84.68,2.8,2.8,0,0,0-.85,1.78,21.57,21.57,0,0,0-.13,2.59,21.87,21.87,0,0,0,.13,2.62,2.71,2.71,0,0,0,.85,1.78,2.63,2.63,0,0,0,1.84.66,2.8,2.8,0,0,0,1.87-.63A2.29,2.29,0,0,0,84,22.33l0-.21c0-.18.13-.26.28-.23l1.27.11c.15,0,.23.11.23.22v.11a1.8,1.8,0,0,1,0,.3,3.62,3.62,0,0,1-1.41,2.48,4.82,4.82,0,0,1-3.07,1A4.53,4.53,0,0,1,78.23,25.08Z"/><path class="cls-1" d="M89.92,25.08a4.19,4.19,0,0,1-1.45-2.7,25.51,25.51,0,0,1-.15-2.95,24.13,24.13,0,0,1,.15-2.9,4.08,4.08,0,0,1,1.44-2.69,5.1,5.1,0,0,1,6.12,0,4.08,4.08,0,0,1,1.44,2.69,21.2,21.2,0,0,1,.15,2.9,21.73,21.73,0,0,1-.15,2.95A4.06,4.06,0,0,1,96,25.08a5.13,5.13,0,0,1-6.11,0Zm4.89-1.24a2.83,2.83,0,0,0,.9-1.79,24.56,24.56,0,0,0,.11-2.6,24.09,24.09,0,0,0-.11-2.59,2.71,2.71,0,0,0-.87-1.79,2.93,2.93,0,0,0-3.73,0,2.86,2.86,0,0,0-.88,1.79,24.09,24.09,0,0,0-.11,2.59,24.16,24.16,0,0,0,.11,2.6,2.71,2.71,0,0,0,.87,1.79,2.68,2.68,0,0,0,1.87.67A2.64,2.64,0,0,0,94.81,23.84Z"/><path class="cls-1" d="M106.92,13.2c.12.05.16.15.13.31l-.31,1.32q0,.26-.3.15a2.18,2.18,0,0,0-.89-.18l-.3,0a2.36,2.36,0,0,0-1.86,1,3.61,3.61,0,0,0-.74,2.29v7.55a.22.22,0,0,1-.25.25h-1.3a.22.22,0,0,1-.25-.25V13.28c0-.17.08-.26.25-.26h1.3c.17,0,.25.09.25.26v1.65c0,.05,0,.08,0,.08s0,0,.06-.06a3.89,3.89,0,0,1,1.16-1.51,2.8,2.8,0,0,1,1.72-.54A2.59,2.59,0,0,1,106.92,13.2Z"/><path class="cls-1" d="M115.28,13.2c.12.05.16.15.13.31l-.3,1.32c0,.17-.12.22-.31.15a2.18,2.18,0,0,0-.89-.18l-.3,0a2.36,2.36,0,0,0-1.86,1,3.61,3.61,0,0,0-.74,2.29v7.55a.22.22,0,0,1-.25.25h-1.3a.22.22,0,0,1-.25-.25V13.28c0-.17.08-.26.25-.26h1.3c.17,0,.25.09.25.26v1.65c0,.05,0,.08,0,.08s0,0,.07-.06a3.78,3.78,0,0,1,1.15-1.51A2.8,2.8,0,0,1,114,12.9,2.56,2.56,0,0,1,115.28,13.2Z"/><path class="cls-1" d="M117.71,10.28a1.41,1.41,0,0,1-.39-1,1.42,1.42,0,0,1,.39-1,1.54,1.54,0,0,1,2.05,0,1.39,1.39,0,0,1,.4,1,1.44,1.44,0,0,1-2.45,1Zm.09,15.35V13.28c0-.17.08-.26.25-.26h1.3c.17,0,.25.09.25.26V25.63a.22.22,0,0,1-.25.25h-1.3A.22.22,0,0,1,117.8,25.63Z"/><path class="cls-1" d="M130.66,8.09H132a.23.23,0,0,1,.25.26V25.63a.22.22,0,0,1-.25.25h-1.3a.22.22,0,0,1-.25-.25v-1c0-.05,0-.07,0-.07a.11.11,0,0,0-.09.05,3.23,3.23,0,0,1-3,1.5,3.7,3.7,0,0,1-2.55-.85,5.15,5.15,0,0,1-1.41-2.71,12.29,12.29,0,0,1-.33-3,14.5,14.5,0,0,1,.27-3,4.9,4.9,0,0,1,1.42-2.81,4,4,0,0,1,2.73-.9,3.69,3.69,0,0,1,1.74.36,2.75,2.75,0,0,1,1.08,1.11s0,.07.07.06.06,0,.06-.09V8.35C130.41,8.18,130.49,8.09,130.66,8.09Zm-.31,11.36a10.51,10.51,0,0,0-.4-3.27,3.16,3.16,0,0,0-.83-1.33,2,2,0,0,0-1.38-.45,2.44,2.44,0,0,0-2.39,1.72,9.6,9.6,0,0,0-.49,3.33,9.72,9.72,0,0,0,.41,3.18,3.17,3.17,0,0,0,.9,1.42,2.28,2.28,0,0,0,1.54.49,2,2,0,0,0,1.42-.49,3.1,3.1,0,0,0,.84-1.39A10.43,10.43,0,0,0,130.35,19.45Z"/><path class="cls-1" d="M137,25.08a4.19,4.19,0,0,1-1.45-2.7,25.51,25.51,0,0,1-.15-2.95,24.13,24.13,0,0,1,.15-2.9A4.08,4.08,0,0,1,137,13.84a5.1,5.1,0,0,1,6.12,0,4.16,4.16,0,0,1,1.44,2.69,21.2,21.2,0,0,1,.15,2.9,21.73,21.73,0,0,1-.15,2.95,4.14,4.14,0,0,1-1.44,2.7,4.62,4.62,0,0,1-3.06,1A4.56,4.56,0,0,1,137,25.08Zm4.89-1.24a2.83,2.83,0,0,0,.9-1.79,25.06,25.06,0,0,0,.1-2.6,24.59,24.59,0,0,0-.1-2.59,2.63,2.63,0,0,0-2.74-2.46,2.64,2.64,0,0,0-1.86.67,2.87,2.87,0,0,0-.89,1.79,24.59,24.59,0,0,0-.1,2.59,24.68,24.68,0,0,0,.1,2.6,2.77,2.77,0,0,0,.88,1.79,2.68,2.68,0,0,0,1.87.67A2.64,2.64,0,0,0,141.93,23.84Z"/><rect class="cls-2" x="41.03" y="0.5" width="114.37" height="33.51"/><rect class="cls-2" x="0.5" y="17.57" width="32.53" height="16.43"/><polygon class="cls-1" points="31.22 0.5 16.77 25.53 2.32 0.5 31.22 0.5"/></g></g></svg>