<svg xmlns="http://www.w3.org/2000/svg" viewBox="0 0 223.94 55.57"><defs><style>.cls-1{fill:#fff;}.cls-2{fill:none;stroke:#fff;stroke-miterlimit:10;}</style></defs><title>Asset 231</title><g id="Layer_2" data-name="Layer 2"><g id="Layer_1-2" data-name="Layer 1"><path class="cls-1" d="M27,2.67a4.83,4.83,0,0,1,1.9,2,6.24,6.24,0,0,1,.67,2.94,5.93,5.93,0,0,1-.67,2.87A4.69,4.69,0,0,1,27,12.38a5.84,5.84,0,0,1-2.84.67H21.76c-.08,0-.12,0-.12.13v6.28a.29.29,0,0,1-.09.21.29.29,0,0,1-.22.09H17.72a.31.31,0,0,1-.3-.3V2.28a.29.29,0,0,1,.09-.22A.29.29,0,0,1,17.72,2h6.43A5.75,5.75,0,0,1,27,2.67ZM24.84,9.18a2.07,2.07,0,0,0,.53-1.49,2.2,2.2,0,0,0-.53-1.54,1.83,1.83,0,0,0-1.4-.57H21.76c-.08,0-.12,0-.12.13V9.6a.11.11,0,0,0,.12.12h1.68A1.88,1.88,0,0,0,24.84,9.18Z"/><path class="cls-1" d="M39,19.51,36.6,12.77c0-.07-.07-.1-.12-.1h-1c-.09,0-.13,0-.13.13v6.66a.31.31,0,0,1-.3.3H31.42a.29.29,0,0,1-.22-.09.29.29,0,0,1-.09-.21V2.28A.31.31,0,0,1,31.42,2h6.5a5.56,5.56,0,0,1,2.79.7,4.85,4.85,0,0,1,1.86,2,6,6,0,0,1,.67,2.87,5.47,5.47,0,0,1-.69,2.79,4.45,4.45,0,0,1-1.91,1.81c-.06,0-.08.06,0,.15l2.77,7.16a.28.28,0,0,1,0,.13c0,.15-.1.23-.28.23H39.32A.31.31,0,0,1,39,19.51ZM35.33,5.71V9.32c0,.08,0,.12.13.12h1.78a1.75,1.75,0,0,0,1.31-.51A1.89,1.89,0,0,0,39,7.54a2,2,0,0,0-.49-1.44,1.75,1.75,0,0,0-1.31-.52H35.46C35.37,5.58,35.33,5.62,35.33,5.71Z"/><path class="cls-1" d="M45.13,19.67a.29.29,0,0,1-.09-.21V2.28a.29.29,0,0,1,.09-.22A.29.29,0,0,1,45.34,2H49a.31.31,0,0,1,.31.31V19.46a.29.29,0,0,1-.09.21.29.29,0,0,1-.22.09H45.34A.29.29,0,0,1,45.13,19.67Z"/><path class="cls-1" d="M61.58,2h3.58a.31.31,0,0,1,.31.31V19.46a.29.29,0,0,1-.09.21.29.29,0,0,1-.22.09h-3.6a.29.29,0,0,1-.22-.09.29.29,0,0,1-.09-.21V8.91c0-.07,0-.11,0-.11s-.07,0-.1.06l-2,3.3a.37.37,0,0,1-.36.21h-.71a.37.37,0,0,1-.36-.21l-2-3.3s-.07-.07-.1-.06,0,0,0,.11V19.46a.29.29,0,0,1-.09.21.29.29,0,0,1-.22.09h-3.6a.29.29,0,0,1-.22-.09.29.29,0,0,1-.09-.21V2.28A.31.31,0,0,1,51.65,2h3.58a.35.35,0,0,1,.35.21L58.33,6.8q.08.15.15,0l2.74-4.62A.37.37,0,0,1,61.58,2Z"/><path class="cls-1" d="M78.67,5.49a.29.29,0,0,1-.22.09H71.9c-.09,0-.13,0-.13.13V8.88c0,.09,0,.13.13.13h4a.31.31,0,0,1,.31.31v3a.31.31,0,0,1-.31.31h-4c-.09,0-.13,0-.13.13V16c0,.09,0,.13.13.13h6.55a.31.31,0,0,1,.31.31v3a.29.29,0,0,1-.09.21.29.29,0,0,1-.22.09H67.86a.29.29,0,0,1-.22-.09.29.29,0,0,1-.09-.21V2.28A.31.31,0,0,1,67.86,2H78.45a.31.31,0,0,1,.31.31v3A.29.29,0,0,1,78.67,5.49Z"/><path class="cls-1" d="M88.36,19.51,86,12.77c0-.07-.07-.1-.12-.1h-1a.12.12,0,0,0-.13.13v6.66a.31.31,0,0,1-.3.3H80.79a.31.31,0,0,1-.22-.09.28.28,0,0,1-.08-.21V2.28a.29.29,0,0,1,.08-.22A.31.31,0,0,1,80.79,2H87.3a5.52,5.52,0,0,1,2.78.7,4.94,4.94,0,0,1,1.87,2,6,6,0,0,1,.66,2.87,5.47,5.47,0,0,1-.69,2.79A4.45,4.45,0,0,1,90,12.09c-.06,0-.08.06-.05.15l2.77,7.16a.28.28,0,0,1,0,.13c0,.15-.09.23-.28.23H88.69A.31.31,0,0,1,88.36,19.51ZM84.7,5.71V9.32c0,.08,0,.12.13.12h1.78a1.75,1.75,0,0,0,1.31-.51,1.89,1.89,0,0,0,.49-1.39,2,2,0,0,0-.49-1.44,1.75,1.75,0,0,0-1.31-.52H84.83A.12.12,0,0,0,84.7,5.71Z"/><path class="cls-1" d="M102,19.33a4.74,4.74,0,0,1-2.86-4.47v-.67a.32.32,0,0,1,.08-.21.31.31,0,0,1,.22-.09H103a.27.27,0,0,1,.21.09.29.29,0,0,1,.09.21v.46a1.56,1.56,0,0,0,.56,1.21,2.17,2.17,0,0,0,1.5.49,1.64,1.64,0,0,0,1.2-.4,1.34,1.34,0,0,0,.4-1,1.27,1.27,0,0,0-.29-.83,2.77,2.77,0,0,0-.8-.62c-.34-.19-.92-.49-1.75-.91a23,23,0,0,1-2.47-1.39,6.12,6.12,0,0,1-1.74-1.77,4.62,4.62,0,0,1-.72-2.61,4.82,4.82,0,0,1,.73-2.67A5,5,0,0,1,102,2.39a7.1,7.1,0,0,1,3-.62,7,7,0,0,1,3.12.67,5.26,5.26,0,0,1,2.15,1.88,5,5,0,0,1,.77,2.79v.48a.31.31,0,0,1-.3.3h-3.56A.31.31,0,0,1,107,7.8a.3.3,0,0,1-.08-.21V7.16a1.69,1.69,0,0,0-.54-1.26,2,2,0,0,0-1.45-.52,1.62,1.62,0,0,0-1.14.38,1.36,1.36,0,0,0-.41,1,1.4,1.4,0,0,0,.28.85,3.07,3.07,0,0,0,.88.73c.4.23,1,.55,1.82,1l.73.41a22.42,22.42,0,0,1,2.19,1.35,4.92,4.92,0,0,1,1.36,1.5,4.23,4.23,0,0,1,.55,2.21,4.68,4.68,0,0,1-1.64,3.77A6.53,6.53,0,0,1,105.18,20,7.46,7.46,0,0,1,102,19.33Z"/><path class="cls-1" d="M115.63,19.24a5.14,5.14,0,0,1-2.13-2,6,6,0,0,1-.74-3.05V2.28a.33.33,0,0,1,.08-.22.31.31,0,0,1,.22-.09h3.61a.27.27,0,0,1,.21.09.29.29,0,0,1,.09.22V14.35a2.09,2.09,0,0,0,.51,1.45,1.71,1.71,0,0,0,1.32.55,1.67,1.67,0,0,0,1.31-.55,2.13,2.13,0,0,0,.5-1.45V2.28a.29.29,0,0,1,.09-.22.27.27,0,0,1,.21-.09h3.61a.31.31,0,0,1,.22.09.29.29,0,0,1,.09.22V14.14a6,6,0,0,1-.75,3.05,5.21,5.21,0,0,1-2.11,2,7.34,7.34,0,0,1-6.34,0Z"/><path class="cls-1" d="M137.28,18.49a6.63,6.63,0,0,1-4.2,1.27h-5.94a.29.29,0,0,1-.22-.09.29.29,0,0,1-.09-.21V2.28a.31.31,0,0,1,.31-.31h5.51a7.07,7.07,0,0,1,4.42,1.21,4.43,4.43,0,0,1,1.55,3.75,3.9,3.9,0,0,1-1.78,3.56c-.1,0-.11.1,0,.15a4.51,4.51,0,0,1,2.08,4.11A4.46,4.46,0,0,1,137.28,18.49ZM131.05,5.71V8.93c0,.09,0,.13.13.13h1.5A2,2,0,0,0,134,8.62a1.71,1.71,0,0,0,.47-1.28A1.67,1.67,0,0,0,134,6a1.85,1.85,0,0,0-1.34-.46h-1.5C131.09,5.58,131.05,5.62,131.05,5.71Zm3.16,9.92a1.94,1.94,0,0,0,.47-1.41,2,2,0,0,0-.45-1.4,1.67,1.67,0,0,0-1.3-.51h-1.75a.12.12,0,0,0-.13.13V16a.12.12,0,0,0,.13.13h1.73A1.71,1.71,0,0,0,134.21,15.63Z"/><path class="cls-1" d="M143.24,19.33a4.89,4.89,0,0,1-2.11-1.79,4.83,4.83,0,0,1-.75-2.68v-.67a.32.32,0,0,1,.08-.21.31.31,0,0,1,.22-.09h3.56a.27.27,0,0,1,.21.09.29.29,0,0,1,.09.21v.46a1.56,1.56,0,0,0,.56,1.21,2.17,2.17,0,0,0,1.5.49,1.64,1.64,0,0,0,1.2-.4,1.34,1.34,0,0,0,.4-1,1.27,1.27,0,0,0-.29-.83,2.77,2.77,0,0,0-.8-.62c-.34-.19-.92-.49-1.75-.91a23,23,0,0,1-2.47-1.39,6.12,6.12,0,0,1-1.74-1.77,4.62,4.62,0,0,1-.72-2.61,4.82,4.82,0,0,1,.73-2.67,5,5,0,0,1,2.06-1.77,7.1,7.1,0,0,1,3-.62,7,7,0,0,1,3.12.67,5.26,5.26,0,0,1,2.15,1.88,5,5,0,0,1,.77,2.79v.48a.3.3,0,0,1-.08.21.31.31,0,0,1-.22.09h-3.56a.31.31,0,0,1-.22-.09.3.3,0,0,1-.08-.21V7.16a1.69,1.69,0,0,0-.54-1.26,2,2,0,0,0-1.45-.52,1.62,1.62,0,0,0-1.14.38,1.36,1.36,0,0,0-.41,1,1.4,1.4,0,0,0,.28.85,3.07,3.07,0,0,0,.88.73c.4.23,1,.55,1.82,1l.73.41a22.42,22.42,0,0,1,2.19,1.35,4.92,4.92,0,0,1,1.36,1.5,4.23,4.23,0,0,1,.55,2.21,4.68,4.68,0,0,1-1.64,3.77A6.53,6.53,0,0,1,146.42,20,7.46,7.46,0,0,1,143.24,19.33Z"/><path class="cls-1" d="M156.87,19.24a5.11,5.11,0,0,1-2.12-2,6,6,0,0,1-.75-3.05V2.28a.29.29,0,0,1,.09-.22A.27.27,0,0,1,154.3,2h3.61a.31.31,0,0,1,.22.09.33.33,0,0,1,.08.22V14.35a2.09,2.09,0,0,0,.51,1.45,1.71,1.71,0,0,0,1.32.55,1.66,1.66,0,0,0,1.31-.55,2.13,2.13,0,0,0,.5-1.45V2.28a.29.29,0,0,1,.09-.22.29.29,0,0,1,.21-.09h3.61a.31.31,0,0,1,.22.09.29.29,0,0,1,.09.22V14.14a6,6,0,0,1-.75,3.05,5.21,5.21,0,0,1-2.11,2,7.34,7.34,0,0,1-6.34,0Z"/><path class="cls-1" d="M179.19,5.49a.29.29,0,0,1-.22.09h-6.55c-.09,0-.13,0-.13.13V8.88c0,.09,0,.13.13.13h4a.31.31,0,0,1,.31.31v3a.31.31,0,0,1-.31.31h-4c-.09,0-.13,0-.13.13V16c0,.09,0,.13.13.13H179a.31.31,0,0,1,.31.31v3a.29.29,0,0,1-.09.21.29.29,0,0,1-.22.09H168.38a.29.29,0,0,1-.22-.09.29.29,0,0,1-.09-.21V2.28a.31.31,0,0,1,.31-.31H179a.31.31,0,0,1,.31.31v3A.29.29,0,0,1,179.19,5.49Z"/><path class="cls-1" d="M181.1,19.67a.29.29,0,0,1-.09-.21V2.28a.29.29,0,0,1,.09-.22.29.29,0,0,1,.21-.09h3.61a.31.31,0,0,1,.22.09.29.29,0,0,1,.08.22V16a.12.12,0,0,0,.13.13H192a.31.31,0,0,1,.22.09.33.33,0,0,1,.08.22v3a.32.32,0,0,1-.08.21.31.31,0,0,1-.22.09h-10.7A.29.29,0,0,1,181.1,19.67Z"/><path class="cls-1" d="M196.35,19.28a5.33,5.33,0,0,1-2.17-2.09,6.19,6.19,0,0,1-.77-3.12V7.67a6.11,6.11,0,0,1,.77-3.09,5.34,5.34,0,0,1,2.17-2.07,7.42,7.42,0,0,1,6.46,0A5.34,5.34,0,0,1,205,4.58a6,6,0,0,1,.78,3.09v6.4a6.1,6.1,0,0,1-.78,3.12,5.33,5.33,0,0,1-2.17,2.09,7.51,7.51,0,0,1-6.46,0Zm4.65-3.5a2.23,2.23,0,0,0,.54-1.56V7.56A2.23,2.23,0,0,0,201,6a1.78,1.78,0,0,0-1.41-.61,1.83,1.83,0,0,0-1.42.59,2.28,2.28,0,0,0-.53,1.59v6.66a2.22,2.22,0,0,0,.53,1.56,2,2,0,0,0,2.84,0Z"/><path class="cls-1" d="M10.66,54.31a4.29,4.29,0,0,1-1.41-3.37v-.68A.22.22,0,0,1,9.5,50h1.25a.22.22,0,0,1,.25.25v.58a2.91,2.91,0,0,0,1,2.29,3.67,3.67,0,0,0,2.56.86,3.34,3.34,0,0,0,2.37-.81,2.8,2.8,0,0,0,.86-2.13,2.72,2.72,0,0,0-.41-1.5,4,4,0,0,0-1.19-1.17c-.53-.36-1.28-.81-2.26-1.35a25.07,25.07,0,0,1-2.48-1.47A5.25,5.25,0,0,1,10,44a4.25,4.25,0,0,1-.56-2.24,4.1,4.1,0,0,1,1.32-3.23,5.18,5.18,0,0,1,3.53-1.16A5.31,5.31,0,0,1,18,38.67a4.44,4.44,0,0,1,1.4,3.43v.59a.22.22,0,0,1-.25.25H17.89c-.17,0-.26-.08-.26-.25v-.56a3,3,0,0,0-.91-2.3A3.47,3.47,0,0,0,14.2,39a3.15,3.15,0,0,0-2.22.74,2.69,2.69,0,0,0-.8,2.08,2.63,2.63,0,0,0,.38,1.45,3.68,3.68,0,0,0,1.11,1.07q.72.48,2.22,1.29a27.87,27.87,0,0,1,2.65,1.64A5.7,5.7,0,0,1,19,48.77a4,4,0,0,1,.54,2.15,4.36,4.36,0,0,1-1.37,3.39,5.3,5.3,0,0,1-3.73,1.26A5.48,5.48,0,0,1,10.66,54.31Z"/><path class="cls-1" d="M32.3,39.15H24.67c-.07,0-.1,0-.1.11v6.3c0,.07,0,.1.1.1H29.8c.17,0,.26.08.26.25V47c0,.17-.09.25-.26.25H24.67c-.07,0-.1,0-.1.11v6.35c0,.07,0,.1.1.1H32.3a.23.23,0,0,1,.25.25v1.07a.23.23,0,0,1-.25.26H23c-.17,0-.25-.09-.25-.26V37.83a.22.22,0,0,1,.25-.25H32.3a.22.22,0,0,1,.25.25V38.9A.22.22,0,0,1,32.3,39.15Z"/><path class="cls-1" d="M36.83,54.22a4.71,4.71,0,0,1-1.41-3.58V42.31a4.73,4.73,0,0,1,1.41-3.59,5.19,5.19,0,0,1,3.72-1.34,5.61,5.61,0,0,1,2.68.61A4.43,4.43,0,0,1,45,39.69a4.86,4.86,0,0,1,.65,2.51v.72c0,.17-.09.25-.26.25H44.14c-.17,0-.26-.08-.26-.25V42.2A3.16,3.16,0,0,0,43,39.85a3.69,3.69,0,0,0-4.83,0,3.24,3.24,0,0,0-.92,2.41v8.43a3.21,3.21,0,0,0,.93,2.39,3.74,3.74,0,0,0,4.83.05,3.1,3.1,0,0,0,.9-2.34V48c0-.07,0-.1-.1-.1h-3c-.17,0-.26-.08-.26-.25V46.6c0-.17.09-.25.26-.25h4.62c.17,0,.26.08.26.25v4a4.84,4.84,0,0,1-1.4,3.66,5.16,5.16,0,0,1-3.74,1.35A5.15,5.15,0,0,1,36.83,54.22Z"/><path class="cls-1" d="M51.72,54.91a4.55,4.55,0,0,1-1.83-1.86,5.7,5.7,0,0,1-.65-2.77V37.83c0-.17.09-.25.26-.25h1.29c.17,0,.26.08.26.25V50.39A3.62,3.62,0,0,0,52,53a3.56,3.56,0,0,0,4.93,0,3.66,3.66,0,0,0,.94-2.61V37.83a.22.22,0,0,1,.25-.25h1.3a.22.22,0,0,1,.25.25V50.28A5.59,5.59,0,0,1,59,53.05a4.55,4.55,0,0,1-1.83,1.86,6,6,0,0,1-5.46,0Z"/><path class="cls-1" d="M72.62,37.58h1.3a.22.22,0,0,1,.25.25V55.11c0,.17-.08.26-.25.26H72.54a.29.29,0,0,1-.3-.18l-6.81-13.6a.14.14,0,0,0-.09-.05s0,0,0,.08l0,13.49a.23.23,0,0,1-.26.26H63.78a.23.23,0,0,1-.26-.26V37.83c0-.17.09-.25.26-.25h1.37a.29.29,0,0,1,.3.18L72.26,51.4a.14.14,0,0,0,.09.05s0,0,0-.07l0-13.55A.22.22,0,0,1,72.62,37.58Z"/><path class="cls-1" d="M78.21,55.11V37.83c0-.17.09-.25.26-.25h5A4.86,4.86,0,0,1,87,38.87a4.79,4.79,0,0,1,1.31,3.54v8.13A4.75,4.75,0,0,1,87,54.07a4.86,4.86,0,0,1-3.57,1.3h-5A.23.23,0,0,1,78.21,55.11Zm1.91-1.32h3.33a2.93,2.93,0,0,0,2.21-.93,3.61,3.61,0,0,0,.83-2.47V42.56a3.62,3.62,0,0,0-.81-2.49,2.84,2.84,0,0,0-2.23-.92H80.12c-.07,0-.1,0-.1.11V53.69C80,53.76,80.05,53.79,80.12,53.79Z"/><path class="cls-1" d="M94,54.92a4.52,4.52,0,0,1-1.83-1.82,5.43,5.43,0,0,1-.64-2.69V42.56a5.57,5.57,0,0,1,.64-2.71A4.6,4.6,0,0,1,94,38a6.16,6.16,0,0,1,5.47,0,4.76,4.76,0,0,1,1.84,1.83,5.47,5.47,0,0,1,.66,2.71v7.85a5.34,5.34,0,0,1-.66,2.69,4.67,4.67,0,0,1-1.84,1.82,6.08,6.08,0,0,1-5.47,0ZM99.17,53a3.48,3.48,0,0,0,.94-2.54v-8a3.55,3.55,0,0,0-.94-2.58,3.62,3.62,0,0,0-5,0,3.55,3.55,0,0,0-.94,2.58v8A3.48,3.48,0,0,0,94.22,53a3.67,3.67,0,0,0,5,0Z"/><path class="cls-1" d="M111.23,54.31a4.29,4.29,0,0,1-1.41-3.37v-.68a.22.22,0,0,1,.25-.25h1.25a.22.22,0,0,1,.25.25v.58a3,3,0,0,0,1,2.29,3.68,3.68,0,0,0,2.57.86,3.32,3.32,0,0,0,2.36-.81,2.77,2.77,0,0,0,.86-2.13,2.71,2.71,0,0,0-.4-1.5,4,4,0,0,0-1.2-1.17c-.52-.36-1.28-.81-2.26-1.35A25.07,25.07,0,0,1,112,45.56,5.25,5.25,0,0,1,110.53,44a4.25,4.25,0,0,1-.56-2.24,4.1,4.1,0,0,1,1.32-3.23,5.2,5.2,0,0,1,3.54-1.16,5.33,5.33,0,0,1,3.76,1.29A4.47,4.47,0,0,1,120,42.1v.59a.22.22,0,0,1-.25.25h-1.27a.22.22,0,0,1-.25-.25v-.56a3,3,0,0,0-.92-2.3,3.46,3.46,0,0,0-2.51-.88,3.19,3.19,0,0,0-2.23.74,2.69,2.69,0,0,0-.8,2.08,2.63,2.63,0,0,0,.38,1.45,3.93,3.93,0,0,0,1.11,1.07q.72.48,2.22,1.29a29.65,29.65,0,0,1,2.66,1.64,5.52,5.52,0,0,1,1.47,1.55,4,4,0,0,1,.55,2.15,4.39,4.39,0,0,1-1.37,3.39A5.32,5.32,0,0,1,115,55.57,5.5,5.5,0,0,1,111.23,54.31Z"/><path class="cls-1" d="M125.74,54.91a4.55,4.55,0,0,1-1.83-1.86,5.7,5.7,0,0,1-.65-2.77V37.83c0-.17.09-.25.26-.25h1.29c.17,0,.26.08.26.25V50.39A3.62,3.62,0,0,0,126,53a3.56,3.56,0,0,0,4.93,0,3.66,3.66,0,0,0,.94-2.61V37.83a.22.22,0,0,1,.25-.25h1.3a.22.22,0,0,1,.25.25V50.28a5.7,5.7,0,0,1-.65,2.77,4.55,4.55,0,0,1-1.83,1.86,6,6,0,0,1-5.46,0Z"/><path class="cls-1" d="M145.24,46.22a4.23,4.23,0,0,1,1.84,1.68,5.19,5.19,0,0,1,.68,2.64,4.67,4.67,0,0,1-1.36,3.56,5.1,5.1,0,0,1-3.6,1.27h-5a.23.23,0,0,1-.26-.26V37.83c0-.17.09-.25.26-.25h4.8a5.2,5.2,0,0,1,3.66,1.21,4.42,4.42,0,0,1,1.32,3.44,4.46,4.46,0,0,1-.6,2.39,3.83,3.83,0,0,1-1.74,1.47C145.16,46.13,145.16,46.17,145.24,46.22Zm-5.89-7v6.12c0,.07,0,.1.1.1h3.18a3.16,3.16,0,0,0,2.32-.84,3,3,0,0,0,.85-2.26A3.21,3.21,0,0,0,145,40a3.1,3.1,0,0,0-2.32-.87h-3.18C139.38,39.15,139.35,39.19,139.35,39.26Zm5.74,13.59a4,4,0,0,0,0-5,3.12,3.12,0,0,0-2.38-.92h-3.25c-.07,0-.1,0-.1.1v6.63c0,.07,0,.11.1.11h3.3A3.08,3.08,0,0,0,145.09,52.85Z"/><path class="cls-1" d="M151.71,54.31a4.29,4.29,0,0,1-1.41-3.37v-.68a.22.22,0,0,1,.25-.25h1.25a.22.22,0,0,1,.25.25v.58a2.91,2.91,0,0,0,1,2.29,3.67,3.67,0,0,0,2.56.86,3.34,3.34,0,0,0,2.37-.81,2.8,2.8,0,0,0,.86-2.13,2.64,2.64,0,0,0-.41-1.5,3.91,3.91,0,0,0-1.19-1.17c-.52-.36-1.28-.81-2.26-1.35a25.07,25.07,0,0,1-2.48-1.47A5.25,5.25,0,0,1,151,44a4.25,4.25,0,0,1-.56-2.24,4.1,4.1,0,0,1,1.32-3.23,5.18,5.18,0,0,1,3.53-1.16,5.36,5.36,0,0,1,3.77,1.29,4.47,4.47,0,0,1,1.39,3.43v.59a.22.22,0,0,1-.25.25h-1.27c-.17,0-.26-.08-.26-.25v-.56a3,3,0,0,0-.91-2.3,3.47,3.47,0,0,0-2.52-.88,3.15,3.15,0,0,0-2.22.74,2.69,2.69,0,0,0-.8,2.08,2.63,2.63,0,0,0,.38,1.45,3.8,3.8,0,0,0,1.11,1.07q.72.48,2.22,1.29a29.65,29.65,0,0,1,2.66,1.64,5.82,5.82,0,0,1,1.47,1.55,4,4,0,0,1,.55,2.15,4.37,4.37,0,0,1-1.38,3.39,5.3,5.3,0,0,1-3.73,1.26A5.5,5.5,0,0,1,151.71,54.31Z"/><path class="cls-1" d="M166.22,54.91a4.55,4.55,0,0,1-1.83-1.86,5.7,5.7,0,0,1-.65-2.77V37.83a.22.22,0,0,1,.25-.25h1.3c.17,0,.26.08.26.25V50.39a3.66,3.66,0,0,0,.93,2.61A3.25,3.25,0,0,0,169,54a3.22,3.22,0,0,0,2.46-1,3.62,3.62,0,0,0,.94-2.61V37.83c0-.17.09-.25.26-.25h1.29c.17,0,.26.08.26.25V50.28a5.7,5.7,0,0,1-.65,2.77,4.55,4.55,0,0,1-1.83,1.86,6,6,0,0,1-5.46,0Z"/><path class="cls-1" d="M187.55,39.15h-7.62c-.07,0-.1,0-.1.11v6.3c0,.07,0,.1.1.1h5.13a.22.22,0,0,1,.25.25V47a.22.22,0,0,1-.25.25h-5.13c-.07,0-.1,0-.1.11v6.35c0,.07,0,.1.1.1h7.62a.22.22,0,0,1,.25.25v1.07c0,.17-.08.26-.25.26h-9.27a.23.23,0,0,1-.26-.26V37.83c0-.17.09-.25.26-.25h9.27a.22.22,0,0,1,.25.25V38.9A.22.22,0,0,1,187.55,39.15Z"/><path class="cls-1" d="M191.16,55.11V37.83a.22.22,0,0,1,.25-.25h1.3a.22.22,0,0,1,.25.25V53.69a.09.09,0,0,0,.1.1h7.4a.22.22,0,0,1,.25.25v1.07c0,.17-.08.26-.25.26h-9.05C191.24,55.37,191.16,55.28,191.16,55.11Z"/><path class="cls-1" d="M205.35,54.92a4.52,4.52,0,0,1-1.83-1.82,5.44,5.44,0,0,1-.65-2.69V42.56a5.57,5.57,0,0,1,.65-2.71A4.6,4.6,0,0,1,205.35,38a6.14,6.14,0,0,1,5.46,0,4.78,4.78,0,0,1,1.85,1.83,5.47,5.47,0,0,1,.66,2.71v7.85a5.34,5.34,0,0,1-.66,2.69,4.69,4.69,0,0,1-1.85,1.82,6.06,6.06,0,0,1-5.46,0ZM210.57,53a3.48,3.48,0,0,0,.94-2.54v-8a3.55,3.55,0,0,0-.94-2.58,3.31,3.31,0,0,0-2.49-1,3.26,3.26,0,0,0-2.46,1,3.55,3.55,0,0,0-.94,2.58v8a3.48,3.48,0,0,0,.94,2.54,3.28,3.28,0,0,0,2.46,1A3.34,3.34,0,0,0,210.57,53Z"/><line class="cls-2" x1="0.5" x2="0.5" y2="20.82"/><line class="cls-2" x1="223.44" x2="223.44" y2="20.82"/></g></g></svg>