<svg xmlns="http://www.w3.org/2000/svg" viewBox="0 0 155.83 34.51"><defs><style>.cls-1{fill:none;stroke:#fff;stroke-miterlimit:10;}.cls-2{fill:#fff;}</style></defs><title>Asset 215</title><g id="Layer_2" data-name="Layer 2"><g id="Layer_1-2" data-name="Layer 1"><rect class="cls-1" x="40.96" y="0.5" width="114.37" height="33.51"/><path class="cls-2" d="M56.86,25.24a4.24,4.24,0,0,1-1.4-3.35v-.68a.22.22,0,0,1,.25-.25H57a.22.22,0,0,1,.25.25v.58a2.9,2.9,0,0,0,1,2.27,3.65,3.65,0,0,0,2.55.86,3.27,3.27,0,0,0,2.35-.81A2.73,2.73,0,0,0,63.92,22a2.7,2.7,0,0,0-.4-1.49,4.13,4.13,0,0,0-1.19-1.16c-.52-.36-1.27-.8-2.25-1.34a23.69,23.69,0,0,1-2.46-1.47A5.07,5.07,0,0,1,56.17,15a4.09,4.09,0,0,1-.56-2.22,4.07,4.07,0,0,1,1.31-3.21A5.1,5.1,0,0,1,60.44,8.4a5.3,5.3,0,0,1,3.74,1.29,4.45,4.45,0,0,1,1.39,3.41v.58c0,.17-.09.25-.26.25H64.05a.22.22,0,0,1-.25-.25v-.56a3,3,0,0,0-.91-2.28A3.45,3.45,0,0,0,60.38,10a3.16,3.16,0,0,0-2.21.74,2.68,2.68,0,0,0-.79,2.07,2.54,2.54,0,0,0,.38,1.44,3.73,3.73,0,0,0,1.1,1.06c.48.32,1.21.75,2.21,1.29a28.3,28.3,0,0,1,2.64,1.63,5.59,5.59,0,0,1,1.46,1.54,3.89,3.89,0,0,1,.55,2.14,4.35,4.35,0,0,1-1.37,3.37,5.3,5.3,0,0,1-3.71,1.25A5.49,5.49,0,0,1,56.86,25.24Z"/><path class="cls-2" d="M73.55,14.92h-2.4c-.07,0-.1,0-.1.1V22.6a2.26,2.26,0,0,0,.47,1.65,2,2,0,0,0,1.5.47h.43a.22.22,0,0,1,.25.25V26a.22.22,0,0,1-.25.25l-.78,0a4,4,0,0,1-2.51-.67,3,3,0,0,1-.85-2.49V15c0-.07,0-.1-.11-.1H67.94c-.17,0-.25-.09-.25-.26v-.91a.22.22,0,0,1,.25-.25H69.2c.07,0,.11,0,.11-.1V10.52a.22.22,0,0,1,.25-.25H70.8a.22.22,0,0,1,.25.25V13.4c0,.07,0,.1.1.1h2.4a.22.22,0,0,1,.25.25v.91C73.8,14.83,73.72,14.92,73.55,14.92Z"/><path class="cls-2" d="M83.9,14.46a4.24,4.24,0,0,1,1.15,3.09V26a.23.23,0,0,1-.25.25H83.51a.23.23,0,0,1-.26-.25v-.91a.1.1,0,0,0,0-.08s-.06,0-.09,0a3.43,3.43,0,0,1-1.42,1.06,5.09,5.09,0,0,1-1.92.35,4.32,4.32,0,0,1-2.71-.86A3.3,3.3,0,0,1,76,22.83a3.7,3.7,0,0,1,1.3-3.07,5.5,5.5,0,0,1,3.55-1.05h2.35a.09.09,0,0,0,.1-.1v-1a3,3,0,0,0-.64-2,2.38,2.38,0,0,0-1.91-.74,2.64,2.64,0,0,0-1.64.49,1.92,1.92,0,0,0-.78,1.3.25.25,0,0,1-.28.23l-1.39-.08a.22.22,0,0,1-.19-.07.19.19,0,0,1,0-.18,3.33,3.33,0,0,1,1.38-2.36,4.81,4.81,0,0,1,3-.9A4.29,4.29,0,0,1,83.9,14.46Zm-1.57,9.77a2.27,2.27,0,0,0,.92-1.93V20.25c0-.07,0-.1-.1-.1H80.93a3.62,3.62,0,0,0-2.3.67,2.28,2.28,0,0,0-.86,1.91,2,2,0,0,0,.66,1.65,2.62,2.62,0,0,0,1.72.54A3.52,3.52,0,0,0,82.33,24.23Z"/><path class="cls-2" d="M93.13,14.92h-2.4a.09.09,0,0,0-.1.1V22.6a2.31,2.31,0,0,0,.47,1.65,2,2,0,0,0,1.5.47H93a.23.23,0,0,1,.26.25V26a.23.23,0,0,1-.26.25l-.78,0a4,4,0,0,1-2.5-.67,3,3,0,0,1-.86-2.49V15a.09.09,0,0,0-.1-.1H87.52a.23.23,0,0,1-.25-.26v-.91a.23.23,0,0,1,.25-.25h1.27a.09.09,0,0,0,.1-.1V10.52a.22.22,0,0,1,.25-.25h1.24a.22.22,0,0,1,.25.25V13.4a.09.09,0,0,0,.1.1h2.4a.23.23,0,0,1,.26.25v.91A.23.23,0,0,1,93.13,14.92Z"/><path class="cls-2" d="M96.36,10.77a1.36,1.36,0,0,1-.4-1,1.35,1.35,0,0,1,.4-1,1.38,1.38,0,0,1,1-.39,1.4,1.4,0,0,1,1,.39,1.35,1.35,0,0,1,.4,1,1.36,1.36,0,0,1-.4,1,1.38,1.38,0,0,1-1,.41A1.36,1.36,0,0,1,96.36,10.77ZM96.44,26V13.75a.23.23,0,0,1,.26-.25H98a.23.23,0,0,1,.25.25V26a.23.23,0,0,1-.25.25H96.7A.23.23,0,0,1,96.44,26Z"/><path class="cls-2" d="M103.34,25.49a4.18,4.18,0,0,1-1.44-2.69,25.15,25.15,0,0,1-.15-2.93A23.89,23.89,0,0,1,101.9,17a4.09,4.09,0,0,1,1.43-2.68,5.1,5.1,0,0,1,6.09,0A4.09,4.09,0,0,1,110.85,17a20.87,20.87,0,0,1,.15,2.88,21.4,21.4,0,0,1-.15,2.93,4,4,0,0,1-1.43,2.69,4.58,4.58,0,0,1-3,1A4.53,4.53,0,0,1,103.34,25.49Zm4.87-1.24a2.82,2.82,0,0,0,.89-1.78,24.14,24.14,0,0,0,.11-2.58,23.53,23.53,0,0,0-.11-2.57,2.63,2.63,0,0,0-2.72-2.45,2.62,2.62,0,0,0-1.85.67,2.81,2.81,0,0,0-.88,1.78,23.53,23.53,0,0,0-.11,2.57,23.61,23.61,0,0,0,.11,2.58,2.63,2.63,0,0,0,2.73,2.45A2.63,2.63,0,0,0,108.21,24.25Z"/><path class="cls-2" d="M122,14.45a4.35,4.35,0,0,1,1,3.07V26a.23.23,0,0,1-.26.25h-1.28a.23.23,0,0,1-.26-.25V17.77a3,3,0,0,0-.68-2.09,2.33,2.33,0,0,0-1.87-.79,2.46,2.46,0,0,0-1.91.8,3.05,3.05,0,0,0-.72,2.13V26a.22.22,0,0,1-.25.25h-1.29a.22.22,0,0,1-.25-.25V13.75a.22.22,0,0,1,.25-.25h1.29a.22.22,0,0,1,.25.25v1a.09.09,0,0,0,0,.08s0,0,.09,0a3.4,3.4,0,0,1,3-1.47A3.58,3.58,0,0,1,122,14.45Z"/><path class="cls-2" d="M141.32,20.7a7.25,7.25,0,0,1-.35,2.35,4.46,4.46,0,0,1-1.77,2.53,5.59,5.59,0,0,1-3.23.89,5.52,5.52,0,0,1-2.83-.7,4.19,4.19,0,0,1-1.77-2,.14.14,0,0,0,0-.06.12.12,0,0,0-.06-.09,5.32,5.32,0,0,1-.66-2.76l0-7.9a4.13,4.13,0,0,1,1.44-3.31,5.63,5.63,0,0,1,3.82-1.24,5.36,5.36,0,0,1,3.68,1.24A4.12,4.12,0,0,1,141,12.92v.73a.29.29,0,0,1-.09.22.29.29,0,0,1-.21.09h-3a.27.27,0,0,1-.21-.09.29.29,0,0,1-.09-.22v-.38A1.81,1.81,0,0,0,137,12a1.4,1.4,0,0,0-1.09-.49,1.54,1.54,0,0,0-1.2.5,1.8,1.8,0,0,0-.47,1.29v2.43s0,.08.05.1a.08.08,0,0,0,.1,0,3.34,3.34,0,0,1,2.27-.81,4.33,4.33,0,0,1,2.61.8A4.62,4.62,0,0,1,140.82,18,7,7,0,0,1,141.32,20.7Zm-3.61-.07a4.82,4.82,0,0,0-.25-1.69,1.51,1.51,0,0,0-1.52-1.07,1.49,1.49,0,0,0-1.49,1.07,4.68,4.68,0,0,0-.25,1.71,5.88,5.88,0,0,0,.17,1.49,1.52,1.52,0,0,0,1.57,1.27,1.59,1.59,0,0,0,1.59-1.29A5.85,5.85,0,0,0,137.71,20.63Z"/><polygon class="cls-1" points="33.03 25.4 33.03 0.95 0.5 0.95 0.5 25.4 23.57 25.4 23.57 31.79 27.58 25.4 33.03 25.4"/><line class="cls-1" x1="8.23" y1="13.05" x2="25.3" y2="13.05"/><line class="cls-1" x1="8.23" y1="7.58" x2="25.3" y2="7.58"/><line class="cls-1" x1="8.23" y1="18.51" x2="25.3" y2="18.51"/></g></g></svg>