<svg xmlns="http://www.w3.org/2000/svg" viewBox="0 0 155.33 34.01"><defs><style>.cls-1{fill:none;stroke:#000;stroke-miterlimit:10;}</style></defs><title>Asset 196</title><g id="Layer_2" data-name="Layer 2"><g id="Layer_1-2" data-name="Layer 1"><path d="M108.23,15.54a2.89,2.89,0,0,0-3.7,0,2.81,2.81,0,0,0-.88,1.78,24.13,24.13,0,0,0-.1,2.58,24,24,0,0,0,.1,2.57,2.63,2.63,0,0,0,2.73,2.45,2.63,2.63,0,0,0,1.83-.67,2.82,2.82,0,0,0,.89-1.78,24.06,24.06,0,0,0,.11-2.57,23.61,23.61,0,0,0-.11-2.58A2.66,2.66,0,0,0,108.23,15.54Z"/><path d="M41,.5V34H155.33V.5ZM64.35,25.24a5.3,5.3,0,0,1-3.71,1.25,5.49,5.49,0,0,1-3.78-1.25,4.27,4.27,0,0,1-1.4-3.35v-.68a.22.22,0,0,1,.25-.25H57a.22.22,0,0,1,.25.25v.58a2.9,2.9,0,0,0,1,2.27,3.65,3.65,0,0,0,2.55.86,3.27,3.27,0,0,0,2.35-.81A2.73,2.73,0,0,0,63.92,22a2.7,2.7,0,0,0-.4-1.49,4.13,4.13,0,0,0-1.19-1.16c-.52-.36-1.27-.8-2.25-1.34a23.69,23.69,0,0,1-2.46-1.47A5.22,5.22,0,0,1,56.16,15a4.15,4.15,0,0,1-.55-2.22,4.07,4.07,0,0,1,1.31-3.21A5.1,5.1,0,0,1,60.44,8.4a5.3,5.3,0,0,1,3.74,1.29,4.45,4.45,0,0,1,1.39,3.41v.58c0,.17-.09.25-.26.25H64.05a.22.22,0,0,1-.25-.25v-.56a3,3,0,0,0-.91-2.28,3.44,3.44,0,0,0-2.5-.88,3.15,3.15,0,0,0-2.22.74,2.68,2.68,0,0,0-.79,2.07,2.54,2.54,0,0,0,.38,1.44,3.73,3.73,0,0,0,1.1,1.06c.48.32,1.21.75,2.21,1.29a28.3,28.3,0,0,1,2.64,1.63,5.59,5.59,0,0,1,1.46,1.54,3.89,3.89,0,0,1,.55,2.14A4.35,4.35,0,0,1,64.35,25.24ZM73.8,14.66c0,.17-.08.26-.25.26h-2.4c-.07,0-.1,0-.1.1V22.6a2.26,2.26,0,0,0,.47,1.65,2,2,0,0,0,1.5.47h.43a.22.22,0,0,1,.25.25V26a.22.22,0,0,1-.25.25l-.78,0a4,4,0,0,1-2.51-.67,3,3,0,0,1-.85-2.49V15c0-.07,0-.1-.11-.1H67.94c-.17,0-.25-.09-.25-.26v-.91a.22.22,0,0,1,.25-.25H69.2c.07,0,.11,0,.11-.1V10.52a.22.22,0,0,1,.25-.25H70.8a.22.22,0,0,1,.25.25V13.4c0,.07,0,.1.1.1h2.4a.22.22,0,0,1,.25.25ZM85.05,26a.23.23,0,0,1-.25.25H83.51a.23.23,0,0,1-.26-.25v-.91a.1.1,0,0,0,0-.08s-.06,0-.09,0a3.43,3.43,0,0,1-1.42,1.06,5.09,5.09,0,0,1-1.92.35,4.32,4.32,0,0,1-2.71-.86A3.3,3.3,0,0,1,76,22.83a3.7,3.7,0,0,1,1.3-3.07,5.5,5.5,0,0,1,3.55-1.05h2.35a.09.09,0,0,0,.1-.1v-1a3,3,0,0,0-.64-2,2.38,2.38,0,0,0-1.91-.74,2.64,2.64,0,0,0-1.64.49,1.92,1.92,0,0,0-.78,1.3.25.25,0,0,1-.28.23l-1.39-.08a.22.22,0,0,1-.19-.07.19.19,0,0,1,0-.18,3.33,3.33,0,0,1,1.38-2.36,4.81,4.81,0,0,1,3-.9,4.29,4.29,0,0,1,3.17,1.16,4.24,4.24,0,0,1,1.15,3.09Zm8.34-11.38a.23.23,0,0,1-.26.26h-2.4a.09.09,0,0,0-.1.1V22.6a2.31,2.31,0,0,0,.47,1.65,2,2,0,0,0,1.5.47H93a.23.23,0,0,1,.26.25V26a.23.23,0,0,1-.26.25l-.78,0a4,4,0,0,1-2.5-.67,3,3,0,0,1-.86-2.49V15c0-.07,0-.1-.1-.1H87.52a.23.23,0,0,1-.25-.26v-.91a.23.23,0,0,1,.25-.25h1.27c.07,0,.1,0,.1-.1V10.52a.22.22,0,0,1,.25-.25h1.24a.22.22,0,0,1,.25.25V13.4a.09.09,0,0,0,.1.1h2.4a.23.23,0,0,1,.26.25ZM98.24,26a.23.23,0,0,1-.25.25H96.7a.23.23,0,0,1-.26-.25V13.75a.23.23,0,0,1,.26-.25H98a.23.23,0,0,1,.25.25Zm.15-15.27a1.38,1.38,0,0,1-1,.41A1.38,1.38,0,0,1,96,9.76a1.35,1.35,0,0,1,.4-1,1.38,1.38,0,0,1,1-.39,1.4,1.4,0,0,1,1,.39,1.35,1.35,0,0,1,.4,1A1.36,1.36,0,0,1,98.39,10.77Zm12.46,12a4,4,0,0,1-1.43,2.69,5.12,5.12,0,0,1-6.08,0,4.18,4.18,0,0,1-1.44-2.69,25.15,25.15,0,0,1-.15-2.93A23.89,23.89,0,0,1,101.9,17a4.09,4.09,0,0,1,1.43-2.68,5.1,5.1,0,0,1,6.09,0A4.09,4.09,0,0,1,110.85,17a20.87,20.87,0,0,1,.15,2.88A21.4,21.4,0,0,1,110.85,22.8ZM123,26a.23.23,0,0,1-.26.25h-1.28a.23.23,0,0,1-.26-.25V17.77a3,3,0,0,0-.68-2.09,2.33,2.33,0,0,0-1.87-.79,2.46,2.46,0,0,0-1.91.8,3.05,3.05,0,0,0-.72,2.13V26a.22.22,0,0,1-.25.25h-1.29a.22.22,0,0,1-.25-.25V13.75a.22.22,0,0,1,.25-.25h1.29a.22.22,0,0,1,.25.25v1a.12.12,0,0,0,0,.08.09.09,0,0,0,.09,0,3.4,3.4,0,0,1,3-1.47A3.58,3.58,0,0,1,122,14.45a4.35,4.35,0,0,1,1,3.07ZM141,23a4.6,4.6,0,0,1-1.79,2.61,5.7,5.7,0,0,1-3.29.91,5.54,5.54,0,0,1-3.31-1,4.69,4.69,0,0,1-1.79-2.76,4,4,0,0,1-.21-1.09v-.05c0-.17.1-.25.28-.25h3a.3.3,0,0,1,.33.3,1.69,1.69,0,0,0,.1.41,1.93,1.93,0,0,0,.58,1,1.56,1.56,0,0,0,1,.34,1.52,1.52,0,0,0,1-.37,1.7,1.7,0,0,0,.55-1,4.1,4.1,0,0,0,.18-1.31,5.05,5.05,0,0,0-.18-1.42,1.74,1.74,0,0,0-.58-.91,1.64,1.64,0,0,0-1-.3,1.61,1.61,0,0,0-1.62,1,.31.31,0,0,1-.32.25h-3.06a.29.29,0,0,1-.22-.09.29.29,0,0,1-.09-.21V8.9a.29.29,0,0,1,.09-.21.29.29,0,0,1,.22-.09h9.65a.31.31,0,0,1,.22.09.32.32,0,0,1,.08.21v2.45a.33.33,0,0,1-.08.22.31.31,0,0,1-.22.09h-6.27a.11.11,0,0,0-.12.12l0,4c0,.06,0,.1.05.11a.09.09,0,0,0,.1,0,3.88,3.88,0,0,1,2.43-.78,4.38,4.38,0,0,1,2.56.71,4,4,0,0,1,1.53,2,8.41,8.41,0,0,1,.48,2.95A8.16,8.16,0,0,1,141,23Z"/><path d="M80.93,20.15a3.62,3.62,0,0,0-2.3.67,2.28,2.28,0,0,0-.86,1.91,2,2,0,0,0,.66,1.65,2.62,2.62,0,0,0,1.72.54,3.52,3.52,0,0,0,2.18-.69,2.27,2.27,0,0,0,.92-1.93V20.25c0-.07,0-.1-.1-.1Z"/><polygon class="cls-1" points="33.03 24.96 33.03 0.5 0.5 0.5 0.5 24.96 23.57 24.96 23.57 31.34 27.58 24.96 33.03 24.96"/><line class="cls-1" x1="8.23" y1="12.6" x2="25.3" y2="12.6"/><line class="cls-1" x1="8.23" y1="7.14" x2="25.3" y2="7.14"/><line class="cls-1" x1="8.23" y1="18.06" x2="25.3" y2="18.06"/></g></g></svg>