<svg xmlns="http://www.w3.org/2000/svg" viewBox="0 0 223.94 55.05"><defs><style>.cls-1{fill:#fff;}.cls-2{fill:none;stroke:#fff;stroke-miterlimit:10;}</style></defs><title>Asset 232</title><g id="Layer_2" data-name="Layer 2"><g id="Layer_1-2" data-name="Layer 1"><path class="cls-1" d="M29.37,1.54a5.06,5.06,0,0,1,1.26,3.59,5,5,0,0,1-1.26,3.55A4.3,4.3,0,0,1,26.08,10H22.3c-.07,0-.11,0-.11.1v7.63a.22.22,0,0,1-.25.25h-1.3a.22.22,0,0,1-.25-.25V.43a.22.22,0,0,1,.25-.25h5.44A4.26,4.26,0,0,1,29.37,1.54ZM28,7.6a3.51,3.51,0,0,0,.82-2.44A3.6,3.6,0,0,0,28,2.68a2.72,2.72,0,0,0-2.16-.93H22.3a.1.1,0,0,0-.11.1V8.41c0,.07,0,.1.11.1h3.55A2.74,2.74,0,0,0,28,7.6Z"/><path class="cls-1" d="M42.06,17.79,38.91,9.93a.09.09,0,0,0-.1-.07H35.53a.09.09,0,0,0-.1.1v7.78a.22.22,0,0,1-.25.25h-1.3a.22.22,0,0,1-.25-.25V.46c0-.17.08-.26.25-.26h5.39a4.6,4.6,0,0,1,2.35.61,4.12,4.12,0,0,1,1.6,1.73,5.59,5.59,0,0,1,.57,2.57A5,5,0,0,1,43,8.05a4,4,0,0,1-2.28,1.63c-.07,0-.09.08-.05.13l3.27,7.88,0,.1c0,.13-.08.2-.23.2H42.34A.3.3,0,0,1,42.06,17.79ZM35.43,1.88V8.31a.09.09,0,0,0,.1.1H39a2.74,2.74,0,0,0,2.14-.91A3.48,3.48,0,0,0,42,5.11a3.52,3.52,0,0,0-.81-2.42A2.74,2.74,0,0,0,39,1.78H35.53A.09.09,0,0,0,35.43,1.88Z"/><path class="cls-1" d="M47.05,17.74V.46c0-.17.08-.26.25-.26h1.3a.23.23,0,0,1,.25.26V17.74a.22.22,0,0,1-.25.25H47.3A.22.22,0,0,1,47.05,17.74Z"/><path class="cls-1" d="M63,.2h1.32a.23.23,0,0,1,.26.26V17.74c0,.17-.09.25-.26.25H63c-.17,0-.26-.08-.26-.25V3.91c0-.05,0-.08-.05-.1s-.06,0-.07,0L59.27,9.73a.38.38,0,0,1-.31.18h-.28a.35.35,0,0,1-.3-.18L55,3.89c0-.05,0-.07-.07-.05s0,.05,0,.1v13.8c0,.17-.09.25-.26.25H53.3c-.17,0-.26-.08-.26-.25V.46A.23.23,0,0,1,53.3.2h1.32a.35.35,0,0,1,.3.18l3.84,6.53a.1.1,0,0,0,.08,0,.09.09,0,0,0,.07,0L62.7.38A.35.35,0,0,1,63,.2Z"/><path class="cls-1" d="M78.3,1.78H70.68c-.07,0-.11,0-.11.1v6.3c0,.07,0,.1.11.1h5.13c.17,0,.25.09.25.26V9.6c0,.17-.08.26-.25.26H70.68c-.07,0-.11,0-.11.1v6.35c0,.07,0,.1.11.1H78.3c.17,0,.25.09.25.26v1.07a.22.22,0,0,1-.25.25H69a.22.22,0,0,1-.25-.25V.46c0-.17.08-.26.25-.26H78.3c.17,0,.25.09.25.26V1.52C78.55,1.69,78.47,1.78,78.3,1.78Z"/><path class="cls-1" d="M90.34,17.79,87.19,9.93a.09.09,0,0,0-.1-.07H83.81a.09.09,0,0,0-.1.1v7.78a.22.22,0,0,1-.25.25h-1.3a.22.22,0,0,1-.25-.25V.46c0-.17.08-.26.25-.26h5.39A4.6,4.6,0,0,1,89.9.81a4.12,4.12,0,0,1,1.6,1.73,5.59,5.59,0,0,1,.57,2.57,5,5,0,0,1-.84,2.94A4,4,0,0,1,89,9.68c-.07,0-.09.08-.06.13l3.28,7.88,0,.1c0,.13-.08.2-.23.2H90.62A.29.29,0,0,1,90.34,17.79ZM83.71,1.88V8.31a.09.09,0,0,0,.1.1h3.51a2.7,2.7,0,0,0,2.13-.91,3.44,3.44,0,0,0,.82-2.39,3.48,3.48,0,0,0-.82-2.42,2.7,2.7,0,0,0-2.13-.91H83.81A.09.09,0,0,0,83.71,1.88Z"/><path class="cls-1" d="M100.9,16.94a4.31,4.31,0,0,1-1.41-3.37v-.69c0-.17.09-.25.26-.25H101a.22.22,0,0,1,.25.25v.59a2.91,2.91,0,0,0,1,2.28,3.69,3.69,0,0,0,2.57.87,3.28,3.28,0,0,0,2.36-.82,2.8,2.8,0,0,0,.86-2.13,2.71,2.71,0,0,0-.4-1.5A4.2,4.2,0,0,0,106.4,11c-.52-.35-1.28-.8-2.26-1.34a23.07,23.07,0,0,1-2.48-1.48,5.26,5.26,0,0,1-1.46-1.55,4.22,4.22,0,0,1-.56-2.23A4.08,4.08,0,0,1,101,1.17,5.16,5.16,0,0,1,104.5,0a5.33,5.33,0,0,1,3.76,1.29,4.48,4.48,0,0,1,1.4,3.44v.58c0,.17-.09.25-.26.25h-1.27a.22.22,0,0,1-.25-.25V4.75a3.05,3.05,0,0,0-.92-2.3,3.5,3.5,0,0,0-2.51-.88,3.19,3.19,0,0,0-2.23.74,2.71,2.71,0,0,0-.8,2.09,2.62,2.62,0,0,0,.38,1.44,3.93,3.93,0,0,0,1.11,1.07c.48.32,1.22.76,2.22,1.3a27.49,27.49,0,0,1,2.66,1.64,5.26,5.26,0,0,1,1.47,1.55,3.92,3.92,0,0,1,.55,2.14,4.4,4.4,0,0,1-1.37,3.4,5.37,5.37,0,0,1-3.74,1.25A5.54,5.54,0,0,1,100.9,16.94Z"/><path class="cls-1" d="M115.41,17.53a4.59,4.59,0,0,1-1.83-1.85,5.75,5.75,0,0,1-.65-2.77V.46a.23.23,0,0,1,.26-.26h1.29a.23.23,0,0,1,.26.26V13a3.64,3.64,0,0,0,.94,2.62,3.56,3.56,0,0,0,4.93,0,3.69,3.69,0,0,0,.94-2.62V.46c0-.17.08-.26.25-.26h1.3c.17,0,.25.09.25.26V12.91a5.75,5.75,0,0,1-.65,2.77,4.59,4.59,0,0,1-1.83,1.85,6,6,0,0,1-5.46,0Z"/><path class="cls-1" d="M134.91,8.84a4.23,4.23,0,0,1,1.84,1.68,5.22,5.22,0,0,1,.68,2.64,4.66,4.66,0,0,1-1.36,3.56,5.06,5.06,0,0,1-3.6,1.27h-5c-.17,0-.26-.08-.26-.25V.46a.23.23,0,0,1,.26-.26h4.8a5.25,5.25,0,0,1,3.66,1.21,4.42,4.42,0,0,1,1.32,3.44,4.44,4.44,0,0,1-.6,2.39,3.77,3.77,0,0,1-1.74,1.47C134.83,8.75,134.83,8.79,134.91,8.84Zm-5.89-7V8c0,.07,0,.11.1.11h3.18a3.16,3.16,0,0,0,2.32-.84A3,3,0,0,0,135.47,5a3.23,3.23,0,0,0-.85-2.37,3.13,3.13,0,0,0-2.32-.86h-3.18C129.05,1.78,129,1.81,129,1.88Zm5.74,13.59a3.44,3.44,0,0,0,.86-2.49,3.5,3.5,0,0,0-.87-2.51,3.16,3.16,0,0,0-2.38-.92h-3.25c-.07,0-.1,0-.1.11v6.63c0,.07,0,.1.1.1h3.3A3.08,3.08,0,0,0,134.76,15.47Z"/><path class="cls-1" d="M141.38,16.94A4.31,4.31,0,0,1,140,13.57v-.69a.22.22,0,0,1,.25-.25h1.25a.22.22,0,0,1,.25.25v.59a2.88,2.88,0,0,0,1,2.28,3.68,3.68,0,0,0,2.56.87,3.3,3.3,0,0,0,2.37-.82,2.8,2.8,0,0,0,.86-2.13,2.71,2.71,0,0,0-.4-1.5,4.33,4.33,0,0,0-1.2-1.17c-.52-.35-1.28-.8-2.26-1.34a23.07,23.07,0,0,1-2.48-1.48,5.13,5.13,0,0,1-1.46-1.55,4.22,4.22,0,0,1-.56-2.23,4.08,4.08,0,0,1,1.32-3.23A5.13,5.13,0,0,1,145,0a5.36,5.36,0,0,1,3.77,1.29,4.48,4.48,0,0,1,1.39,3.44v.58a.22.22,0,0,1-.25.25h-1.27c-.17,0-.26-.08-.26-.25V4.75a3,3,0,0,0-.91-2.3,3.51,3.51,0,0,0-2.52-.88,3.15,3.15,0,0,0-2.22.74,2.71,2.71,0,0,0-.8,2.09,2.62,2.62,0,0,0,.38,1.44,3.8,3.8,0,0,0,1.11,1.07c.48.32,1.22.76,2.22,1.3a27.49,27.49,0,0,1,2.66,1.64,5.4,5.4,0,0,1,1.47,1.55,4,4,0,0,1,.55,2.14,4.37,4.37,0,0,1-1.38,3.4,5.34,5.34,0,0,1-3.73,1.25A5.54,5.54,0,0,1,141.38,16.94Z"/><path class="cls-1" d="M155.89,17.53a4.59,4.59,0,0,1-1.83-1.85,5.75,5.75,0,0,1-.65-2.77V.46a.23.23,0,0,1,.26-.26H155c.17,0,.25.09.25.26V13a3.65,3.65,0,0,0,.95,2.62,3.22,3.22,0,0,0,2.46,1,3.25,3.25,0,0,0,2.47-1A3.68,3.68,0,0,0,162,13V.46a.23.23,0,0,1,.26-.26h1.3a.23.23,0,0,1,.25.26V12.91a5.75,5.75,0,0,1-.65,2.77,4.59,4.59,0,0,1-1.83,1.85,6,6,0,0,1-5.46,0Z"/><path class="cls-1" d="M177.22,1.78H169.6c-.07,0-.1,0-.1.1v6.3c0,.07,0,.1.1.1h5.13c.17,0,.25.09.25.26V9.6c0,.17-.08.26-.25.26H169.6c-.07,0-.1,0-.1.1v6.35c0,.07,0,.1.1.1h7.62c.17,0,.25.09.25.26v1.07a.22.22,0,0,1-.25.25H168c-.17,0-.26-.08-.26-.25V.46A.23.23,0,0,1,168,.2h9.27c.17,0,.25.09.25.26V1.52C177.47,1.69,177.39,1.78,177.22,1.78Z"/><path class="cls-1" d="M180.83,17.74V.46c0-.17.08-.26.25-.26h1.3c.17,0,.25.09.25.26V16.31a.09.09,0,0,0,.1.1h7.4c.17,0,.25.09.25.26v1.07a.22.22,0,0,1-.25.25h-9A.22.22,0,0,1,180.83,17.74Z"/><path class="cls-1" d="M195,17.54a4.49,4.49,0,0,1-1.83-1.81,5.49,5.49,0,0,1-.65-2.69V5.18a5.53,5.53,0,0,1,.65-2.7A4.48,4.48,0,0,1,195,.65a6.06,6.06,0,0,1,5.46,0,4.65,4.65,0,0,1,1.85,1.83,5.43,5.43,0,0,1,.66,2.7V13a5.39,5.39,0,0,1-.66,2.69,4.67,4.67,0,0,1-1.85,1.81,6.06,6.06,0,0,1-5.46,0Zm5.22-1.89a3.47,3.47,0,0,0,.94-2.54v-8a3.56,3.56,0,0,0-.94-2.58,3.3,3.3,0,0,0-2.49-1,3.26,3.26,0,0,0-2.46,1,3.56,3.56,0,0,0-.94,2.58v8a3.47,3.47,0,0,0,.94,2.54,3.25,3.25,0,0,0,2.46,1A3.29,3.29,0,0,0,200.24,15.65Z"/><path class="cls-1" d="M10,53.16a5,5,0,0,1-2.11-1.79,4.8,4.8,0,0,1-.75-2.68V48a.29.29,0,0,1,.31-.3H11a.32.32,0,0,1,.21.08.33.33,0,0,1,.09.22v.46a1.58,1.58,0,0,0,.56,1.21,2.17,2.17,0,0,0,1.5.49,1.62,1.62,0,0,0,1.19-.41,1.35,1.35,0,0,0,.41-1,1.24,1.24,0,0,0-.29-.82,2.94,2.94,0,0,0-.8-.63l-1.76-.91A22,22,0,0,1,9.63,45a6,6,0,0,1-1.74-1.76,4.65,4.65,0,0,1-.72-2.62A4.86,4.86,0,0,1,7.9,38,4.81,4.81,0,0,1,10,36.23a6.94,6.94,0,0,1,3-.62,7,7,0,0,1,3.13.67,5.32,5.32,0,0,1,2.15,1.88A5.07,5.07,0,0,1,19,40.94v.48a.29.29,0,0,1-.09.22.29.29,0,0,1-.21.09H15.17a.31.31,0,0,1-.31-.31V41a1.69,1.69,0,0,0-.53-1.26,2,2,0,0,0-1.45-.52,1.62,1.62,0,0,0-1.14.38,1.39,1.39,0,0,0-.41,1,1.42,1.42,0,0,0,.28.85,3.23,3.23,0,0,0,.88.72c.4.24,1,.56,1.82,1l.73.4a22.42,22.42,0,0,1,2.19,1.35,5,5,0,0,1,1.36,1.5,4.28,4.28,0,0,1,.54,2.21,4.65,4.65,0,0,1-1.64,3.77,6.44,6.44,0,0,1-4.33,1.39A7.38,7.38,0,0,1,10,53.16Z"/><path class="cls-1" d="M31.93,39.33a.29.29,0,0,1-.22.09H25.15a.11.11,0,0,0-.12.12v3.18c0,.08,0,.13.12.13h4a.31.31,0,0,1,.22.09.32.32,0,0,1,.08.21v3a.33.33,0,0,1-.08.22.31.31,0,0,1-.22.09h-4a.11.11,0,0,0-.12.12v3.28c0,.09,0,.13.12.13h6.56a.29.29,0,0,1,.22.09.29.29,0,0,1,.09.21v3a.31.31,0,0,1-.31.31H21.11a.29.29,0,0,1-.21-.09.29.29,0,0,1-.09-.22V36.11a.31.31,0,0,1,.3-.3h10.6a.29.29,0,0,1,.22.09.29.29,0,0,1,.09.21v3A.29.29,0,0,1,31.93,39.33Z"/><path class="cls-1" d="M36.39,53.09a5.21,5.21,0,0,1-2.14-2,5.86,5.86,0,0,1-.76-3V41.35a5.88,5.88,0,0,1,.76-3,5.17,5.17,0,0,1,2.14-2,6.7,6.7,0,0,1,3.17-.71,7,7,0,0,1,3.17.69A5.19,5.19,0,0,1,45.64,41v.54a.29.29,0,0,1-.09.21.29.29,0,0,1-.22.09H41.72a.31.31,0,0,1-.3-.3v-.49a1.88,1.88,0,0,0-.5-1.34,1.75,1.75,0,0,0-1.36-.54,1.66,1.66,0,0,0-1.34.58,2.13,2.13,0,0,0-.51,1.48v6.86a2,2,0,0,0,.56,1.49,1.87,1.87,0,0,0,1.39.57A1.76,1.76,0,0,0,41,49.7a1.82,1.82,0,0,0,.5-1.34V47.19c0-.08,0-.12-.13-.12H39.71A.29.29,0,0,1,39.5,47a.29.29,0,0,1-.09-.22V44a.29.29,0,0,1,.09-.22.29.29,0,0,1,.21-.09h5.62a.31.31,0,0,1,.31.31v4.09a5.82,5.82,0,0,1-.77,3,5.18,5.18,0,0,1-2.13,2,7.5,7.5,0,0,1-6.35,0Z"/><path class="cls-1" d="M50.29,53.07a5.11,5.11,0,0,1-2.13-2A6.08,6.08,0,0,1,47.41,48V36.11a.29.29,0,0,1,.09-.21.29.29,0,0,1,.22-.09h3.61a.31.31,0,0,1,.3.3V48.18a2.05,2.05,0,0,0,.51,1.45,1.71,1.71,0,0,0,1.32.56,1.68,1.68,0,0,0,1.31-.56,2.09,2.09,0,0,0,.5-1.45V36.11a.32.32,0,0,1,.08-.21.31.31,0,0,1,.22-.09h3.61a.27.27,0,0,1,.21.09.29.29,0,0,1,.09.21V48A6.08,6.08,0,0,1,58.73,51a5.16,5.16,0,0,1-2.1,2,7.25,7.25,0,0,1-6.34,0Z"/><path class="cls-1" d="M70.27,35.9a.29.29,0,0,1,.22-.09h3.6a.29.29,0,0,1,.22.09.29.29,0,0,1,.09.21V53.29a.31.31,0,0,1-.31.31H70.33a.36.36,0,0,1-.35-.23L65.79,44c0-.05-.07-.07-.11-.06s-.05.05-.05.12l.05,9.27a.33.33,0,0,1-.08.22.31.31,0,0,1-.22.09H61.8a.31.31,0,0,1-.31-.31V36.11a.29.29,0,0,1,.09-.21.29.29,0,0,1,.22-.09h3.73a.36.36,0,0,1,.36.23l4.16,9.35s.07.07.11.07,0,0,0-.1l0-9.25A.29.29,0,0,1,70.27,35.9Z"/><path class="cls-1" d="M76.6,53.51a.29.29,0,0,1-.09-.22V36.11a.31.31,0,0,1,.3-.3h5.67a7.29,7.29,0,0,1,3.18.66,5,5,0,0,1,2.12,1.85,5.11,5.11,0,0,1,.75,2.77v7.22a4.92,4.92,0,0,1-2.87,4.63,7.29,7.29,0,0,1-3.18.66H76.81A.29.29,0,0,1,76.6,53.51ZM80.85,50l1.68,0a1.57,1.57,0,0,0,1.26-.58,2.49,2.49,0,0,0,.52-1.58V41.58a2.38,2.38,0,0,0-.5-1.57,1.62,1.62,0,0,0-1.3-.59H80.85a.11.11,0,0,0-.12.12V49.86C80.73,50,80.77,50,80.85,50Z"/><path class="cls-1" d="M93.15,53.11A5.3,5.3,0,0,1,91,51a6.14,6.14,0,0,1-.78-3.13V41.5A6,6,0,0,1,91,38.41a5.34,5.34,0,0,1,2.17-2.07,7.51,7.51,0,0,1,6.46,0,5.34,5.34,0,0,1,2.17,2.07,6,6,0,0,1,.77,3.09v6.4a6.13,6.13,0,0,1-.77,3.13,5.3,5.3,0,0,1-2.17,2.08,7.42,7.42,0,0,1-6.46,0Zm4.65-3.49a2.24,2.24,0,0,0,.54-1.56V41.4a2.32,2.32,0,0,0-.55-1.58,2,2,0,0,0-2.83,0,2.29,2.29,0,0,0-.54,1.59v6.66A2.24,2.24,0,0,0,95,49.62a2,2,0,0,0,2.84,0Z"/><path class="cls-1" d="M112,53.16a4.89,4.89,0,0,1-2.11-1.79,4.8,4.8,0,0,1-.75-2.68V48a.29.29,0,0,1,.31-.3H113a.29.29,0,0,1,.31.3v.46a1.54,1.54,0,0,0,.56,1.21,2.17,2.17,0,0,0,1.5.49,1.62,1.62,0,0,0,1.19-.41,1.35,1.35,0,0,0,.41-1,1.2,1.2,0,0,0-.3-.82,2.79,2.79,0,0,0-.8-.63c-.34-.18-.92-.49-1.75-.91A20.36,20.36,0,0,1,111.68,45a6,6,0,0,1-1.74-1.76,4.58,4.58,0,0,1-.73-2.62A4.87,4.87,0,0,1,110,38,4.81,4.81,0,0,1,112,36.23a6.94,6.94,0,0,1,3-.62,7,7,0,0,1,3.13.67,5.23,5.23,0,0,1,2.14,1.88,5,5,0,0,1,.78,2.78v.48a.31.31,0,0,1-.31.31h-3.55a.31.31,0,0,1-.31-.31V41a1.72,1.72,0,0,0-.53-1.26,2,2,0,0,0-1.45-.52,1.66,1.66,0,0,0-1.15.38,1.39,1.39,0,0,0-.4,1,1.36,1.36,0,0,0,.28.85,3.16,3.16,0,0,0,.87.72c.4.24,1,.56,1.82,1l.74.4a23.35,23.35,0,0,1,2.18,1.35,4.79,4.79,0,0,1,1.36,1.5,4.19,4.19,0,0,1,.55,2.21,4.68,4.68,0,0,1-1.64,3.77,6.45,6.45,0,0,1-4.33,1.39A7.35,7.35,0,0,1,112,53.16Z"/><path class="cls-1" d="M125.65,53.07a5.15,5.15,0,0,1-2.12-2,6.08,6.08,0,0,1-.75-3.05V36.11a.31.31,0,0,1,.3-.3h3.61a.29.29,0,0,1,.22.09.29.29,0,0,1,.09.21V48.18a2.05,2.05,0,0,0,.51,1.45,1.82,1.82,0,0,0,2.63,0,2.09,2.09,0,0,0,.49-1.45V36.11a.29.29,0,0,1,.09-.21.29.29,0,0,1,.22-.09h3.6a.29.29,0,0,1,.22.09.29.29,0,0,1,.09.21V48A6.08,6.08,0,0,1,134.1,51a5.12,5.12,0,0,1-2.11,2,6.55,6.55,0,0,1-3.16.73A6.63,6.63,0,0,1,125.65,53.07Z"/><path class="cls-1" d="M147.3,52.33a6.64,6.64,0,0,1-4.19,1.27h-6a.29.29,0,0,1-.21-.09.29.29,0,0,1-.09-.22V36.11a.31.31,0,0,1,.3-.3h5.52A7,7,0,0,1,147.1,37a4.45,4.45,0,0,1,1.55,3.74,3.9,3.9,0,0,1-1.78,3.56q-.15.07,0,.15a4.54,4.54,0,0,1,2.09,4.12A4.48,4.48,0,0,1,147.3,52.33Zm-6.22-12.79v3.23c0,.09,0,.13.12.13h1.5a1.89,1.89,0,0,0,1.36-.45,2,2,0,0,0,0-2.57,1.86,1.86,0,0,0-1.35-.46h-1.5A.11.11,0,0,0,141.08,39.54Zm3.16,9.93a2.36,2.36,0,0,0,0-2.81,1.64,1.64,0,0,0-1.29-.51H141.2c-.08,0-.12,0-.12.13v3.55c0,.09,0,.13.12.13h1.73A1.71,1.71,0,0,0,144.24,49.47Z"/><path class="cls-1" d="M153.26,53.16a4.89,4.89,0,0,1-2.11-1.79,4.8,4.8,0,0,1-.75-2.68V48a.29.29,0,0,1,.31-.3h3.55a.29.29,0,0,1,.31.3v.46a1.54,1.54,0,0,0,.56,1.21,2.17,2.17,0,0,0,1.5.49,1.62,1.62,0,0,0,1.19-.41,1.35,1.35,0,0,0,.41-1,1.24,1.24,0,0,0-.29-.82,3,3,0,0,0-.81-.63c-.33-.18-.92-.49-1.75-.91A21.17,21.17,0,0,1,152.92,45a6,6,0,0,1-1.74-1.76,4.58,4.58,0,0,1-.73-2.62,4.87,4.87,0,0,1,.74-2.67,4.81,4.81,0,0,1,2.06-1.76,6.94,6.94,0,0,1,3-.62,7,7,0,0,1,3.13.67,5.23,5.23,0,0,1,2.14,1.88,5,5,0,0,1,.78,2.78v.48a.31.31,0,0,1-.31.31h-3.55a.31.31,0,0,1-.31-.31V41a1.72,1.72,0,0,0-.53-1.26,2,2,0,0,0-1.45-.52,1.62,1.62,0,0,0-1.14.38,1.5,1.5,0,0,0-.13,1.9,3.08,3.08,0,0,0,.88.72c.39.24,1,.56,1.81,1l.74.4a23.35,23.35,0,0,1,2.18,1.35,4.79,4.79,0,0,1,1.36,1.5,4.19,4.19,0,0,1,.55,2.21,4.68,4.68,0,0,1-1.64,3.77,6.45,6.45,0,0,1-4.33,1.39A7.38,7.38,0,0,1,153.26,53.16Z"/><path class="cls-1" d="M166.89,53.07a5.15,5.15,0,0,1-2.12-2A6.08,6.08,0,0,1,164,48V36.11a.29.29,0,0,1,.09-.21.29.29,0,0,1,.22-.09h3.6a.29.29,0,0,1,.22.09.29.29,0,0,1,.09.21V48.18a2.05,2.05,0,0,0,.51,1.45,1.71,1.71,0,0,0,1.32.56,1.68,1.68,0,0,0,1.31-.56,2.09,2.09,0,0,0,.49-1.45V36.11a.29.29,0,0,1,.09-.21.29.29,0,0,1,.22-.09h3.61a.31.31,0,0,1,.3.3V48a6.08,6.08,0,0,1-.75,3.05,5.12,5.12,0,0,1-2.11,2,6.53,6.53,0,0,1-3.16.73A6.63,6.63,0,0,1,166.89,53.07Z"/><path class="cls-1" d="M189.21,39.33a.29.29,0,0,1-.21.09h-6.56a.11.11,0,0,0-.12.12v3.18c0,.08,0,.13.12.13h4a.31.31,0,0,1,.3.3v3a.29.29,0,0,1-.09.22.29.29,0,0,1-.21.09h-4a.11.11,0,0,0-.12.12v3.28c0,.09,0,.13.12.13H189a.31.31,0,0,1,.3.3v3a.29.29,0,0,1-.09.22.29.29,0,0,1-.21.09H178.4a.29.29,0,0,1-.21-.09.29.29,0,0,1-.09-.22V36.11a.31.31,0,0,1,.3-.3H189a.31.31,0,0,1,.3.3v3A.29.29,0,0,1,189.21,39.33Z"/><path class="cls-1" d="M191.12,53.51a.29.29,0,0,1-.09-.22V36.11a.29.29,0,0,1,.09-.21.29.29,0,0,1,.22-.09h3.6a.29.29,0,0,1,.22.09.29.29,0,0,1,.09.21V49.86c0,.09,0,.13.13.13H202a.29.29,0,0,1,.22.09.29.29,0,0,1,.09.21v3a.31.31,0,0,1-.31.31H191.34A.29.29,0,0,1,191.12,53.51Z"/><path class="cls-1" d="M206.38,53.11A5.24,5.24,0,0,1,204.21,51a6.14,6.14,0,0,1-.78-3.13V41.5a6,6,0,0,1,.78-3.09,5.28,5.28,0,0,1,2.17-2.07,7.49,7.49,0,0,1,6.45,0A5.28,5.28,0,0,1,215,38.41a6,6,0,0,1,.78,3.09v6.4A6.14,6.14,0,0,1,215,51a5.24,5.24,0,0,1-2.17,2.08,7.4,7.4,0,0,1-6.45,0ZM211,49.62a2.29,2.29,0,0,0,.53-1.56V41.4a2.31,2.31,0,0,0-.54-1.58,1.85,1.85,0,0,0-1.41-.61,1.82,1.82,0,0,0-1.43.6,2.33,2.33,0,0,0-.53,1.59v6.66a2.29,2.29,0,0,0,.53,1.56,2,2,0,0,0,2.85,0Z"/><line class="cls-2" x1="0.5" y1="34.23" x2="0.5" y2="55.05"/><line class="cls-2" x1="223.44" y1="34.23" x2="223.44" y2="55.05"/></g></g></svg>