<svg xmlns="http://www.w3.org/2000/svg" viewBox="0 0 155.18 33.51"><defs><style>.cls-1{fill:#fff;}</style></defs><title>Asset 151</title><g id="Layer_2" data-name="Layer 2"><g id="Layer_1-2" data-name="Layer 1"><path class="cls-1" d="M68.76,15.61a1.62,1.62,0,0,0-1.14-.42,1.6,1.6,0,0,0-1.13.41,1.92,1.92,0,0,0-.58,1.12,5.86,5.86,0,0,0-.07,1c0,.09,0,.13.12.13h3.31a.12.12,0,0,0,.13-.13,5.83,5.83,0,0,0-.08-1A1.8,1.8,0,0,0,68.76,15.61Z"/><path class="cls-1" d="M129.27,15.19a1.37,1.37,0,0,0-1,.36,2,2,0,0,0-.55,1,8,8,0,0,0-.23,2.27,10.66,10.66,0,0,0,.17,2.18c.22,1,.75,1.5,1.58,1.5S130.54,22,130.8,21a10.86,10.86,0,0,0,.17-2.21,10,10,0,0,0-.2-2.24C130.55,15.66,130.05,15.19,129.27,15.19Z"/><path class="cls-1" d="M54.88,10.67H52.67c-.08,0-.12,0-.12.13v4.34c0,.09,0,.13.12.13h2.21a2,2,0,0,0,1.53-.62A2.34,2.34,0,0,0,57,13a2.38,2.38,0,0,0-.58-1.69A2,2,0,0,0,54.88,10.67Z"/><path class="cls-1" d="M40.81,0V33.51H155.18V0ZM60.42,25.38h-3.1a.33.33,0,0,1-.35-.25l-2.57-7a.15.15,0,0,0-.13-.1h-1.6c-.08,0-.12,0-.12.13v6.94a.27.27,0,0,1-.09.21.29.29,0,0,1-.22.09h-3a.29.29,0,0,1-.22-.09.27.27,0,0,1-.09-.21V7.9a.31.31,0,0,1,.31-.31h6.2a5.25,5.25,0,0,1,2.67.68,4.56,4.56,0,0,1,1.8,1.89,6,6,0,0,1,.64,2.8,5.47,5.47,0,0,1-.71,2.82,4.46,4.46,0,0,1-2,1.78.11.11,0,0,0-.08.17l2.9,7.3a.24.24,0,0,1,0,.13C60.7,25.31,60.61,25.38,60.42,25.38ZM73,19.72a.27.27,0,0,1-.3.3H66c-.08,0-.12,0-.12.13,0,.39.07.68.1.86a1.76,1.76,0,0,0,.62,1.12,1.88,1.88,0,0,0,1.23.41,1.78,1.78,0,0,0,1.73-1.15.33.33,0,0,1,.38-.2l2.7.53c.2.05.27.18.2.39A5,5,0,0,1,71,24.68a5.32,5.32,0,0,1-3.17.91,5.78,5.78,0,0,1-3.59-1,4.86,4.86,0,0,1-1.74-3,16.39,16.39,0,0,1-.23-3.18,12,12,0,0,1,.15-2.06,4.76,4.76,0,0,1,1.68-3.09,6,6,0,0,1,7.29.16A4.89,4.89,0,0,1,73,16.87c0,.56.08,1.18.08,1.85ZM78.47,21a2,2,0,0,0,.54,1.1,1.53,1.53,0,0,0,1.11.4,1.67,1.67,0,0,0,1.18-.4,1.6,1.6,0,0,0,.52-1l.05-.31a.45.45,0,0,1,.12-.21.24.24,0,0,1,.21-.07l3,.26a.3.3,0,0,1,.28.33c0,.1,0,.27-.05.51a4.23,4.23,0,0,1-1.66,2.92,5.76,5.76,0,0,1-3.57,1.07,5.53,5.53,0,0,1-3.52-1.08,4.6,4.6,0,0,1-1.72-3,14.6,14.6,0,0,1-.2-2.75,18.35,18.35,0,0,1,.2-2.69,4.57,4.57,0,0,1,1.73-2.91,6.26,6.26,0,0,1,7,0,4.33,4.33,0,0,1,1.75,2.74c0,.16.06.4.1.74a.31.31,0,0,1-.31.33l-2.92.28h0c-.15,0-.25-.09-.28-.28a.73.73,0,0,0,0-.25,2.28,2.28,0,0,0-.1-.36,1.59,1.59,0,0,0-.58-.84,1.73,1.73,0,0,0-1.07-.33A1.58,1.58,0,0,0,79,15.6a2,2,0,0,0-.56,1.12,12.3,12.3,0,0,0-.15,2.11A10.24,10.24,0,0,0,78.47,21Zm19.29.41a4.58,4.58,0,0,1-1.67,3.06,5.56,5.56,0,0,1-3.59,1.11,5.66,5.66,0,0,1-3.62-1.11,4.5,4.5,0,0,1-1.69-3A14.76,14.76,0,0,1,87,18.83a14.55,14.55,0,0,1,.21-2.62,4.48,4.48,0,0,1,1.69-3,5.72,5.72,0,0,1,3.62-1.1,5.61,5.61,0,0,1,3.57,1.1,4.69,4.69,0,0,1,1.69,3,15.61,15.61,0,0,1,.2,2.62A15.76,15.76,0,0,1,97.76,21.42Zm9.35-5.64c0,.2-.14.26-.36.17a3.43,3.43,0,0,0-.73-.1,3.13,3.13,0,0,0-.66.08,1.93,1.93,0,0,0-1.25.71,2.23,2.23,0,0,0-.51,1.47v7a.27.27,0,0,1-.09.21.29.29,0,0,1-.21.09h-3a.29.29,0,0,1-.21-.09.27.27,0,0,1-.09-.21V12.63a.29.29,0,0,1,.09-.22.29.29,0,0,1,.21-.09h3a.29.29,0,0,1,.21.09.29.29,0,0,1,.09.22v1c0,.07,0,.11,0,.12s.06,0,.09-.07a2.75,2.75,0,0,1,2.49-1.55,2.52,2.52,0,0,1,1.25.31.36.36,0,0,1,.15.4Zm9,0c0,.2-.14.26-.36.17a3.52,3.52,0,0,0-.74-.1,3.29,3.29,0,0,0-.66.08,1.91,1.91,0,0,0-1.24.71,2.23,2.23,0,0,0-.51,1.47v7a.27.27,0,0,1-.09.21.29.29,0,0,1-.22.09h-3a.31.31,0,0,1-.22-.09.26.26,0,0,1-.08-.21V12.63a.29.29,0,0,1,.08-.22.31.31,0,0,1,.22-.09h3a.31.31,0,0,1,.31.31v1c0,.07,0,.11,0,.12s0,0,.09-.07a2.75,2.75,0,0,1,2.49-1.55,2.48,2.48,0,0,1,1.24.31.34.34,0,0,1,.15.4Zm5.56,9.3a.27.27,0,0,1-.09.21.29.29,0,0,1-.21.09h-3a.29.29,0,0,1-.21-.09.27.27,0,0,1-.09-.21V12.63a.29.29,0,0,1,.09-.22.29.29,0,0,1,.21-.09h3a.29.29,0,0,1,.21.09.29.29,0,0,1,.09.22Zm-.37-14.81a2.05,2.05,0,0,1-2.86,0,2,2,0,0,1-.55-1.43,2,2,0,0,1,.54-1.45,1.94,1.94,0,0,1,1.44-.56,1.92,1.92,0,0,1,2,2A1.94,1.94,0,0,1,121.3,10.27Zm13.28,14.81a.27.27,0,0,1-.09.21.29.29,0,0,1-.21.09h-3a.29.29,0,0,1-.21-.09.27.27,0,0,1-.09-.21v-.56a.1.1,0,0,0-.05-.1s-.07,0-.1,0a3.36,3.36,0,0,1-2.7,1.12c-2.07,0-3.39-1.35-4-4a14.46,14.46,0,0,1-.25-2.83,14.54,14.54,0,0,1,.23-2.66c.52-2.63,1.88-3.94,4.06-3.94a4.35,4.35,0,0,1,1.53.24,2.82,2.82,0,0,1,1.12.82c0,.06.06.07.1.06a.13.13,0,0,0,.05-.11V7.9a.29.29,0,0,1,.09-.22.29.29,0,0,1,.21-.09h3a.29.29,0,0,1,.21.09.29.29,0,0,1,.09.22Zm12.81-3.66a4.61,4.61,0,0,1-1.66,3.06,5.61,5.61,0,0,1-3.6,1.11,5.68,5.68,0,0,1-3.62-1.11,4.5,4.5,0,0,1-1.69-3,14.81,14.81,0,0,1-.2-2.61,14.62,14.62,0,0,1,.2-2.62,4.48,4.48,0,0,1,1.69-3,5.74,5.74,0,0,1,3.62-1.1,5.57,5.57,0,0,1,3.57,1.1,4.64,4.64,0,0,1,1.69,3,14.62,14.62,0,0,1,.2,2.62A14.73,14.73,0,0,1,147.39,21.42Z"/><path class="cls-1" d="M93.65,15.61a1.69,1.69,0,0,0-1.18-.42,1.65,1.65,0,0,0-1.15.42,1.89,1.89,0,0,0-.6,1.16,12.44,12.44,0,0,0-.13,2.06,17,17,0,0,0,.1,2.08,2.1,2.1,0,0,0,.64,1.17,1.68,1.68,0,0,0,1.17.43,1.61,1.61,0,0,0,1.13-.43,2.14,2.14,0,0,0,.62-1.17,16.59,16.59,0,0,0,.13-2.08,15.61,15.61,0,0,0-.13-2.06A1.89,1.89,0,0,0,93.65,15.61Z"/><path class="cls-1" d="M143.29,15.61a1.73,1.73,0,0,0-1.19-.42,1.66,1.66,0,0,0-1.15.42,1.94,1.94,0,0,0-.6,1.16,13.64,13.64,0,0,0-.13,2.06,16.69,16.69,0,0,0,.11,2.08,2.09,2.09,0,0,0,.63,1.17,1.68,1.68,0,0,0,1.17.43,1.6,1.6,0,0,0,1.13-.43,2.14,2.14,0,0,0,.62-1.17,16.59,16.59,0,0,0,.13-2.08,15.61,15.61,0,0,0-.13-2.06A1.93,1.93,0,0,0,143.29,15.61Z"/><rect class="cls-1" y="17.07" width="32.53" height="16.43"/><polygon points="2.68 0.95 29.85 0.95 23.05 12.71 16.27 24.48 2.68 0.95"/><path class="cls-1" d="M29,1.45l-6.36,11-6.35,11-6.37-11-6.35-11H29m1.74-1H1.82L9,13l7.23,12.52L23.49,13,30.72.45Z"/></g></g></svg>