<svg xmlns="http://www.w3.org/2000/svg" viewBox="0 0 155.33 33.56"><defs><style>.cls-1{fill:none;}.cls-1,.cls-2{stroke:#000;stroke-miterlimit:10;}.cls-2{fill:#fff;}</style></defs><title>Asset 174</title><g id="Layer_2" data-name="Layer 2"><g id="Layer_1-2" data-name="Layer 1"><path d="M84.07,19.7a3.64,3.64,0,0,0-2.3.67,2.28,2.28,0,0,0-.85,1.91,2,2,0,0,0,.65,1.65,2.63,2.63,0,0,0,1.72.55,3.58,3.58,0,0,0,2.19-.7,2.29,2.29,0,0,0,.92-1.93V19.8a.09.09,0,0,0-.1-.1Z"/><path d="M41,.05V33.56H155.33V.05Zm71.21,11,1.54-2.75a.38.38,0,0,1,.31-.18h1.08c.11,0,.17,0,.19.09a.21.21,0,0,1,0,.21l-1.75,2.76a.35.35,0,0,1-.3.18h-.86a.2.2,0,0,1-.2-.09A.2.2,0,0,1,112.17,11.08ZM58.1,9.47a.23.23,0,0,1-.26.25H50.26a.09.09,0,0,0-.1.1v6.27a.09.09,0,0,0,.1.1h5.11a.22.22,0,0,1,.25.25V17.5a.22.22,0,0,1-.25.25H50.26a.1.1,0,0,0-.1.11v6.31a.09.09,0,0,0,.1.1h7.58a.23.23,0,0,1,.26.26v1.06c0,.17-.09.25-.26.25H48.62a.22.22,0,0,1-.25-.25V8.4a.22.22,0,0,1,.25-.25h9.22a.23.23,0,0,1,.26.25ZM67.88,25a4.76,4.76,0,0,1-3.11,1A4.91,4.91,0,0,1,61.63,25a2.91,2.91,0,0,1-1.18-2.4V22.4a.22.22,0,0,1,.25-.25h1.24a.22.22,0,0,1,.25.25v.18a1.76,1.76,0,0,0,.72,1.4,2.81,2.81,0,0,0,1.86.6A2.69,2.69,0,0,0,66.56,24a1.84,1.84,0,0,0,.68-1.47,1.52,1.52,0,0,0-.38-1.06,2.55,2.55,0,0,0-.93-.68c-.37-.17-.89-.37-1.54-.59a13.51,13.51,0,0,1-2-.8,3.81,3.81,0,0,1-1.33-1.13,3,3,0,0,1-.54-1.83,3.2,3.2,0,0,1,1.13-2.57,5.29,5.29,0,0,1,6.08,0,3.17,3.17,0,0,1,1.15,2.53v0a.22.22,0,0,1-.25.25H67.5c-.17,0-.26-.08-.26-.25v-.1A1.78,1.78,0,0,0,66.55,15a2.85,2.85,0,0,0-1.86-.57,2.64,2.64,0,0,0-1.75.55,1.71,1.71,0,0,0-.67,1.4,1.52,1.52,0,0,0,.67,1.34,9.67,9.67,0,0,0,2.1,1,15.09,15.09,0,0,1,2,.81,4,4,0,0,1,1.38,1.12A2.91,2.91,0,0,1,69,22.43,3.19,3.19,0,0,1,67.88,25ZM77,14.22a.23.23,0,0,1-.26.25h-2.4a.09.09,0,0,0-.1.1v7.58a2.35,2.35,0,0,0,.47,1.66,2.06,2.06,0,0,0,1.5.46h.43a.23.23,0,0,1,.26.26v1.06c0,.17-.09.25-.26.25l-.78,0a4,4,0,0,1-2.5-.67,3,3,0,0,1-.86-2.49V14.57c0-.07,0-.1-.1-.1H71.08a.23.23,0,0,1-.25-.25v-.91a.23.23,0,0,1,.25-.26h1.27c.07,0,.1,0,.1-.1V10.07a.22.22,0,0,1,.25-.25h1.24a.22.22,0,0,1,.25.25V13a.09.09,0,0,0,.1.1h2.4a.23.23,0,0,1,.26.26ZM88.19,25.59a.22.22,0,0,1-.25.25H86.65a.22.22,0,0,1-.25-.25v-.91a.08.08,0,0,0,0-.08s0,0-.09,0a3.47,3.47,0,0,1-1.41,1.06,5.17,5.17,0,0,1-1.92.35,4.31,4.31,0,0,1-2.72-.86,3.29,3.29,0,0,1-1.13-2.8,3.71,3.71,0,0,1,1.31-3.07,5.48,5.48,0,0,1,3.55-1H86.3a.09.09,0,0,0,.1-.1v-1a3,3,0,0,0-.65-2,2.39,2.39,0,0,0-1.9-.74,2.67,2.67,0,0,0-1.65.49,1.92,1.92,0,0,0-.78,1.3.25.25,0,0,1-.28.23l-1.39-.08a.24.24,0,0,1-.19-.07.22.22,0,0,1,0-.18,3.34,3.34,0,0,1,1.38-2.36,4.81,4.81,0,0,1,3-.9A4.26,4.26,0,0,1,87,14a4.2,4.2,0,0,1,1.15,3.09Zm12.06-8.8a.24.24,0,0,1-.07.17A.23.23,0,0,1,100,17l-1.29.08a.27.27,0,0,1-.28-.23,1.7,1.7,0,0,0,0-.3,2.42,2.42,0,0,0-.88-1.52,2.71,2.71,0,0,0-1.83-.63,2.57,2.57,0,0,0-1.83.68A2.85,2.85,0,0,0,93,16.87a23.79,23.79,0,0,0-.12,2.58,24.06,24.06,0,0,0,.12,2.6,2.76,2.76,0,0,0,.85,1.77,2.6,2.6,0,0,0,1.83.66,2.75,2.75,0,0,0,1.86-.64,2.29,2.29,0,0,0,.85-1.54l0-.2c0-.19.13-.26.28-.23L100,22c.15,0,.23.11.23.23v.1a1.73,1.73,0,0,1,0,.31,3.62,3.62,0,0,1-1.4,2.46,4.74,4.74,0,0,1-3,1,4.52,4.52,0,0,1-3-1,4.18,4.18,0,0,1-1.44-2.69,25.51,25.51,0,0,1-.15-2.93c0-.86,0-1.83.15-2.9a4.14,4.14,0,0,1,1.44-2.66,4.58,4.58,0,0,1,3-1,4.75,4.75,0,0,1,3,1,3.58,3.58,0,0,1,1.43,2.4l.08.53Zm4.87,8.8a.22.22,0,0,1-.25.25h-1.29a.22.22,0,0,1-.25-.25V13.31c0-.17.08-.26.25-.26h1.29c.17,0,.25.09.25.26Zm.15-15.26a1.49,1.49,0,0,1-2,0,1.41,1.41,0,0,1-.39-1,1.44,1.44,0,0,1,2.42-1,1.36,1.36,0,0,1,.41,1A1.39,1.39,0,0,1,105.27,10.33Zm12.46,12A4,4,0,0,1,116.3,25a5.11,5.11,0,0,1-6.07,0,4.14,4.14,0,0,1-1.44-2.69,25,25,0,0,1-.16-2.93,23.69,23.69,0,0,1,.16-2.88,4.1,4.1,0,0,1,1.42-2.68,5.1,5.1,0,0,1,6.09,0,4.11,4.11,0,0,1,1.43,2.68,21,21,0,0,1,.15,2.88A21.4,21.4,0,0,1,117.73,22.35Zm12,3.24c0,.17-.09.25-.26.25h-1.29a.22.22,0,0,1-.25-.25V17.32a3.09,3.09,0,0,0-.68-2.09,2.34,2.34,0,0,0-1.87-.79,2.46,2.46,0,0,0-1.91.8,3.05,3.05,0,0,0-.72,2.13v8.22a.22.22,0,0,1-.25.25h-1.29a.22.22,0,0,1-.25-.25V13.31c0-.17.08-.26.25-.26h1.29c.17,0,.25.09.25.26v1a.08.08,0,0,0,0,.08s0,0,.09,0a3.39,3.39,0,0,1,3-1.46A3.57,3.57,0,0,1,128.71,14a4.4,4.4,0,0,1,1,3.07Zm13.59-.05a.31.31,0,0,1-.3.3h-3a.27.27,0,0,1-.21-.09.29.29,0,0,1-.09-.21V11.74a.21.21,0,0,0,0-.1.09.09,0,0,0-.09,0l-2.25.43-.1,0c-.15,0-.23-.09-.23-.28L137,9.62a.36.36,0,0,1,.22-.36l2.38-1a1.08,1.08,0,0,1,.38-.08H143a.31.31,0,0,1,.3.3Z"/><path d="M115.12,15.09a2.67,2.67,0,0,0-1.86-.67,2.59,2.59,0,0,0-1.84.67,2.85,2.85,0,0,0-.89,1.78,24.25,24.25,0,0,0-.1,2.58,24,24,0,0,0,.1,2.57,2.63,2.63,0,0,0,2.73,2.46,2.68,2.68,0,0,0,1.83-.67A2.81,2.81,0,0,0,116,22a24.55,24.55,0,0,0,.1-2.57,24.25,24.25,0,0,0-.1-2.58A2.78,2.78,0,0,0,115.12,15.09Z"/><polygon class="cls-1" points="33.03 24.96 33.03 0.5 0.5 0.5 0.5 24.96 23.57 24.96 23.57 31.34 27.58 24.96 33.03 24.96"/><line class="cls-2" x1="8.23" y1="12.6" x2="25.3" y2="12.6"/><line class="cls-2" x1="8.23" y1="7.14" x2="25.3" y2="7.14"/><line class="cls-2" x1="8.23" y1="18.06" x2="25.3" y2="18.06"/></g></g></svg>