<svg xmlns="http://www.w3.org/2000/svg" viewBox="0 0 155.33 34.01"><defs><style>.cls-1{fill:none;}.cls-1,.cls-2{stroke:#000;stroke-miterlimit:10;}.cls-2{fill:#fff;}</style></defs><title>Asset 171</title><g id="Layer_2" data-name="Layer 2"><g id="Layer_1-2" data-name="Layer 1"><path d="M84.07,20.15a3.64,3.64,0,0,0-2.3.67,2.27,2.27,0,0,0-.85,1.91,2,2,0,0,0,.65,1.65,2.62,2.62,0,0,0,1.72.54,3.57,3.57,0,0,0,2.19-.69,2.29,2.29,0,0,0,.92-1.93V20.25a.09.09,0,0,0-.1-.1Z"/><path d="M41,.5V34H155.33V.5Zm71.21,11,1.54-2.75A.38.38,0,0,1,114,8.6h1.08c.11,0,.17,0,.19.09a.21.21,0,0,1,0,.21l-1.75,2.76a.36.36,0,0,1-.3.17h-.86c-.1,0-.17,0-.2-.08A.2.2,0,0,1,112.17,11.53ZM58.1,9.91a.23.23,0,0,1-.26.26H50.26a.09.09,0,0,0-.1.1v6.26a.1.1,0,0,0,.1.11h5.11a.22.22,0,0,1,.25.25V18a.22.22,0,0,1-.25.25H50.26a.09.09,0,0,0-.1.1v6.32a.09.09,0,0,0,.1.1h7.58a.23.23,0,0,1,.26.25V26a.23.23,0,0,1-.26.25H48.62a.22.22,0,0,1-.25-.25V8.85a.22.22,0,0,1,.25-.25h9.22c.17,0,.26.08.26.25Zm9.78,15.54a4.7,4.7,0,0,1-3.11,1,5,5,0,0,1-3.14-.93,2.91,2.91,0,0,1-1.18-2.4v-.23a.22.22,0,0,1,.25-.25h1.24a.22.22,0,0,1,.25.25V23a1.76,1.76,0,0,0,.72,1.4,2.8,2.8,0,0,0,1.86.59,2.64,2.64,0,0,0,1.79-.58A1.8,1.8,0,0,0,67.24,23a1.5,1.5,0,0,0-.38-1.06,2.69,2.69,0,0,0-.93-.69c-.37-.16-.88-.36-1.54-.58a14.64,14.64,0,0,1-2-.81,3.76,3.76,0,0,1-1.33-1.12,3,3,0,0,1-.54-1.83,3.19,3.19,0,0,1,1.13-2.57,5.29,5.29,0,0,1,6.08,0,3.17,3.17,0,0,1,1.15,2.53v.05a.22.22,0,0,1-.25.25H67.5c-.17,0-.26-.08-.26-.25v-.1a1.78,1.78,0,0,0-.69-1.43,2.83,2.83,0,0,0-1.86-.57,2.69,2.69,0,0,0-1.75.54,1.73,1.73,0,0,0-.67,1.41,1.52,1.52,0,0,0,.67,1.34,9.79,9.79,0,0,0,2.11,1,15.44,15.44,0,0,1,2,.81A3.93,3.93,0,0,1,68.47,21,2.91,2.91,0,0,1,69,22.88,3.17,3.17,0,0,1,67.88,25.45ZM77,14.66a.23.23,0,0,1-.26.26h-2.4a.09.09,0,0,0-.1.1V22.6a2.31,2.31,0,0,0,.47,1.65,2,2,0,0,0,1.5.47h.43a.23.23,0,0,1,.26.25V26a.23.23,0,0,1-.26.25l-.78,0a4,4,0,0,1-2.5-.67,3,3,0,0,1-.86-2.49V15c0-.07,0-.1-.1-.1H71.08a.23.23,0,0,1-.25-.26v-.91a.23.23,0,0,1,.25-.25h1.27c.07,0,.1,0,.1-.1V10.52a.22.22,0,0,1,.25-.25h1.24a.22.22,0,0,1,.25.25V13.4a.09.09,0,0,0,.1.1h2.4a.23.23,0,0,1,.26.25ZM88.19,26a.22.22,0,0,1-.25.25H86.65A.22.22,0,0,1,86.4,26v-.91a.08.08,0,0,0,0-.08s0,0-.09,0a3.47,3.47,0,0,1-1.41,1.06,5.17,5.17,0,0,1-1.92.35,4.37,4.37,0,0,1-2.72-.86,3.3,3.3,0,0,1-1.12-2.8,3.7,3.7,0,0,1,1.3-3.07A5.48,5.48,0,0,1,84,18.71H86.3a.09.09,0,0,0,.1-.1v-1a3,3,0,0,0-.65-2,2.36,2.36,0,0,0-1.9-.74,2.67,2.67,0,0,0-1.65.49,2,2,0,0,0-.78,1.3.25.25,0,0,1-.28.23l-1.39-.08a.25.25,0,0,1-.19-.07.22.22,0,0,1,0-.18A3.33,3.33,0,0,1,80.9,14.2a4.81,4.81,0,0,1,3-.9A4.26,4.26,0,0,1,87,14.46a4.2,4.2,0,0,1,1.15,3.09Zm12.06-8.8a.26.26,0,0,1-.07.17.21.21,0,0,1-.16.06l-1.29.08a.27.27,0,0,1-.28-.23,1.85,1.85,0,0,0,0-.31,2.4,2.4,0,0,0-.88-1.51,2.71,2.71,0,0,0-1.83-.63,2.53,2.53,0,0,0-1.83.68A2.8,2.8,0,0,0,93,17.32a23.79,23.79,0,0,0-.12,2.58A24.19,24.19,0,0,0,93,22.5a2.76,2.76,0,0,0,.85,1.77,2.64,2.64,0,0,0,1.83.65,2.79,2.79,0,0,0,1.86-.63,2.29,2.29,0,0,0,.85-1.54l0-.2c0-.19.13-.26.28-.23l1.26.1c.16,0,.23.11.23.23v.1a1.53,1.53,0,0,1,0,.3,3.62,3.62,0,0,1-1.4,2.47,4.74,4.74,0,0,1-3,1,4.47,4.47,0,0,1-3-1,4.15,4.15,0,0,1-1.45-2.69,25.51,25.51,0,0,1-.15-2.93q0-1.29.15-2.91a4.08,4.08,0,0,1,1.45-2.65,4.53,4.53,0,0,1,3-1,4.73,4.73,0,0,1,3,1,3.58,3.58,0,0,1,1.43,2.4l.08.53Zm4.87,8.8a.22.22,0,0,1-.25.25h-1.29a.22.22,0,0,1-.25-.25V13.75a.22.22,0,0,1,.25-.25h1.29a.22.22,0,0,1,.25.25Zm.15-15.27a1.46,1.46,0,0,1-2,0,1.39,1.39,0,0,1-.39-1,1.44,1.44,0,0,1,2.42-1,1.46,1.46,0,0,1,0,2Zm12.46,12a4,4,0,0,1-1.43,2.69,5.11,5.11,0,0,1-6.07,0,4.18,4.18,0,0,1-1.44-2.69,25.15,25.15,0,0,1-.15-2.93,23.89,23.89,0,0,1,.15-2.88,4.07,4.07,0,0,1,1.42-2.68,5.1,5.1,0,0,1,6.09,0A4.09,4.09,0,0,1,117.73,17a20.87,20.87,0,0,1,.15,2.88A21.4,21.4,0,0,1,117.73,22.8Zm12,3.24a.23.23,0,0,1-.26.25h-1.29a.23.23,0,0,1-.25-.25V17.77a3.09,3.09,0,0,0-.68-2.09,2.34,2.34,0,0,0-1.87-.79,2.46,2.46,0,0,0-1.91.8,3.05,3.05,0,0,0-.72,2.13V26a.22.22,0,0,1-.25.25h-1.29A.22.22,0,0,1,121,26V13.75a.22.22,0,0,1,.25-.25h1.29a.22.22,0,0,1,.25.25v1a.09.09,0,0,0,0,.08s0,0,.09,0a3.39,3.39,0,0,1,3-1.47,3.58,3.58,0,0,1,2.79,1.13,4.4,4.4,0,0,1,1,3.07Zm18-3.09a4.57,4.57,0,0,1-1.8,2.61,5.66,5.66,0,0,1-3.28.91,5.52,5.52,0,0,1-3.31-1,4.75,4.75,0,0,1-1.8-2.76,4.46,4.46,0,0,1-.2-1.09v-.05c0-.17.09-.25.28-.25h3a.3.3,0,0,1,.33.3,1.32,1.32,0,0,0,.1.41,1.87,1.87,0,0,0,.58,1,1.54,1.54,0,0,0,1,.34,1.5,1.5,0,0,0,1-.37,1.66,1.66,0,0,0,.56-1,4.1,4.1,0,0,0,.18-1.31,5.05,5.05,0,0,0-.18-1.42,1.74,1.74,0,0,0-.58-.91,1.66,1.66,0,0,0-1-.3,1.61,1.61,0,0,0-1.62,1,.31.31,0,0,1-.33.25H137.7a.29.29,0,0,1-.22-.09.29.29,0,0,1-.09-.21V8.9a.29.29,0,0,1,.09-.21.29.29,0,0,1,.22-.09h9.65a.31.31,0,0,1,.3.3v2.45a.29.29,0,0,1-.09.22.29.29,0,0,1-.21.09h-6.27a.11.11,0,0,0-.12.12l0,4c0,.06,0,.1,0,.11a.09.09,0,0,0,.1,0,3.84,3.84,0,0,1,2.43-.78,4.41,4.41,0,0,1,2.56.71,4,4,0,0,1,1.53,2,8.41,8.41,0,0,1,.48,2.95A8.16,8.16,0,0,1,147.78,23Z"/><path d="M115.12,15.54a2.67,2.67,0,0,0-1.86-.67,2.59,2.59,0,0,0-1.84.67,2.82,2.82,0,0,0-.89,1.78,24.13,24.13,0,0,0-.1,2.58,24,24,0,0,0,.1,2.57,2.71,2.71,0,0,0,.87,1.78,2.67,2.67,0,0,0,1.86.67,2.63,2.63,0,0,0,1.83-.67,2.78,2.78,0,0,0,.9-1.78,24.55,24.55,0,0,0,.1-2.57,24.13,24.13,0,0,0-.1-2.58A2.75,2.75,0,0,0,115.12,15.54Z"/><polygon class="cls-1" points="33.03 24.96 33.03 0.5 0.5 0.5 0.5 24.96 23.57 24.96 23.57 31.34 27.58 24.96 33.03 24.96"/><line class="cls-2" x1="8.23" y1="12.6" x2="25.3" y2="12.6"/><line class="cls-2" x1="8.23" y1="7.14" x2="25.3" y2="7.14"/><line class="cls-2" x1="8.23" y1="18.06" x2="25.3" y2="18.06"/></g></g></svg>