<svg xmlns="http://www.w3.org/2000/svg" viewBox="0 0 223.94 55.57"><defs><style>.cls-1{fill:#fff;}.cls-2{fill:none;stroke:#fff;stroke-miterlimit:10;}</style></defs><title>Asset 230</title><g id="Layer_2" data-name="Layer 2"><g id="Layer_1-2" data-name="Layer 1"><path class="cls-1" d="M35.5,5.49a.29.29,0,0,1-.22.09H28.75a.12.12,0,0,0-.13.13V8.88a.12.12,0,0,0,.13.13h3.94a.31.31,0,0,1,.22.09.29.29,0,0,1,.08.22v3a.29.29,0,0,1-.08.22.31.31,0,0,1-.22.09H28.75a.12.12,0,0,0-.13.13v6.71a.32.32,0,0,1-.08.21.31.31,0,0,1-.22.09H24.71a.27.27,0,0,1-.21-.09.29.29,0,0,1-.09-.21V2.28a.29.29,0,0,1,.09-.22A.27.27,0,0,1,24.71,2H35.28a.31.31,0,0,1,.31.31v3A.29.29,0,0,1,35.5,5.49Z"/><path class="cls-1" d="M37,19.67a.29.29,0,0,1-.09-.21V2.28A.29.29,0,0,1,37,2.06.29.29,0,0,1,37.21,2h3.61a.31.31,0,0,1,.31.31V19.46a.29.29,0,0,1-.09.21.29.29,0,0,1-.22.09H37.21A.29.29,0,0,1,37,19.67Z"/><path class="cls-1" d="M51.14,19.51l-2.39-6.74c0-.07-.08-.1-.13-.1h-1c-.09,0-.13,0-.13.13v6.66a.29.29,0,0,1-.09.21.29.29,0,0,1-.22.09h-3.6a.29.29,0,0,1-.22-.09.29.29,0,0,1-.09-.21V2.28A.31.31,0,0,1,43.57,2h6.5a5.49,5.49,0,0,1,2.78.7,4.81,4.81,0,0,1,1.87,2,6,6,0,0,1,.66,2.87,5.57,5.57,0,0,1-.68,2.79,4.5,4.5,0,0,1-1.91,1.81c-.07,0-.09.06,0,.15l2.77,7.16a.51.51,0,0,1,0,.13c0,.15-.09.23-.28.23H51.47A.31.31,0,0,1,51.14,19.51ZM47.48,5.71V9.32c0,.08,0,.12.13.12h1.77a1.76,1.76,0,0,0,1.31-.5,1.93,1.93,0,0,0,.5-1.4,2,2,0,0,0-.5-1.44,1.74,1.74,0,0,0-1.31-.52H47.61C47.52,5.58,47.48,5.62,47.48,5.71Z"/><path class="cls-1" d="M59.71,19.33a5,5,0,0,1-2.11-1.79,4.83,4.83,0,0,1-.75-2.68v-.67a.29.29,0,0,1,.09-.21.29.29,0,0,1,.22-.09h3.56a.31.31,0,0,1,.3.3v.46a1.56,1.56,0,0,0,.56,1.21,2.17,2.17,0,0,0,1.5.5A1.62,1.62,0,0,0,64.27,16a1.35,1.35,0,0,0,.41-1,1.27,1.27,0,0,0-.29-.83,2.92,2.92,0,0,0-.8-.62c-.34-.19-.93-.49-1.76-.91a23.75,23.75,0,0,1-2.46-1.39,6.12,6.12,0,0,1-1.74-1.77,4.62,4.62,0,0,1-.72-2.61,4.82,4.82,0,0,1,.73-2.67A4.9,4.9,0,0,1,59.7,2.39a7.66,7.66,0,0,1,6.15,0A5.32,5.32,0,0,1,68,4.32a5.13,5.13,0,0,1,.77,2.79v.48a.27.27,0,0,1-.09.21.29.29,0,0,1-.21.09H64.91a.29.29,0,0,1-.22-.09.27.27,0,0,1-.09-.21V7.16a1.69,1.69,0,0,0-.53-1.26,2,2,0,0,0-1.45-.52,1.62,1.62,0,0,0-1.14.38,1.36,1.36,0,0,0-.41,1,1.4,1.4,0,0,0,.28.85,3.07,3.07,0,0,0,.88.73c.4.23,1,.56,1.82,1l.73.41A22.42,22.42,0,0,1,67,11.1a4.92,4.92,0,0,1,1.36,1.5,4.23,4.23,0,0,1,.54,2.21,4.65,4.65,0,0,1-1.64,3.77A6.48,6.48,0,0,1,62.9,20,7.53,7.53,0,0,1,59.71,19.33Z"/><path class="cls-1" d="M82.45,2.06a.29.29,0,0,1,.09.22v3a.29.29,0,0,1-.09.22.29.29,0,0,1-.21.09H78.43c-.09,0-.13,0-.13.12V19.46a.29.29,0,0,1-.09.21.29.29,0,0,1-.22.09h-3.6a.29.29,0,0,1-.22-.09.29.29,0,0,1-.09-.21V5.73c0-.08,0-.12-.13-.12H70.3A.31.31,0,0,1,70,5.3v-3A.31.31,0,0,1,70.3,2H82.24A.29.29,0,0,1,82.45,2.06Z"/><path class="cls-1" d="M99.67,18.49a6.58,6.58,0,0,1-4.19,1.27h-6a.27.27,0,0,1-.21-.09.29.29,0,0,1-.09-.21V2.28a.29.29,0,0,1,.09-.22A.27.27,0,0,1,89.53,2h5.52a7.11,7.11,0,0,1,4.42,1.21A4.45,4.45,0,0,1,101,6.93a3.92,3.92,0,0,1-1.78,3.56q-.15.07,0,.15a4.52,4.52,0,0,1,2.09,4.11A4.47,4.47,0,0,1,99.67,18.49ZM93.44,5.71V8.94c0,.08,0,.12.13.12h1.5a1.93,1.93,0,0,0,1.36-.44,1.71,1.71,0,0,0,.47-1.28A1.71,1.71,0,0,0,96.42,6a1.86,1.86,0,0,0-1.35-.46h-1.5A.12.12,0,0,0,93.44,5.71Zm3.17,9.92a2,2,0,0,0,.47-1.41,2,2,0,0,0-.46-1.4,1.65,1.65,0,0,0-1.3-.51H93.57a.12.12,0,0,0-.13.13V16a.12.12,0,0,0,.13.13H95.3A1.73,1.73,0,0,0,96.61,15.63Z"/><path class="cls-1" d="M112.06,2.49a5.27,5.27,0,0,1,2.11,2.05,6.08,6.08,0,0,1,.75,3.05V19.46a.29.29,0,0,1-.09.21.29.29,0,0,1-.22.09H111a.31.31,0,0,1-.3-.3V16.13h-3.64v3.33a.32.32,0,0,1-.08.21.31.31,0,0,1-.22.09h-3.61a.27.27,0,0,1-.21-.09.29.29,0,0,1-.09-.21V7.59a6.08,6.08,0,0,1,.75-3,5.17,5.17,0,0,1,2.12-2,7.34,7.34,0,0,1,6.34,0Zm-1.36,5A2.13,2.13,0,0,0,110.2,6a1.66,1.66,0,0,0-1.31-.56,1.71,1.71,0,0,0-1.32.56,2.09,2.09,0,0,0-.51,1.45v5.21h3.64Z"/><path class="cls-1" d="M119.17,19.33a5,5,0,0,1-2.11-1.79,4.83,4.83,0,0,1-.75-2.68v-.67a.29.29,0,0,1,.09-.21.29.29,0,0,1,.22-.09h3.56a.31.31,0,0,1,.3.3v.46a1.56,1.56,0,0,0,.56,1.21,2.17,2.17,0,0,0,1.5.5,1.62,1.62,0,0,0,1.19-.41,1.35,1.35,0,0,0,.41-1,1.27,1.27,0,0,0-.29-.83,2.92,2.92,0,0,0-.8-.62c-.34-.19-.93-.49-1.76-.91a23.75,23.75,0,0,1-2.46-1.39,6.12,6.12,0,0,1-1.74-1.77,4.62,4.62,0,0,1-.73-2.61,4.82,4.82,0,0,1,.74-2.67,4.9,4.9,0,0,1,2.06-1.77,7.66,7.66,0,0,1,6.15,0,5.32,5.32,0,0,1,2.15,1.88,5.13,5.13,0,0,1,.77,2.79v.48a.27.27,0,0,1-.09.21.29.29,0,0,1-.21.09h-3.56a.29.29,0,0,1-.22-.09.27.27,0,0,1-.09-.21V7.16a1.69,1.69,0,0,0-.53-1.26,2,2,0,0,0-1.45-.52,1.62,1.62,0,0,0-1.14.38,1.36,1.36,0,0,0-.41,1,1.34,1.34,0,0,0,.28.85,3.07,3.07,0,0,0,.88.73c.4.23,1,.56,1.81,1l.74.41a23.71,23.71,0,0,1,2.19,1.35,4.92,4.92,0,0,1,1.36,1.5,4.23,4.23,0,0,1,.54,2.21,4.65,4.65,0,0,1-1.64,3.77A6.48,6.48,0,0,1,122.36,20,7.53,7.53,0,0,1,119.17,19.33Z"/><path class="cls-1" d="M141.13,5.49a.29.29,0,0,1-.22.09h-6.56c-.08,0-.12,0-.12.13V8.88c0,.09,0,.13.12.13h4a.31.31,0,0,1,.22.09.33.33,0,0,1,.08.22v3a.33.33,0,0,1-.08.22.31.31,0,0,1-.22.09h-4c-.08,0-.12,0-.12.13V16c0,.09,0,.13.12.13h6.56a.31.31,0,0,1,.31.31v3a.29.29,0,0,1-.09.21.29.29,0,0,1-.22.09h-10.6a.31.31,0,0,1-.3-.3V2.28a.29.29,0,0,1,.09-.22.29.29,0,0,1,.21-.09h10.6a.31.31,0,0,1,.31.31v3A.29.29,0,0,1,141.13,5.49Z"/><path class="cls-1" d="M153.13,2h3.59a.29.29,0,0,1,.21.09.29.29,0,0,1,.09.22V19.46a.31.31,0,0,1-.3.3h-3.61a.29.29,0,0,1-.22-.09.29.29,0,0,1-.09-.21V8.91c0-.07,0-.11-.05-.11s-.07,0-.1.06l-2,3.3a.37.37,0,0,1-.36.21h-.71a.35.35,0,0,1-.35-.21l-2-3.3s-.06-.07-.1-.06,0,0,0,.11V19.46a.31.31,0,0,1-.3.3H143.2a.29.29,0,0,1-.22-.09.29.29,0,0,1-.09-.21V2.28A.31.31,0,0,1,143.2,2h3.58a.37.37,0,0,1,.36.21l2.74,4.62q.08.15.15,0l2.75-4.62A.35.35,0,0,1,153.13,2Z"/><path class="cls-1" d="M170.22,5.49a.29.29,0,0,1-.21.09h-6.56c-.09,0-.13,0-.13.13V8.88c0,.09,0,.13.13.13h4a.31.31,0,0,1,.31.31v3a.31.31,0,0,1-.31.31h-4c-.09,0-.13,0-.13.13V16c0,.09,0,.13.13.13H170a.29.29,0,0,1,.21.09.29.29,0,0,1,.09.22v3a.31.31,0,0,1-.3.3h-10.6a.29.29,0,0,1-.22-.09.29.29,0,0,1-.09-.21V2.28a.31.31,0,0,1,.31-.31H170a.29.29,0,0,1,.21.09.29.29,0,0,1,.09.22v3A.29.29,0,0,1,170.22,5.49Z"/><path class="cls-1" d="M180.82,2.06A.29.29,0,0,1,181,2h3.61a.31.31,0,0,1,.31.31V19.46a.29.29,0,0,1-.09.21.29.29,0,0,1-.22.09h-3.76a.37.37,0,0,1-.36-.23l-4.19-9.4c0-.05-.07-.07-.1-.06s0,0,0,.11l0,9.28a.31.31,0,0,1-.3.3h-3.59a.31.31,0,0,1-.3-.3V2.28a.29.29,0,0,1,.09-.22.29.29,0,0,1,.21-.09h3.74a.35.35,0,0,1,.35.23l4.17,9.35a.14.14,0,0,0,.1.08s.05,0,.05-.1l0-9.25A.29.29,0,0,1,180.82,2.06Z"/><path class="cls-1" d="M199,2.06a.33.33,0,0,1,.08.22v3a.33.33,0,0,1-.08.22.31.31,0,0,1-.22.09H195c-.09,0-.13,0-.13.12V19.46a.31.31,0,0,1-.3.3H191a.29.29,0,0,1-.22-.09.29.29,0,0,1-.09-.21V5.73a.11.11,0,0,0-.12-.12h-3.66a.31.31,0,0,1-.31-.31v-3a.31.31,0,0,1,.31-.31h11.94A.31.31,0,0,1,199,2.06Z"/><path class="cls-1" d="M17.25,54.31a4.29,4.29,0,0,1-1.41-3.37v-.68c0-.17.09-.25.26-.25h1.24c.17,0,.26.08.26.25v.58a2.94,2.94,0,0,0,1,2.29,3.68,3.68,0,0,0,2.57.86,3.32,3.32,0,0,0,2.36-.81,2.77,2.77,0,0,0,.86-2.13,2.71,2.71,0,0,0-.4-1.5,4,4,0,0,0-1.2-1.17c-.52-.36-1.28-.81-2.26-1.35A24.74,24.74,0,0,1,18,45.56,5.29,5.29,0,0,1,16.55,44,4.25,4.25,0,0,1,16,41.77a4.1,4.1,0,0,1,1.33-3.23,5.16,5.16,0,0,1,3.53-1.16,5.33,5.33,0,0,1,3.76,1.29A4.48,4.48,0,0,1,26,42.1v.59c0,.17-.09.25-.26.25H24.48a.22.22,0,0,1-.25-.25v-.56a3,3,0,0,0-.92-2.3A3.46,3.46,0,0,0,20.8,39a3.19,3.19,0,0,0-2.23.74,2.69,2.69,0,0,0-.8,2.08,2.63,2.63,0,0,0,.38,1.45,3.93,3.93,0,0,0,1.11,1.07q.72.48,2.22,1.29a28.26,28.26,0,0,1,2.66,1.64,5.52,5.52,0,0,1,1.47,1.55,4,4,0,0,1,.55,2.15,4.39,4.39,0,0,1-1.37,3.39,5.32,5.32,0,0,1-3.74,1.26A5.5,5.5,0,0,1,17.25,54.31Z"/><path class="cls-1" d="M38.89,39.15H31.27a.1.1,0,0,0-.11.11v6.3c0,.07,0,.1.11.1H36.4a.22.22,0,0,1,.25.25V47a.22.22,0,0,1-.25.25H31.27a.1.1,0,0,0-.11.11v6.35c0,.07,0,.1.11.1h7.62a.22.22,0,0,1,.25.25v1.07c0,.17-.08.26-.25.26H29.62a.23.23,0,0,1-.26-.26V37.83c0-.17.09-.25.26-.25h9.27a.22.22,0,0,1,.25.25V38.9A.22.22,0,0,1,38.89,39.15Z"/><path class="cls-1" d="M43.43,54.2A4.82,4.82,0,0,1,42,50.56v-8.2a4.75,4.75,0,0,1,1.41-3.62,5.12,5.12,0,0,1,3.72-1.36,5.23,5.23,0,0,1,3.75,1.34,4.73,4.73,0,0,1,1.41,3.59v.22a.23.23,0,0,1-.26.26l-1.29.05c-.17,0-.26-.08-.26-.23v-.35a3.19,3.19,0,0,0-.93-2.39,3.67,3.67,0,0,0-4.84,0,3.23,3.23,0,0,0-.91,2.41v8.43a3.21,3.21,0,0,0,.91,2.4,3.31,3.31,0,0,0,2.42.9,3.27,3.27,0,0,0,2.42-.91,3.21,3.21,0,0,0,.93-2.39v-.35c0-.16.09-.23.26-.23l1.29.07a.23.23,0,0,1,.26.26v.17a4.77,4.77,0,0,1-1.41,3.6,5.16,5.16,0,0,1-3.75,1.36A5.12,5.12,0,0,1,43.43,54.2Z"/><path class="cls-1" d="M57.86,54.92A4.55,4.55,0,0,1,56,53.11a5.5,5.5,0,0,1-.65-2.7V42.56A5.57,5.57,0,0,1,56,39.85,4.6,4.6,0,0,1,57.86,38a6.14,6.14,0,0,1,5.46,0,4.69,4.69,0,0,1,1.84,1.83,5.47,5.47,0,0,1,.66,2.71v7.85a5.4,5.4,0,0,1-.66,2.7,4.64,4.64,0,0,1-1.84,1.81,6.06,6.06,0,0,1-5.46,0ZM63.08,53A3.48,3.48,0,0,0,64,50.49v-8a3.55,3.55,0,0,0-.94-2.58,3.63,3.63,0,0,0-5,0,3.59,3.59,0,0,0-.94,2.58v8A3.52,3.52,0,0,0,58.12,53a3.68,3.68,0,0,0,5,0Z"/><path class="cls-1" d="M78.66,37.58H80c.17,0,.26.08.26.25V55.11a.23.23,0,0,1-.26.26H78.58a.32.32,0,0,1-.31-.18l-6.81-13.6a.15.15,0,0,0-.08-.05s0,0,0,.08l0,13.49c0,.17-.08.26-.25.26h-1.3c-.17,0-.25-.09-.25-.26V37.83a.22.22,0,0,1,.25-.25h1.37a.3.3,0,0,1,.31.18L78.3,51.4a.11.11,0,0,0,.09.05s0,0,0-.07l0-13.55C78.4,37.66,78.49,37.58,78.66,37.58Z"/><path class="cls-1" d="M84.25,55.11V37.83a.22.22,0,0,1,.25-.25h5A4.86,4.86,0,0,1,93,38.87a4.75,4.75,0,0,1,1.31,3.54v8.13A4.71,4.71,0,0,1,93,54.07a4.86,4.86,0,0,1-3.57,1.3h-5C84.33,55.37,84.25,55.28,84.25,55.11Zm1.9-1.32h3.33a2.92,2.92,0,0,0,2.21-.93,3.66,3.66,0,0,0,.84-2.47V42.56a3.62,3.62,0,0,0-.81-2.49,2.86,2.86,0,0,0-2.24-.92H86.15c-.07,0-.1,0-.1.11V53.69C86.05,53.76,86.08,53.79,86.15,53.79Z"/><path class="cls-1" d="M110.8,46.22a4.23,4.23,0,0,1,1.84,1.68,5.19,5.19,0,0,1,.67,2.64A4.63,4.63,0,0,1,112,54.1a5.06,5.06,0,0,1-3.59,1.27h-5c-.17,0-.25-.09-.25-.26V37.83a.22.22,0,0,1,.25-.25h4.81a5.23,5.23,0,0,1,3.66,1.21,4.42,4.42,0,0,1,1.32,3.44,4.46,4.46,0,0,1-.6,2.39,3.83,3.83,0,0,1-1.74,1.47C110.71,46.13,110.71,46.17,110.8,46.22Zm-5.9-7v6.12c0,.07,0,.1.11.1h3.17a3.19,3.19,0,0,0,2.33-.84,3.05,3.05,0,0,0,.85-2.26,3.25,3.25,0,0,0-.85-2.36,3.12,3.12,0,0,0-2.33-.87H105A.1.1,0,0,0,104.9,39.26Zm5.75,13.59a3.5,3.5,0,0,0,.86-2.49,3.43,3.43,0,0,0-.88-2.51,3.08,3.08,0,0,0-2.37-.92H105c-.07,0-.11,0-.11.1v6.63a.1.1,0,0,0,.11.11h3.3A3.08,3.08,0,0,0,110.65,52.85Z"/><path class="cls-1" d="M123.26,38.06a4.55,4.55,0,0,1,1.83,1.86,5.73,5.73,0,0,1,.65,2.77V55.11c0,.17-.08.26-.25.26h-1.3c-.17,0-.25-.09-.25-.26l0-4.85h-6.83v4.85a.23.23,0,0,1-.26.26h-1.29a.23.23,0,0,1-.26-.26V42.69a5.73,5.73,0,0,1,.65-2.77,4.55,4.55,0,0,1,1.83-1.86,6,6,0,0,1,5.46,0Zm.68,10.5v-6A3.67,3.67,0,0,0,123,40a3.25,3.25,0,0,0-2.47-1,3.22,3.22,0,0,0-2.46,1,3.63,3.63,0,0,0-.94,2.62v6Z"/><path class="cls-1" d="M128.9,54.31a4.29,4.29,0,0,1-1.41-3.37v-.68c0-.17.09-.25.26-.25H129c.17,0,.26.08.26.25v.58a2.94,2.94,0,0,0,1,2.29,3.7,3.7,0,0,0,2.57.86,3.3,3.3,0,0,0,2.36-.81,2.77,2.77,0,0,0,.87-2.13,2.72,2.72,0,0,0-.41-1.5,4,4,0,0,0-1.19-1.17c-.53-.36-1.28-.81-2.27-1.35a24.74,24.74,0,0,1-2.47-1.47A5.29,5.29,0,0,1,128.2,44a4.25,4.25,0,0,1-.55-2.24A4.1,4.1,0,0,1,129,38.54a5.18,5.18,0,0,1,3.53-1.16,5.33,5.33,0,0,1,3.76,1.29,4.48,4.48,0,0,1,1.4,3.43v.59c0,.17-.09.25-.26.25h-1.27a.22.22,0,0,1-.25-.25v-.56a3,3,0,0,0-.92-2.3,3.45,3.45,0,0,0-2.51-.88,3.19,3.19,0,0,0-2.23.74,2.69,2.69,0,0,0-.8,2.08,2.55,2.55,0,0,0,.39,1.45,3.76,3.76,0,0,0,1.1,1.07q.72.48,2.22,1.29a28.26,28.26,0,0,1,2.66,1.64,5.52,5.52,0,0,1,1.47,1.55,4,4,0,0,1,.55,2.15,4.39,4.39,0,0,1-1.37,3.39,5.32,5.32,0,0,1-3.74,1.26A5.5,5.5,0,0,1,128.9,54.31Z"/><path class="cls-1" d="M150.54,39.15h-7.62c-.07,0-.1,0-.1.11v6.3c0,.07,0,.1.1.1h5.13a.22.22,0,0,1,.25.25V47a.22.22,0,0,1-.25.25h-5.13c-.07,0-.1,0-.1.11v6.35c0,.07,0,.1.1.1h7.62a.22.22,0,0,1,.25.25v1.07c0,.17-.08.26-.25.26h-9.27a.23.23,0,0,1-.26-.26V37.83c0-.17.09-.25.26-.25h9.27a.22.22,0,0,1,.25.25V38.9A.22.22,0,0,1,150.54,39.15Z"/><path class="cls-1" d="M164.08,37.58h1.33a.22.22,0,0,1,.25.25V55.11a.23.23,0,0,1-.25.26h-1.3a.23.23,0,0,1-.26-.26V41.29s0-.09,0-.1-.06,0-.07.05l-3.38,5.87a.38.38,0,0,1-.31.18h-.28a.37.37,0,0,1-.3-.18l-3.41-5.85s0-.06-.07,0,0,0,0,.1v13.8a.23.23,0,0,1-.26.26h-1.29a.23.23,0,0,1-.26-.26V37.83c0-.17.09-.25.26-.25h1.32a.35.35,0,0,1,.3.18l3.84,6.53a.15.15,0,0,0,.08,0l.07,0,3.79-6.53A.37.37,0,0,1,164.08,37.58Z"/><path class="cls-1" d="M179.38,39.15h-7.62c-.07,0-.1,0-.1.11v6.3c0,.07,0,.1.1.1h5.13a.22.22,0,0,1,.25.25V47a.22.22,0,0,1-.25.25h-5.13c-.07,0-.1,0-.1.11v6.35c0,.07,0,.1.1.1h7.62a.22.22,0,0,1,.25.25v1.07c0,.17-.08.26-.25.26h-9.27a.23.23,0,0,1-.26-.26V37.83c0-.17.09-.25.26-.25h9.27a.22.22,0,0,1,.25.25V38.9A.22.22,0,0,1,179.38,39.15Z"/><path class="cls-1" d="M192.09,37.58h1.29c.17,0,.26.08.26.25V55.11a.23.23,0,0,1-.26.26H192a.31.31,0,0,1-.31-.18l-6.81-13.6a.15.15,0,0,0-.08-.05s0,0,0,.08l0,13.49c0,.17-.08.26-.25.26h-1.3c-.17,0-.25-.09-.25-.26V37.83a.22.22,0,0,1,.25-.25h1.37a.3.3,0,0,1,.31.18l6.81,13.64a.11.11,0,0,0,.09.05s0,0,0-.07l0-13.55C191.83,37.66,191.92,37.58,192.09,37.58Z"/><path class="cls-1" d="M207.36,37.83V38.9c0,.17-.09.25-.26.25H203c-.07,0-.1,0-.1.11V55.11a.23.23,0,0,1-.26.26h-1.29a.23.23,0,0,1-.26-.26V39.26c0-.07,0-.11-.1-.11h-4a.22.22,0,0,1-.25-.25V37.83a.22.22,0,0,1,.25-.25H207.1C207.27,37.58,207.36,37.66,207.36,37.83Z"/><line class="cls-2" x1="0.5" x2="0.5" y2="20.82"/><line class="cls-2" x1="223.44" x2="223.44" y2="20.82"/></g></g></svg>