<svg xmlns="http://www.w3.org/2000/svg" viewBox="0 0 155.18 33.51"><defs><style>.cls-1{fill:#fff;}</style></defs><title>Asset 186</title><g id="Layer_2" data-name="Layer 2"><g id="Layer_1-2" data-name="Layer 1"><rect class="cls-1" y="17.07" width="32.53" height="16.43"/><polygon points="2.68 0.95 29.85 0.95 23.05 12.71 16.27 24.48 2.68 0.95"/><path class="cls-1" d="M29,1.45l-6.36,11-6.35,11-6.37-11-6.35-11H29m1.74-1H1.82L9,13l7.23,12.52L23.49,13,30.72.45Z"/><path class="cls-1" d="M92.86,15.52a1.72,1.72,0,0,0-1.18-.42,1.67,1.67,0,0,0-1.16.42,2,2,0,0,0-.6,1.15,14,14,0,0,0-.12,2.06,17.14,17.14,0,0,0,.1,2.09A2.09,2.09,0,0,0,90.53,22a1.72,1.72,0,0,0,1.17.43A1.64,1.64,0,0,0,92.83,22a2.08,2.08,0,0,0,.62-1.17,16.75,16.75,0,0,0,.13-2.09,15.72,15.72,0,0,0-.13-2.06A1.91,1.91,0,0,0,92.86,15.52Z"/><path class="cls-1" d="M40.81,0V33.51H155.18V0ZM82.3,10.73V25a.31.31,0,0,1-.31.31H79a.31.31,0,0,1-.31-.31V10.73c0-.09,0-.13-.12-.13H74.85a.29.29,0,0,1-.21-.09.29.29,0,0,1-.09-.22V7.8a.31.31,0,0,1,.3-.3H86.29a.31.31,0,0,1,.3.3v2.49a.29.29,0,0,1-.09.22.29.29,0,0,1-.21.09H82.42C82.34,10.6,82.3,10.64,82.3,10.73ZM97,21.32a4.57,4.57,0,0,1-1.66,3.07,5.66,5.66,0,0,1-3.6,1.1,5.74,5.74,0,0,1-3.62-1.1,4.54,4.54,0,0,1-1.69-3,14.93,14.93,0,0,1-.2-2.62,14.77,14.77,0,0,1,.2-2.62,4.5,4.5,0,0,1,1.69-3A5.68,5.68,0,0,1,91.7,12a5.52,5.52,0,0,1,3.57,1.11,4.58,4.58,0,0,1,1.69,3,14.71,14.71,0,0,1,.21,2.62A14.6,14.6,0,0,1,97,21.32ZM109.54,25a.29.29,0,0,1-.09.22.29.29,0,0,1-.21.09h-3a.29.29,0,0,1-.21-.09A.29.29,0,0,1,106,25v-.63c0-.05,0-.08,0-.09a.09.09,0,0,0-.1,0,3.17,3.17,0,0,1-2.72,1.17,3.75,3.75,0,0,1-4-4.12V12.53a.31.31,0,0,1,.09-.22.33.33,0,0,1,.22-.08h3a.35.35,0,0,1,.22.08.31.31,0,0,1,.09.22v8a2.14,2.14,0,0,0,.41,1.4,1.62,1.62,0,0,0,2.39,0,2.12,2.12,0,0,0,.45-1.42V12.53a.31.31,0,0,1,.09-.22.32.32,0,0,1,.21-.08h3a.32.32,0,0,1,.21.08.31.31,0,0,1,.09.22Zm9.38-9.3q0,.32-.36.18a2.89,2.89,0,0,0-.73-.1,2.59,2.59,0,0,0-.66.08,1.87,1.87,0,0,0-1.25.71,2.19,2.19,0,0,0-.51,1.47v7a.29.29,0,0,1-.09.22.29.29,0,0,1-.21.09h-3a.29.29,0,0,1-.21-.09.29.29,0,0,1-.09-.22V12.53a.31.31,0,0,1,.09-.22.32.32,0,0,1,.21-.08h3a.32.32,0,0,1,.21.08.31.31,0,0,1,.09.22v1c0,.07,0,.1,0,.11s0,0,.09-.06A2.75,2.75,0,0,1,118,12.05a2.56,2.56,0,0,1,1.24.3.37.37,0,0,1,.16.41Z"/></g></g></svg>