<svg xmlns="http://www.w3.org/2000/svg" viewBox="0 0 155.33 33.56"><defs><style>.cls-1{fill:none;stroke:#000;stroke-miterlimit:10;}</style></defs><title>Asset 197</title><g id="Layer_2" data-name="Layer 2"><g id="Layer_1-2" data-name="Layer 1"><path d="M80.93,19.7a3.62,3.62,0,0,0-2.3.67,2.29,2.29,0,0,0-.86,1.91,2,2,0,0,0,.66,1.65,2.63,2.63,0,0,0,1.72.55,3.53,3.53,0,0,0,2.18-.7,2.27,2.27,0,0,0,.92-1.93V19.8c0-.07,0-.1-.1-.1Z"/><path d="M41,.05V33.56H155.33V.05ZM64.35,24.79A5.26,5.26,0,0,1,60.64,26a5.44,5.44,0,0,1-3.78-1.25,4.27,4.27,0,0,1-1.4-3.35v-.68a.22.22,0,0,1,.25-.25H57a.22.22,0,0,1,.25.25v.58a2.92,2.92,0,0,0,1,2.28,3.69,3.69,0,0,0,2.55.86,3.27,3.27,0,0,0,2.35-.81,2.77,2.77,0,0,0,.86-2.13,2.7,2.7,0,0,0-.4-1.49,4.26,4.26,0,0,0-1.19-1.16c-.52-.35-1.27-.8-2.25-1.34a23.88,23.88,0,0,1-2.46-1.46,5.26,5.26,0,0,1-1.46-1.55,4.15,4.15,0,0,1-.55-2.22,4.1,4.1,0,0,1,1.31-3.21A5.15,5.15,0,0,1,60.44,8a5.3,5.3,0,0,1,3.74,1.29,4.45,4.45,0,0,1,1.39,3.41v.58c0,.17-.09.25-.26.25H64.05a.22.22,0,0,1-.25-.25v-.56a3,3,0,0,0-.91-2.28,3.47,3.47,0,0,0-2.5-.87,3.15,3.15,0,0,0-2.22.73,2.68,2.68,0,0,0-.79,2.07,2.54,2.54,0,0,0,.38,1.44,3.73,3.73,0,0,0,1.1,1.06c.48.32,1.21.75,2.21,1.29a28.3,28.3,0,0,1,2.64,1.63,5.59,5.59,0,0,1,1.46,1.54,3.92,3.92,0,0,1,.55,2.14A4.35,4.35,0,0,1,64.35,24.79ZM73.8,14.22a.22.22,0,0,1-.25.25h-2.4c-.07,0-.1,0-.1.1v7.58a2.29,2.29,0,0,0,.47,1.66,2.06,2.06,0,0,0,1.5.46h.43c.17,0,.25.09.25.26v1.06a.22.22,0,0,1-.25.25l-.78,0a4.08,4.08,0,0,1-2.51-.67,3,3,0,0,1-.85-2.49V14.57c0-.07,0-.1-.11-.1H67.94a.22.22,0,0,1-.25-.25v-.91c0-.17.08-.26.25-.26H69.2c.07,0,.11,0,.11-.1V10.07a.22.22,0,0,1,.25-.25H70.8a.22.22,0,0,1,.25.25V13c0,.07,0,.1.1.1h2.4c.17,0,.25.09.25.26ZM85.05,25.59a.22.22,0,0,1-.25.25H83.51c-.17,0-.26-.08-.26-.25v-.91a.1.1,0,0,0,0-.08.07.07,0,0,0-.09,0,3.43,3.43,0,0,1-1.42,1.06,5.09,5.09,0,0,1-1.92.35,4.27,4.27,0,0,1-2.71-.86A3.29,3.29,0,0,1,76,22.38a3.7,3.7,0,0,1,1.3-3.07,5.5,5.5,0,0,1,3.55-1h2.35c.07,0,.1,0,.1-.1v-1a3,3,0,0,0-.64-2,2.41,2.41,0,0,0-1.91-.74,2.64,2.64,0,0,0-1.64.49,1.92,1.92,0,0,0-.78,1.3.25.25,0,0,1-.28.23l-1.39-.08a.22.22,0,0,1-.19-.07.19.19,0,0,1,0-.18,3.34,3.34,0,0,1,1.38-2.36,4.81,4.81,0,0,1,3-.9A4.29,4.29,0,0,1,83.9,14a4.24,4.24,0,0,1,1.15,3.09Zm8.34-11.37a.23.23,0,0,1-.26.25h-2.4a.09.09,0,0,0-.1.1v7.58a2.34,2.34,0,0,0,.47,1.66,2.06,2.06,0,0,0,1.5.46H93a.23.23,0,0,1,.26.26v1.06c0,.17-.09.25-.26.25l-.78,0a4,4,0,0,1-2.5-.67,3,3,0,0,1-.86-2.49V14.57c0-.07,0-.1-.1-.1H87.52a.23.23,0,0,1-.25-.25v-.91a.23.23,0,0,1,.25-.26h1.27c.07,0,.1,0,.1-.1V10.07a.22.22,0,0,1,.25-.25h1.24a.22.22,0,0,1,.25.25V13a.09.09,0,0,0,.1.1h2.4a.23.23,0,0,1,.26.26Zm4.85,11.37a.22.22,0,0,1-.25.25H96.7c-.17,0-.26-.08-.26-.25V13.31a.23.23,0,0,1,.26-.26H98a.23.23,0,0,1,.25.26Zm.15-15.26a1.41,1.41,0,0,1-1,.4A1.37,1.37,0,0,1,96,9.31a1.35,1.35,0,0,1,.4-1,1.38,1.38,0,0,1,1-.39,1.4,1.4,0,0,1,1,.39,1.35,1.35,0,0,1,.4,1A1.38,1.38,0,0,1,98.39,10.33Zm12.46,12A4,4,0,0,1,109.42,25a5.12,5.12,0,0,1-6.08,0,4.18,4.18,0,0,1-1.44-2.69,25.15,25.15,0,0,1-.15-2.93,23.89,23.89,0,0,1,.15-2.88,4.11,4.11,0,0,1,1.43-2.68,5.1,5.1,0,0,1,6.09,0,4.11,4.11,0,0,1,1.43,2.68,21,21,0,0,1,.15,2.88A21.4,21.4,0,0,1,110.85,22.35ZM123,25.59c0,.17-.09.25-.26.25h-1.28c-.17,0-.26-.08-.26-.25V17.32a3,3,0,0,0-.68-2.09,2.36,2.36,0,0,0-1.87-.79,2.46,2.46,0,0,0-1.91.8,3.05,3.05,0,0,0-.72,2.13v8.22a.22.22,0,0,1-.25.25h-1.29a.22.22,0,0,1-.25-.25V13.31c0-.17.08-.26.25-.26h1.29c.17,0,.25.09.25.26v1a.1.1,0,0,0,0,.08.07.07,0,0,0,.09,0,3.42,3.42,0,0,1,3-1.46A3.57,3.57,0,0,1,122,14a4.35,4.35,0,0,1,1,3.07Zm18-3a4.47,4.47,0,0,1-1.77,2.52A5.59,5.59,0,0,1,136,26a5.43,5.43,0,0,1-2.83-.7,4.14,4.14,0,0,1-1.77-2l0-.06s0-.05-.06-.09a5.31,5.31,0,0,1-.66-2.75l0-7.91a4.14,4.14,0,0,1,1.44-3.31A5.62,5.62,0,0,1,135.86,8a5.37,5.37,0,0,1,3.69,1.24A4.12,4.12,0,0,1,141,12.47v.74a.31.31,0,0,1-.3.3h-3a.27.27,0,0,1-.21-.09.29.29,0,0,1-.09-.21v-.38a1.82,1.82,0,0,0-.45-1.28,1.4,1.4,0,0,0-1.1-.49,1.61,1.61,0,0,0-1.2.5,1.84,1.84,0,0,0-.46,1.29v2.43c0,.05,0,.08.05.1a.07.07,0,0,0,.1,0,3.34,3.34,0,0,1,2.27-.81,4.33,4.33,0,0,1,2.61.8,4.6,4.6,0,0,1,1.59,2.19,7,7,0,0,1,.5,2.73A7.29,7.29,0,0,1,141,22.61Z"/><path d="M108.23,15.09a2.89,2.89,0,0,0-3.7,0,2.84,2.84,0,0,0-.88,1.78,24.25,24.25,0,0,0-.1,2.58,24,24,0,0,0,.1,2.57,2.77,2.77,0,0,0,4.56,1.79A2.85,2.85,0,0,0,109.1,22a24.06,24.06,0,0,0,.11-2.57,23.74,23.74,0,0,0-.11-2.58A2.69,2.69,0,0,0,108.23,15.09Z"/><path d="M135.94,17.43a1.48,1.48,0,0,0-1.49,1.06,4.7,4.7,0,0,0-.25,1.72,5.93,5.93,0,0,0,.17,1.49A1.52,1.52,0,0,0,135.94,23a1.59,1.59,0,0,0,1.59-1.29,5.8,5.8,0,0,0,.18-1.49,4.86,4.86,0,0,0-.25-1.69A1.5,1.5,0,0,0,135.94,17.43Z"/><polygon class="cls-1" points="33.03 24.96 33.03 0.5 0.5 0.5 0.5 24.96 23.57 24.96 23.57 31.34 27.58 24.96 33.03 24.96"/><line class="cls-1" x1="8.23" y1="12.6" x2="25.3" y2="12.6"/><line class="cls-1" x1="8.23" y1="7.14" x2="25.3" y2="7.14"/><line class="cls-1" x1="8.23" y1="18.06" x2="25.3" y2="18.06"/></g></g></svg>