<svg xmlns="http://www.w3.org/2000/svg" viewBox="0 0 223.94 55.05"><defs><style>.cls-1{fill:#fff;}.cls-2{fill:none;stroke:#fff;stroke-miterlimit:10;}</style></defs><title>Asset 229</title><g id="Layer_2" data-name="Layer 2"><g id="Layer_1-2" data-name="Layer 1"><path class="cls-1" d="M38.52,1.78h-7.6a.09.09,0,0,0-.1.1v6.3a.09.09,0,0,0,.1.1H36a.23.23,0,0,1,.26.26V9.6a.23.23,0,0,1-.26.26H30.92a.09.09,0,0,0-.1.1v7.78a.22.22,0,0,1-.25.25h-1.3a.22.22,0,0,1-.25-.25V.46c0-.17.08-.26.25-.26h9.25a.23.23,0,0,1,.26.26V1.52A.23.23,0,0,1,38.52,1.78Z"/><path class="cls-1" d="M41.37,17.74V.46c0-.17.08-.26.25-.26h1.3c.17,0,.25.09.25.26V17.74a.22.22,0,0,1-.25.25h-1.3A.22.22,0,0,1,41.37,17.74Z"/><path class="cls-1" d="M55.82,17.79,52.67,9.93a.09.09,0,0,0-.1-.07H49.29a.09.09,0,0,0-.1.1v7.78a.22.22,0,0,1-.25.25h-1.3a.22.22,0,0,1-.25-.25V.46c0-.17.08-.26.25-.26H53a4.6,4.6,0,0,1,2.35.61A4.12,4.12,0,0,1,57,2.54a5.59,5.59,0,0,1,.57,2.57,5,5,0,0,1-.84,2.94,4,4,0,0,1-2.28,1.63c-.07,0-.09.08,0,.13l3.27,7.88,0,.1c0,.13-.08.2-.23.2H56.1A.3.3,0,0,1,55.82,17.79ZM49.19,1.88V8.31a.09.09,0,0,0,.1.1H52.8a2.74,2.74,0,0,0,2.14-.91,3.48,3.48,0,0,0,.81-2.39,3.52,3.52,0,0,0-.81-2.42,2.74,2.74,0,0,0-2.14-.91H49.29A.09.09,0,0,0,49.19,1.88Z"/><path class="cls-1" d="M61.4,16.94A4.31,4.31,0,0,1,60,13.57v-.69c0-.17.09-.25.26-.25h1.24c.17,0,.26.08.26.25v.59a2.9,2.9,0,0,0,1,2.28,3.69,3.69,0,0,0,2.57.87,3.28,3.28,0,0,0,2.36-.82,2.77,2.77,0,0,0,.86-2.13,2.71,2.71,0,0,0-.4-1.5A4.2,4.2,0,0,0,66.9,11c-.52-.35-1.28-.8-2.26-1.34a24.12,24.12,0,0,1-2.48-1.48A5.26,5.26,0,0,1,60.7,6.63a4.22,4.22,0,0,1-.56-2.23,4.06,4.06,0,0,1,1.33-3.23A5.12,5.12,0,0,1,65,0a5.33,5.33,0,0,1,3.76,1.29,4.48,4.48,0,0,1,1.4,3.44v.58c0,.17-.09.25-.26.25H68.63a.22.22,0,0,1-.25-.25V4.75a3.05,3.05,0,0,0-.92-2.3A3.5,3.5,0,0,0,65,1.57a3.19,3.19,0,0,0-2.23.74,2.71,2.71,0,0,0-.8,2.09,2.62,2.62,0,0,0,.38,1.44,3.93,3.93,0,0,0,1.11,1.07c.48.32,1.22.76,2.22,1.3a26.3,26.3,0,0,1,2.66,1.64,5.26,5.26,0,0,1,1.47,1.55,3.92,3.92,0,0,1,.55,2.14,4.4,4.4,0,0,1-1.37,3.4,5.37,5.37,0,0,1-3.74,1.25A5.54,5.54,0,0,1,61.4,16.94Z"/><path class="cls-1" d="M82.66.46V1.52a.23.23,0,0,1-.26.26H78.26c-.07,0-.1,0-.1.1V17.74a.22.22,0,0,1-.25.25h-1.3a.22.22,0,0,1-.25-.25V1.88c0-.07,0-.1-.11-.1h-4A.23.23,0,0,1,72,1.52V.46A.23.23,0,0,1,72.27.2H82.4A.23.23,0,0,1,82.66.46Z"/><path class="cls-1" d="M98.54,8.84a4.23,4.23,0,0,1,1.84,1.68,5.22,5.22,0,0,1,.67,2.64,4.65,4.65,0,0,1-1.35,3.56A5.06,5.06,0,0,1,96.1,18h-5a.22.22,0,0,1-.25-.25V.46c0-.17.08-.26.25-.26H95.9a5.28,5.28,0,0,1,3.66,1.21,4.42,4.42,0,0,1,1.32,3.44,4.44,4.44,0,0,1-.6,2.39,3.77,3.77,0,0,1-1.74,1.47C98.45,8.75,98.45,8.79,98.54,8.84Zm-5.9-7V8a.1.1,0,0,0,.11.11h3.17a3.19,3.19,0,0,0,2.33-.84A3.07,3.07,0,0,0,99.1,5a3.27,3.27,0,0,0-.85-2.37,3.16,3.16,0,0,0-2.33-.86H92.75C92.68,1.78,92.64,1.81,92.64,1.88Zm5.75,13.59A3.49,3.49,0,0,0,99.25,13a3.46,3.46,0,0,0-.88-2.51A3.12,3.12,0,0,0,96,9.55H92.75a.1.1,0,0,0-.11.11v6.63c0,.07,0,.1.11.1h3.3A3.08,3.08,0,0,0,98.39,15.47Z"/><path class="cls-1" d="M111,.69a4.53,4.53,0,0,1,1.83,1.85,5.75,5.75,0,0,1,.65,2.77V17.74a.22.22,0,0,1-.25.25h-1.3a.22.22,0,0,1-.25-.25l0-4.86h-6.83v4.86c0,.17-.09.25-.26.25h-1.29c-.17,0-.26-.08-.26-.25V5.31a5.75,5.75,0,0,1,.65-2.77A4.53,4.53,0,0,1,105.54.69a6,6,0,0,1,5.46,0Zm.68,10.49v-6a3.69,3.69,0,0,0-.94-2.62,3.25,3.25,0,0,0-2.47-1,3.22,3.22,0,0,0-2.46,1,3.64,3.64,0,0,0-.94,2.62v6Z"/><path class="cls-1" d="M116.64,16.94a4.31,4.31,0,0,1-1.41-3.37v-.69c0-.17.09-.25.26-.25h1.24c.17,0,.26.08.26.25v.59a2.9,2.9,0,0,0,1,2.28,3.7,3.7,0,0,0,2.57.87,3.26,3.26,0,0,0,2.36-.82,2.77,2.77,0,0,0,.87-2.13,2.72,2.72,0,0,0-.41-1.5A4.28,4.28,0,0,0,122.15,11c-.53-.35-1.28-.8-2.27-1.34a22.78,22.78,0,0,1-2.47-1.48A5,5,0,0,1,116,6.63a4.13,4.13,0,0,1-.56-2.23,4.08,4.08,0,0,1,1.32-3.23A5.13,5.13,0,0,1,120.24,0,5.33,5.33,0,0,1,124,1.29a4.48,4.48,0,0,1,1.4,3.44v.58c0,.17-.09.25-.26.25h-1.27a.22.22,0,0,1-.25-.25V4.75a3.05,3.05,0,0,0-.92-2.3,3.49,3.49,0,0,0-2.51-.88,3.15,3.15,0,0,0-2.22.74,2.68,2.68,0,0,0-.81,2.09,2.54,2.54,0,0,0,.39,1.44,3.76,3.76,0,0,0,1.1,1.07c.48.32,1.22.76,2.22,1.3a26.3,26.3,0,0,1,2.66,1.64A5.26,5.26,0,0,1,125,11.4a3.92,3.92,0,0,1,.55,2.14,4.4,4.4,0,0,1-1.37,3.4,5.37,5.37,0,0,1-3.74,1.25A5.54,5.54,0,0,1,116.64,16.94Z"/><path class="cls-1" d="M138.28,1.78h-7.62c-.07,0-.1,0-.1.1v6.3c0,.07,0,.1.1.1h5.13c.17,0,.25.09.25.26V9.6c0,.17-.08.26-.25.26h-5.13c-.07,0-.1,0-.1.1v6.35c0,.07,0,.1.1.1h7.62c.17,0,.25.09.25.26v1.07a.22.22,0,0,1-.25.25H129c-.17,0-.26-.08-.26-.25V.46A.23.23,0,0,1,129,.2h9.27c.17,0,.25.09.25.26V1.52C138.53,1.69,138.45,1.78,138.28,1.78Z"/><path class="cls-1" d="M151.82.2h1.32a.23.23,0,0,1,.26.26V17.74c0,.17-.09.25-.26.25h-1.29c-.17,0-.26-.08-.26-.25V3.91c0-.05,0-.08-.05-.1s-.06,0-.07,0l-3.38,5.87a.38.38,0,0,1-.31.18h-.28a.37.37,0,0,1-.3-.18l-3.41-5.84c0-.05,0-.07-.07-.05s-.05.05-.05.1v13.8c0,.17-.09.25-.26.25h-1.29c-.17,0-.26-.08-.26-.25V.46a.23.23,0,0,1,.26-.26h1.32a.35.35,0,0,1,.3.18l3.84,6.53a.1.1,0,0,0,.08,0,.08.08,0,0,0,.07,0L151.52.38A.35.35,0,0,1,151.82.2Z"/><path class="cls-1" d="M167.12,1.78H159.5c-.07,0-.1,0-.1.1v6.3c0,.07,0,.1.1.1h5.13c.17,0,.25.09.25.26V9.6c0,.17-.08.26-.25.26H159.5c-.07,0-.1,0-.1.1v6.35c0,.07,0,.1.1.1h7.62c.17,0,.25.09.25.26v1.07a.22.22,0,0,1-.25.25h-9.27c-.17,0-.26-.08-.26-.25V.46a.23.23,0,0,1,.26-.26h9.27c.17,0,.25.09.25.26V1.52C167.37,1.69,167.29,1.78,167.12,1.78Z"/><path class="cls-1" d="M179.83.2h1.29c.17,0,.25.09.25.26V17.74a.22.22,0,0,1-.25.25h-1.37a.31.31,0,0,1-.31-.18L172.63,4.22a.11.11,0,0,0-.09,0s0,0,0,.07l0,13.5a.22.22,0,0,1-.25.25H171a.22.22,0,0,1-.25-.25V.46c0-.17.08-.26.25-.26h1.37a.3.3,0,0,1,.31.18L179.47,14a.14.14,0,0,0,.09.05s0,0,0-.08l0-13.54A.23.23,0,0,1,179.83.2Z"/><path class="cls-1" d="M195.1.46V1.52a.23.23,0,0,1-.26.26H190.7c-.07,0-.1,0-.1.1V17.74a.22.22,0,0,1-.25.25h-1.3c-.17,0-.26-.08-.26-.25V1.88c0-.07,0-.1-.1-.1h-4c-.17,0-.25-.09-.25-.26V.46c0-.17.08-.26.25-.26h10.14A.23.23,0,0,1,195.1.46Z"/><path class="cls-1" d="M15.32,53.16a5,5,0,0,1-2.11-1.79,4.8,4.8,0,0,1-.75-2.68V48a.29.29,0,0,1,.31-.3h3.56a.32.32,0,0,1,.21.08.33.33,0,0,1,.09.22v.46a1.58,1.58,0,0,0,.56,1.21,2.17,2.17,0,0,0,1.5.49,1.62,1.62,0,0,0,1.19-.41,1.35,1.35,0,0,0,.41-1A1.24,1.24,0,0,0,20,48a2.94,2.94,0,0,0-.8-.63l-1.76-.91A22,22,0,0,1,15,45a6,6,0,0,1-1.74-1.76,4.66,4.66,0,0,1-.73-2.62A4.87,4.87,0,0,1,13.25,38a4.81,4.81,0,0,1,2.06-1.76,6.94,6.94,0,0,1,3-.62,7,7,0,0,1,3.13.67,5.32,5.32,0,0,1,2.15,1.88,5.07,5.07,0,0,1,.77,2.78v.48a.29.29,0,0,1-.09.22.29.29,0,0,1-.21.09H20.52a.31.31,0,0,1-.31-.31V41a1.69,1.69,0,0,0-.53-1.26,2,2,0,0,0-1.45-.52,1.62,1.62,0,0,0-1.14.38,1.39,1.39,0,0,0-.41,1,1.36,1.36,0,0,0,.28.85,3.23,3.23,0,0,0,.88.72c.4.24,1,.56,1.81,1l.74.4a23.71,23.71,0,0,1,2.19,1.35,5,5,0,0,1,1.36,1.5,4.28,4.28,0,0,1,.54,2.21,4.65,4.65,0,0,1-1.64,3.77,6.44,6.44,0,0,1-4.33,1.39A7.38,7.38,0,0,1,15.32,53.16Z"/><path class="cls-1" d="M37.28,39.33a.31.31,0,0,1-.22.09H30.5a.11.11,0,0,0-.12.12v3.18c0,.08,0,.13.12.13h4a.31.31,0,0,1,.3.3v3a.29.29,0,0,1-.09.22.29.29,0,0,1-.21.09h-4a.11.11,0,0,0-.12.12v3.28c0,.09,0,.13.12.13h6.56a.31.31,0,0,1,.22.09.29.29,0,0,1,.09.21v3a.29.29,0,0,1-.09.22.31.31,0,0,1-.22.09H26.46a.29.29,0,0,1-.21-.09.29.29,0,0,1-.09-.22V36.11a.31.31,0,0,1,.3-.3h10.6a.31.31,0,0,1,.22.09.29.29,0,0,1,.09.21v3A.29.29,0,0,1,37.28,39.33Z"/><path class="cls-1" d="M41.72,53.09a5.05,5.05,0,0,1-2.13-2,6,6,0,0,1-.75-3V41.35a6,6,0,0,1,.75-3,5.08,5.08,0,0,1,2.13-2,6.84,6.84,0,0,1,3.19-.71,7.06,7.06,0,0,1,3.19.68,5,5,0,0,1,2.14,2,5.79,5.79,0,0,1,.74,3v.1a.4.4,0,0,1-.08.23.32.32,0,0,1-.22.1l-3.61.15c-.2,0-.3-.09-.3-.28v-.36a1.92,1.92,0,0,0-.51-1.39,1.77,1.77,0,0,0-1.35-.54,1.73,1.73,0,0,0-1.34.54,1.92,1.92,0,0,0-.51,1.39v7.12a2,2,0,0,0,.51,1.4,1.76,1.76,0,0,0,1.34.53,1.8,1.8,0,0,0,1.35-.53,2,2,0,0,0,.51-1.4V47.9q0-.27.3-.27l3.61.15a.28.28,0,0,1,.22.1.38.38,0,0,1,.08.23v0a5.86,5.86,0,0,1-.74,3,5.13,5.13,0,0,1-2.14,2,7.57,7.57,0,0,1-6.38,0Z"/><path class="cls-1" d="M55.48,53.11A5.3,5.3,0,0,1,53.31,51a6.14,6.14,0,0,1-.78-3.13V41.5a6,6,0,0,1,.78-3.09,5.34,5.34,0,0,1,2.17-2.07,7.51,7.51,0,0,1,6.46,0,5.34,5.34,0,0,1,2.17,2.07,6,6,0,0,1,.77,3.09v6.4A6.13,6.13,0,0,1,64.11,51a5.3,5.3,0,0,1-2.17,2.08,7.42,7.42,0,0,1-6.46,0Zm4.65-3.49a2.24,2.24,0,0,0,.54-1.56V41.4a2.32,2.32,0,0,0-.55-1.58,2,2,0,0,0-2.83,0,2.29,2.29,0,0,0-.54,1.59v6.66a2.24,2.24,0,0,0,.54,1.56,2,2,0,0,0,2.84,0Z"/><path class="cls-1" d="M75.54,35.9a.29.29,0,0,1,.22-.09h3.61a.31.31,0,0,1,.3.3V53.29a.29.29,0,0,1-.09.22.29.29,0,0,1-.21.09H75.61a.37.37,0,0,1-.36-.23L71.06,44c0-.05-.07-.07-.1-.06s0,.05,0,.12l0,9.27a.31.31,0,0,1-.31.31H67.07a.31.31,0,0,1-.31-.31V36.11a.29.29,0,0,1,.09-.21.29.29,0,0,1,.22-.09H70.8a.36.36,0,0,1,.36.23l4.17,9.35s.06.07.1.07,0,0,0-.1l0-9.25A.29.29,0,0,1,75.54,35.9Z"/><path class="cls-1" d="M81.87,53.51a.29.29,0,0,1-.09-.22V36.11a.29.29,0,0,1,.09-.21.29.29,0,0,1,.22-.09h5.66a7.26,7.26,0,0,1,3.18.66,5,5,0,0,1,2.12,1.85,5.11,5.11,0,0,1,.75,2.77v7.22a4.92,4.92,0,0,1-2.87,4.63,7.26,7.26,0,0,1-3.18.66H82.09A.29.29,0,0,1,81.87,53.51ZM86.13,50l1.67,0a1.57,1.57,0,0,0,1.26-.58,2.44,2.44,0,0,0,.52-1.58V41.58A2.38,2.38,0,0,0,89.09,40a1.64,1.64,0,0,0-1.31-.59H86.13c-.09,0-.13,0-.13.12V49.86C86,50,86,50,86.13,50Z"/><path class="cls-1" d="M111.26,52.33a6.67,6.67,0,0,1-4.2,1.27h-5.94a.31.31,0,0,1-.31-.31V36.11a.29.29,0,0,1,.09-.21.29.29,0,0,1,.22-.09h5.51A7,7,0,0,1,111.05,37a4.42,4.42,0,0,1,1.55,3.74,3.89,3.89,0,0,1-1.77,3.56q-.17.07,0,.15a4.53,4.53,0,0,1,2.08,4.12A4.48,4.48,0,0,1,111.26,52.33ZM105,39.54v3.23c0,.09,0,.13.13.13h1.5a1.91,1.91,0,0,0,1.36-.45,1.68,1.68,0,0,0,.47-1.28,1.65,1.65,0,0,0-.49-1.29,1.85,1.85,0,0,0-1.34-.46h-1.5C105.07,39.42,105,39.46,105,39.54Zm3.17,9.93a2,2,0,0,0,.47-1.41,2,2,0,0,0-.46-1.4,1.67,1.67,0,0,0-1.3-.51h-1.75c-.09,0-.13,0-.13.13v3.55c0,.09,0,.13.13.13h1.73A1.73,1.73,0,0,0,108.2,49.47Z"/><path class="cls-1" d="M123.64,36.33a5.08,5.08,0,0,1,2.11,2.05,6,6,0,0,1,.75,3V53.29a.29.29,0,0,1-.09.22.29.29,0,0,1-.21.09h-3.61a.31.31,0,0,1-.22-.09.29.29,0,0,1-.08-.22V50h-3.64v3.33a.29.29,0,0,1-.09.22.29.29,0,0,1-.21.09h-3.61a.31.31,0,0,1-.31-.31V41.42a6,6,0,0,1,.75-3,5.08,5.08,0,0,1,2.13-2.05,6.71,6.71,0,0,1,3.17-.72A6.64,6.64,0,0,1,123.64,36.33Zm-1.35,5a2.11,2.11,0,0,0-.5-1.45,1.68,1.68,0,0,0-1.31-.56,1.71,1.71,0,0,0-1.32.56,2.07,2.07,0,0,0-.51,1.45v5.21h3.64Z"/><path class="cls-1" d="M130.76,53.16a4.89,4.89,0,0,1-2.11-1.79,4.8,4.8,0,0,1-.75-2.68V48a.29.29,0,0,1,.31-.3h3.55a.29.29,0,0,1,.31.3v.46a1.54,1.54,0,0,0,.56,1.21,2.17,2.17,0,0,0,1.5.49,1.62,1.62,0,0,0,1.19-.41,1.35,1.35,0,0,0,.41-1,1.24,1.24,0,0,0-.29-.82,3.1,3.1,0,0,0-.8-.63l-1.76-.91A21.17,21.17,0,0,1,130.42,45a6,6,0,0,1-1.74-1.76,4.58,4.58,0,0,1-.73-2.62,4.87,4.87,0,0,1,.74-2.67,4.81,4.81,0,0,1,2.06-1.76,6.94,6.94,0,0,1,3-.62,7,7,0,0,1,3.13.67A5.23,5.23,0,0,1,139,38.16a5,5,0,0,1,.78,2.78v.48a.31.31,0,0,1-.31.31H136a.31.31,0,0,1-.31-.31V41a1.72,1.72,0,0,0-.53-1.26,2,2,0,0,0-1.45-.52,1.62,1.62,0,0,0-1.14.38,1.5,1.5,0,0,0-.13,1.9,3.08,3.08,0,0,0,.88.72c.39.24,1,.56,1.81,1l.74.4A23.35,23.35,0,0,1,138,44.93a4.79,4.79,0,0,1,1.36,1.5,4.19,4.19,0,0,1,.55,2.21,4.68,4.68,0,0,1-1.64,3.77A6.45,6.45,0,0,1,134,53.8,7.38,7.38,0,0,1,130.76,53.16Z"/><path class="cls-1" d="M152.71,39.33a.29.29,0,0,1-.21.09h-6.56a.11.11,0,0,0-.12.12v3.18c0,.08,0,.13.12.13h4a.31.31,0,0,1,.3.3v3a.29.29,0,0,1-.09.22.29.29,0,0,1-.21.09h-4a.11.11,0,0,0-.12.12v3.28c0,.09,0,.13.12.13h6.56a.31.31,0,0,1,.3.3v3a.29.29,0,0,1-.09.22.29.29,0,0,1-.21.09H141.9a.29.29,0,0,1-.21-.09.29.29,0,0,1-.09-.22V36.11a.31.31,0,0,1,.3-.3h10.6a.31.31,0,0,1,.3.3v3A.29.29,0,0,1,152.71,39.33Z"/><path class="cls-1" d="M164.72,35.81h3.58a.29.29,0,0,1,.22.09.29.29,0,0,1,.09.21V53.29a.31.31,0,0,1-.31.31h-3.6a.31.31,0,0,1-.31-.31V42.75c0-.07,0-.11,0-.12s-.07,0-.1.07l-2,3.3a.38.38,0,0,1-.36.2h-.71a.38.38,0,0,1-.36-.2l-2-3.3c0-.06-.07-.08-.1-.07s-.05,0-.05.12V53.29a.31.31,0,0,1-.31.31h-3.6a.31.31,0,0,1-.31-.31V36.11a.29.29,0,0,1,.09-.21.29.29,0,0,1,.22-.09h3.58a.35.35,0,0,1,.35.2l2.75,4.63q.08.15.15,0L164.36,36A.38.38,0,0,1,164.72,35.81Z"/><path class="cls-1" d="M181.81,39.33a.29.29,0,0,1-.22.09H175c-.09,0-.13,0-.13.12v3.18a.12.12,0,0,0,.13.13h4a.29.29,0,0,1,.22.09.29.29,0,0,1,.09.21v3a.31.31,0,0,1-.31.31h-4c-.09,0-.13,0-.13.12v3.28c0,.09,0,.13.13.13h6.55a.29.29,0,0,1,.22.09.29.29,0,0,1,.09.21v3a.31.31,0,0,1-.31.31H171a.31.31,0,0,1-.31-.31V36.11a.29.29,0,0,1,.09-.21.29.29,0,0,1,.22-.09h10.59a.29.29,0,0,1,.22.09.29.29,0,0,1,.09.21v3A.29.29,0,0,1,181.81,39.33Z"/><path class="cls-1" d="M192.4,35.9a.31.31,0,0,1,.22-.09h3.61a.27.27,0,0,1,.21.09.29.29,0,0,1,.09.21V53.29a.29.29,0,0,1-.09.22.27.27,0,0,1-.21.09h-3.76a.37.37,0,0,1-.36-.23L187.92,44c0-.05-.07-.07-.1-.06s0,.05,0,.12l0,9.27a.31.31,0,0,1-.31.31h-3.58a.31.31,0,0,1-.22-.09.29.29,0,0,1-.08-.22V36.11a.28.28,0,0,1,.08-.21.31.31,0,0,1,.22-.09h3.74A.35.35,0,0,1,188,36l4.17,9.35a.13.13,0,0,0,.1.07s.05,0,.05-.1l0-9.25A.28.28,0,0,1,192.4,35.9Z"/><path class="cls-1" d="M210.62,35.9a.29.29,0,0,1,.09.21v3a.31.31,0,0,1-.3.3H206.6c-.09,0-.13,0-.13.13V53.29a.31.31,0,0,1-.31.31h-3.6a.31.31,0,0,1-.31-.31V39.57c0-.09,0-.13-.13-.13h-3.66a.31.31,0,0,1-.3-.3v-3a.31.31,0,0,1,.3-.3h11.95A.29.29,0,0,1,210.62,35.9Z"/><line class="cls-2" x1="0.5" y1="34.23" x2="0.5" y2="55.05"/><line class="cls-2" x1="223.44" y1="34.23" x2="223.44" y2="55.05"/></g></g></svg>