<svg xmlns="http://www.w3.org/2000/svg" viewBox="0 0 155.9 34.51"><defs><style>.cls-1{fill:#fff;}.cls-2{fill:none;stroke:#fff;stroke-miterlimit:10;}</style></defs><title>Asset 211</title><g id="Layer_2" data-name="Layer 2"><g id="Layer_1-2" data-name="Layer 1"><path class="cls-1" d="M87.2,8.35V9.41a.23.23,0,0,1-.25.26H82.8a.09.09,0,0,0-.1.1V25.63a.22.22,0,0,1-.25.25h-1.3a.22.22,0,0,1-.25-.25V9.77a.09.09,0,0,0-.1-.1h-4a.23.23,0,0,1-.25-.26V8.35a.23.23,0,0,1,.25-.26H87A.23.23,0,0,1,87.2,8.35Z"/><path class="cls-1" d="M89.69,25.08a4.19,4.19,0,0,1-1.45-2.7,25.51,25.51,0,0,1-.15-2.95,24.13,24.13,0,0,1,.15-2.9,4.05,4.05,0,0,1,1.44-2.69,5.1,5.1,0,0,1,6.12,0,4.05,4.05,0,0,1,1.44,2.69,21.2,21.2,0,0,1,.15,2.9,21.73,21.73,0,0,1-.15,2.95,4.06,4.06,0,0,1-1.44,2.7,5.13,5.13,0,0,1-6.11,0Zm4.89-1.24a2.83,2.83,0,0,0,.9-1.79,24.56,24.56,0,0,0,.11-2.6,24.09,24.09,0,0,0-.11-2.59,2.71,2.71,0,0,0-.87-1.79,2.93,2.93,0,0,0-3.73,0A2.86,2.86,0,0,0,90,16.86a24.09,24.09,0,0,0-.11,2.59,24.16,24.16,0,0,0,.11,2.6,2.71,2.71,0,0,0,.87,1.79,2.68,2.68,0,0,0,1.87.67A2.64,2.64,0,0,0,94.58,23.84Z"/><path class="cls-1" d="M107.71,13H109a.23.23,0,0,1,.25.26V25.63a.22.22,0,0,1-.25.25h-1.3c-.17,0-.26-.08-.26-.25v-1c0-.05,0-.08,0-.08a.14.14,0,0,0-.09.05,3.19,3.19,0,0,1-3,1.45,4,4,0,0,1-2.82-1,3.8,3.8,0,0,1-1.09-2.94V13.28c0-.17.08-.26.25-.26H102a.23.23,0,0,1,.25.26v8.36a3.07,3.07,0,0,0,.66,2.1,2.35,2.35,0,0,0,1.86.75,2.47,2.47,0,0,0,1.95-.8,3.1,3.1,0,0,0,.71-2.15V13.28A.23.23,0,0,1,107.71,13Z"/><path class="cls-1" d="M118.89,13.2c.12.05.16.15.13.31l-.31,1.32c0,.17-.12.22-.3.15a2.18,2.18,0,0,0-.89-.18l-.31,0a2.36,2.36,0,0,0-1.85,1,3.61,3.61,0,0,0-.74,2.29v7.55a.22.22,0,0,1-.25.25h-1.3a.22.22,0,0,1-.25-.25V13.28c0-.17.08-.26.25-.26h1.3c.17,0,.25.09.25.26v1.65c0,.05,0,.08,0,.08a.07.07,0,0,0,.06-.06,3.89,3.89,0,0,1,1.16-1.51,2.77,2.77,0,0,1,1.71-.54A2.6,2.6,0,0,1,118.89,13.2Z"/><rect class="cls-2" x="41.03" y="0.5" width="114.37" height="33.51"/><rect class="cls-2" x="0.5" y="17.57" width="32.53" height="16.43"/><polygon class="cls-1" points="16.77 0.5 31.22 0.5 23.99 13.01 16.77 25.53 9.54 13.01 2.32 0.5 16.77 0.5"/></g></g></svg>