<svg xmlns="http://www.w3.org/2000/svg" viewBox="0 0 179.75 55.22"><defs><style>.cls-1{fill:#fff;}.cls-2{fill:none;stroke:#fff;stroke-miterlimit:10;}</style></defs><title>Asset 233</title><g id="Layer_2" data-name="Layer 2"><g id="Layer_1-2" data-name="Layer 1"><polygon class="cls-1" points="27.25 34.18 27.25 21.6 16.36 15.31 5.46 21.6 5.46 34.18 16.36 40.47 27.25 34.18"/><path class="cls-2" d="M16.36,1.06A15.86,15.86,0,0,0,.5,16.92v37.8H32.22V16.92A15.86,15.86,0,0,0,16.36,1.06Z"/><path class="cls-1" d="M51.6,5.41a4.55,4.55,0,0,1,1.83,1.86A5.75,5.75,0,0,1,54.08,10V22.47c0,.17-.09.25-.26.25H52.53c-.17,0-.26-.08-.26-.25l0-4.86H45.46v4.86a.22.22,0,0,1-.25.25h-1.3a.22.22,0,0,1-.25-.25V10a5.64,5.64,0,0,1,.65-2.77,4.55,4.55,0,0,1,1.83-1.86,6,6,0,0,1,5.46,0Zm.67,10.5v-6a3.63,3.63,0,0,0-.94-2.62,3.56,3.56,0,0,0-4.93,0,3.63,3.63,0,0,0-.94,2.62v6Z"/><path class="cls-1" d="M65.89,22.52l-3.15-7.86a.09.09,0,0,0-.1-.07H59.36a.09.09,0,0,0-.1.1v7.78a.22.22,0,0,1-.25.25h-1.3a.22.22,0,0,1-.25-.25V5.18a.22.22,0,0,1,.25-.25H63.1a4.5,4.5,0,0,1,2.35.61,4.12,4.12,0,0,1,1.6,1.73,5.56,5.56,0,0,1,.57,2.57,5,5,0,0,1-.84,2.94,4,4,0,0,1-2.28,1.63c-.07,0-.09.08,0,.13l3.27,7.88,0,.1c0,.13-.08.2-.23.2H66.17A.3.3,0,0,1,65.89,22.52ZM59.26,6.61V13a.09.09,0,0,0,.1.1h3.51A2.71,2.71,0,0,0,65,12.22a3.41,3.41,0,0,0,.82-2.38A3.48,3.48,0,0,0,65,7.42a2.7,2.7,0,0,0-2.13-.91H59.36A.09.09,0,0,0,59.26,6.61Z"/><path class="cls-1" d="M78.89,6.14a5.06,5.06,0,0,1,1.39,3.72v8A5.21,5.21,0,0,1,79.2,21.2a4.46,4.46,0,0,1-2.94,1.62.13.13,0,0,0-.1.13v2.44a.22.22,0,0,1-.25.25H74.59c-.17,0-.26-.08-.26-.25V23a.12.12,0,0,0-.1-.13,4.49,4.49,0,0,1-2.92-1.62,5.16,5.16,0,0,1-1.09-3.36v-8a5.57,5.57,0,0,1,.63-2.69,4.49,4.49,0,0,1,1.78-1.81,5.32,5.32,0,0,1,2.62-.63A4.87,4.87,0,0,1,78.89,6.14Zm-.42,3.59a3.48,3.48,0,0,0-.88-2.47,3.33,3.33,0,0,0-4.68,0A3.48,3.48,0,0,0,72,9.73v8.19a3.52,3.52,0,0,0,.89,2.48,3.36,3.36,0,0,0,4.68,0,3.52,3.52,0,0,0,.88-2.48Z"/><path class="cls-1" d="M86.14,22.26a4.59,4.59,0,0,1-1.83-1.85,5.75,5.75,0,0,1-.65-2.77V5.18a.22.22,0,0,1,.25-.25h1.3a.22.22,0,0,1,.25.25V17.74a3.69,3.69,0,0,0,.94,2.62,3.25,3.25,0,0,0,2.47,1,3.22,3.22,0,0,0,2.46-1,3.64,3.64,0,0,0,.94-2.62V5.18a.23.23,0,0,1,.26-.25h1.29a.23.23,0,0,1,.26.25V17.64a5.75,5.75,0,0,1-.65,2.77,4.59,4.59,0,0,1-1.83,1.85,6,6,0,0,1-5.46,0Z"/><path class="cls-1" d="M107.47,6.51H99.85c-.07,0-.1,0-.1.1v6.3c0,.07,0,.1.1.1H105a.23.23,0,0,1,.26.26v1.06a.23.23,0,0,1-.26.26H99.85c-.07,0-.1,0-.1.1V21c0,.07,0,.11.1.11h7.62c.17,0,.26.08.26.25v1.07c0,.17-.09.25-.26.25H98.2c-.17,0-.26-.08-.26-.25V5.18a.23.23,0,0,1,.26-.25h9.27a.23.23,0,0,1,.26.25V6.25A.23.23,0,0,1,107.47,6.51Z"/><path class="cls-1" d="M113.08,22.28a4.58,4.58,0,0,1-1.83-1.82,5.4,5.4,0,0,1-.65-2.7V9.91a5.42,5.42,0,0,1,.65-2.7,4.48,4.48,0,0,1,1.83-1.83,6.06,6.06,0,0,1,5.46,0,4.57,4.57,0,0,1,1.84,1.83,5.43,5.43,0,0,1,.66,2.7v7.85a5.4,5.4,0,0,1-.66,2.7,4.67,4.67,0,0,1-1.84,1.82,6.14,6.14,0,0,1-5.46,0Zm5.22-1.9a3.47,3.47,0,0,0,.94-2.54v-8a3.55,3.55,0,0,0-.94-2.58,3.63,3.63,0,0,0-5,0,3.59,3.59,0,0,0-.94,2.58v8a3.51,3.51,0,0,0,.94,2.54,3.66,3.66,0,0,0,5,0Z"/><path class="cls-1" d="M124.78,22.47V5.18a.22.22,0,0,1,.25-.25h1.3a.22.22,0,0,1,.25.25V21a.1.1,0,0,0,.11.11h7.39a.22.22,0,0,1,.25.25v1.07a.22.22,0,0,1-.25.25H125A.22.22,0,0,1,124.78,22.47Z"/><path class="cls-1" d="M139,22.28a4.71,4.71,0,0,1-1.83-1.82,5.5,5.5,0,0,1-.64-2.7V9.91a5.53,5.53,0,0,1,.64-2.7A4.6,4.6,0,0,1,139,5.38a6.08,6.08,0,0,1,5.47,0,4.57,4.57,0,0,1,1.84,1.83,5.43,5.43,0,0,1,.66,2.7v7.85a5.4,5.4,0,0,1-.66,2.7,4.67,4.67,0,0,1-1.84,1.82,6.16,6.16,0,0,1-5.47,0Zm5.23-1.9a3.51,3.51,0,0,0,.94-2.54v-8a3.59,3.59,0,0,0-.94-2.58,3.63,3.63,0,0,0-5,0,3.55,3.55,0,0,0-.94,2.58v8a3.47,3.47,0,0,0,.94,2.54,3.66,3.66,0,0,0,5,0Z"/><path class="cls-1" d="M151.6,21.58A4.74,4.74,0,0,1,150.19,18V9.66a4.74,4.74,0,0,1,1.41-3.59,5.2,5.2,0,0,1,3.73-1.34,5.64,5.64,0,0,1,2.68.61,4.41,4.41,0,0,1,1.8,1.7,4.87,4.87,0,0,1,.65,2.52v.71a.22.22,0,0,1-.25.25h-1.3a.22.22,0,0,1-.25-.25V9.56a3.15,3.15,0,0,0-.92-2.35,3.66,3.66,0,0,0-4.83,0,3.21,3.21,0,0,0-.91,2.4V18a3.23,3.23,0,0,0,.92,2.39,3.71,3.71,0,0,0,4.83.05,3,3,0,0,0,.91-2.33V15.38a.1.1,0,0,0-.11-.11h-3a.22.22,0,0,1-.25-.25V14a.22.22,0,0,1,.25-.25h4.63a.22.22,0,0,1,.25.25v4a4.86,4.86,0,0,1-1.4,3.66,5.86,5.86,0,0,1-7.46,0Z"/><path class="cls-1" d="M164,3.16a.21.21,0,0,1,0-.21L165.62.18a.37.37,0,0,1,.3-.18H167a.19.19,0,0,1,.19.09.27.27,0,0,1,0,.22l-1.75,2.77a.4.4,0,0,1-.31.17h-.86A.23.23,0,0,1,164,3.16Zm.16,19.31V5.18a.22.22,0,0,1,.25-.25h1.3a.22.22,0,0,1,.25.25V22.47a.22.22,0,0,1-.25.25h-1.3A.22.22,0,0,1,164.2,22.47Z"/><path class="cls-1" d="M177.27,5.41a4.55,4.55,0,0,1,1.83,1.86,5.75,5.75,0,0,1,.65,2.77V22.47a.22.22,0,0,1-.25.25h-1.3a.22.22,0,0,1-.25-.25l0-4.86h-6.84v4.86a.22.22,0,0,1-.25.25h-1.3a.22.22,0,0,1-.25-.25V10A5.75,5.75,0,0,1,170,7.27a4.55,4.55,0,0,1,1.83-1.86,6,6,0,0,1,5.46,0Zm.68,10.5v-6A3.63,3.63,0,0,0,177,7.32a3.22,3.22,0,0,0-2.46-1,3.25,3.25,0,0,0-2.47,1,3.67,3.67,0,0,0-.94,2.62v6Z"/><path class="cls-1" d="M46.85,52.76A4.59,4.59,0,0,1,45,50.91a5.65,5.65,0,0,1-.65-2.78V35.68a.22.22,0,0,1,.25-.25h1.3a.22.22,0,0,1,.25.25V48.24a3.66,3.66,0,0,0,.94,2.61,3.26,3.26,0,0,0,2.47,1,3.22,3.22,0,0,0,2.46-1A3.62,3.62,0,0,0,53,48.24V35.68c0-.17.09-.25.26-.25h1.29c.17,0,.26.08.26.25V48.13a5.77,5.77,0,0,1-.65,2.78,4.59,4.59,0,0,1-1.83,1.85,6,6,0,0,1-5.46,0Z"/><path class="cls-1" d="M67.27,53l-3.15-7.85a.12.12,0,0,0-.11-.08H60.74a.1.1,0,0,0-.11.11V53c0,.17-.08.26-.25.26h-1.3c-.17,0-.25-.09-.25-.26V35.68a.22.22,0,0,1,.25-.25h5.39a4.48,4.48,0,0,1,2.35.61,4.06,4.06,0,0,1,1.6,1.73A5.55,5.55,0,0,1,69,40.33a5.05,5.05,0,0,1-.84,3,4,4,0,0,1-2.29,1.63c-.07,0-.09.07-.05.12l3.28,7.88,0,.1c0,.14-.07.21-.23.21H67.55A.28.28,0,0,1,67.27,53Zm-6.64-15.9v6.43a.1.1,0,0,0,.11.1h3.5a2.75,2.75,0,0,0,2.14-.92,3.46,3.46,0,0,0,.81-2.39,3.5,3.5,0,0,0-.81-2.41A2.75,2.75,0,0,0,64.24,37h-3.5A.1.1,0,0,0,60.63,37.11Z"/><path class="cls-1" d="M80,44.07a4.23,4.23,0,0,1,1.84,1.68,5.19,5.19,0,0,1,.67,2.64A4.67,4.67,0,0,1,81.11,52a5.1,5.1,0,0,1-3.6,1.27h-5c-.17,0-.25-.09-.25-.26V35.68a.22.22,0,0,1,.25-.25h4.81A5.28,5.28,0,0,1,81,36.63a4.45,4.45,0,0,1,1.32,3.45,4.46,4.46,0,0,1-.6,2.39A3.83,3.83,0,0,1,80,43.94C79.86,44,79.86,44,80,44.07Zm-5.9-7v6.12a.09.09,0,0,0,.1.1h3.18a3.19,3.19,0,0,0,2.33-.84,3.05,3.05,0,0,0,.85-2.26,3.23,3.23,0,0,0-.85-2.36A3.12,3.12,0,0,0,77.33,37H74.15A.1.1,0,0,0,74.05,37.11ZM79.8,50.7a3.5,3.5,0,0,0,.86-2.49,3.43,3.43,0,0,0-.88-2.51,3.08,3.08,0,0,0-2.37-.92H74.15a.09.09,0,0,0-.1.1v6.63a.1.1,0,0,0,.1.11h3.31A3.08,3.08,0,0,0,79.8,50.7Z"/><path class="cls-1" d="M92.41,35.91a4.55,4.55,0,0,1,1.83,1.86,5.62,5.62,0,0,1,.65,2.77V53c0,.17-.08.26-.25.26h-1.3c-.17,0-.25-.09-.25-.26l0-4.85H86.28V53a.23.23,0,0,1-.26.26H84.73a.23.23,0,0,1-.26-.26V40.54a5.73,5.73,0,0,1,.65-2.77A4.55,4.55,0,0,1,87,35.91a6,6,0,0,1,5.46,0Zm.68,10.5v-6a3.66,3.66,0,0,0-.94-2.61,3.56,3.56,0,0,0-4.93,0,3.62,3.62,0,0,0-.94,2.61v6Z"/><path class="cls-1" d="M107.37,35.43h1.3a.22.22,0,0,1,.25.25V53c0,.17-.08.26-.25.26h-1.38A.29.29,0,0,1,107,53l-6.81-13.6s-.06,0-.09,0,0,0,0,.08l0,13.49a.23.23,0,0,1-.26.26H98.53a.23.23,0,0,1-.26-.26V35.68c0-.17.09-.25.26-.25H99.9a.29.29,0,0,1,.3.18L107,49.25a.1.1,0,0,0,.08,0s0,0,0-.07l0-13.55A.22.22,0,0,1,107.37,35.43Z"/><path class="cls-1" d="M120.19,35.91A4.55,4.55,0,0,1,122,37.77a5.73,5.73,0,0,1,.65,2.77V53a.23.23,0,0,1-.25.26h-1.3c-.17,0-.25-.09-.25-.26l0-4.85h-6.84V53c0,.17-.08.26-.25.26h-1.3c-.17,0-.25-.09-.25-.26V40.54a5.73,5.73,0,0,1,.65-2.77,4.55,4.55,0,0,1,1.83-1.86,6,6,0,0,1,5.46,0Zm.68,10.5v-6a3.66,3.66,0,0,0-.94-2.61,3.25,3.25,0,0,0-2.47-1,3.22,3.22,0,0,0-2.46,1,3.63,3.63,0,0,0-1,2.61v6Z"/></g></g></svg>