<svg xmlns="http://www.w3.org/2000/svg" viewBox="0 0 93.31 27.33"><defs><style>.cls-1{font-size:25.07px;font-family:BarlowSemiCondensed-Regular, Barlow Semi Condensed;}.cls-1,.cls-3{fill:#fff;}.cls-2{letter-spacing:0em;}</style></defs><title>Asset 155</title><g id="Layer_2" data-name="Layer 2"><g id="Layer_1-2" data-name="Layer 1"><text class="cls-1" transform="translate(38.62 22.01)"><tspan class="cls-2">A</tspan><tspan x="12.66" y="0">udio</tspan></text><path class="cls-3" d="M15.63,12.41V23.25a1.32,1.32,0,0,1-.83,1.41,1.37,1.37,0,0,1-1.55-.43Q10,20.9,6.63,17.62c-2.06-.06-4.13,0-6.19,0A.44.44,0,0,1,0,17.14Q0,12.33,0,7.5a.3.3,0,0,1,.3-.31c2.1,0,4.21,0,6.31,0Q9.92,3.91,13.18.61A1.39,1.39,0,0,1,14.79.1a1.43,1.43,0,0,1,.85,1.52Q15.63,7,15.63,12.41Z"/><path class="cls-3" d="M22.32,21.5a9.71,9.71,0,0,0,5.89-8.34A10.69,10.69,0,0,0,27,7.65a9.72,9.72,0,0,0-4.74-4.4,1.24,1.24,0,0,0-.48-.11.82.82,0,0,0-.76.49.86.86,0,0,0,.45,1.17l.25.13.19.09a8.35,8.35,0,0,1,4.48,6.16,8,8,0,0,1-2.28,6.93,11.18,11.18,0,0,1-2,1.45l-.69.42c-.49.33-.64.77-.41,1.18A.9.9,0,0,0,22.32,21.5Z"/><path class="cls-3" d="M20.26,16.7A4.78,4.78,0,0,0,23,12.36c0-.06,0-.16,0-.27a6.75,6.75,0,0,0-.1-.71A4.51,4.51,0,0,0,20.14,8a.9.9,0,0,0-.38-.08.84.84,0,0,0-.47,1.53,3.36,3.36,0,0,0,.54.38,2.78,2.78,0,0,1,1.45,2.55,2.74,2.74,0,0,1-1.44,2.51,2.26,2.26,0,0,0-.38.25l-.06.05c-.49.36-.61.75-.38,1.17A.9.9,0,0,0,20.26,16.7Z"/></g></g></svg>