<svg xmlns="http://www.w3.org/2000/svg" viewBox="0 0 154.83 33.51"><defs><style>.cls-1,.cls-2{fill:#fff;}.cls-2{stroke:#000;stroke-miterlimit:10;}</style></defs><title>Asset 163</title><g id="Layer_2" data-name="Layer 2"><g id="Layer_1-2" data-name="Layer 1"><path class="cls-1" d="M114.62,15a2.67,2.67,0,0,0-1.86-.67,2.59,2.59,0,0,0-1.84.67,2.82,2.82,0,0,0-.89,1.78,24.13,24.13,0,0,0-.1,2.58A24,24,0,0,0,110,22a2.71,2.71,0,0,0,.87,1.78,2.67,2.67,0,0,0,1.86.67,2.63,2.63,0,0,0,1.83-.67,2.78,2.78,0,0,0,.9-1.78,24.55,24.55,0,0,0,.1-2.57,24.13,24.13,0,0,0-.1-2.58A2.75,2.75,0,0,0,114.62,15Z"/><path class="cls-1" d="M83.57,19.65a3.64,3.64,0,0,0-2.3.67,2.27,2.27,0,0,0-.85,1.91,2,2,0,0,0,.65,1.65,2.62,2.62,0,0,0,1.72.54A3.57,3.57,0,0,0,85,23.73a2.29,2.29,0,0,0,.92-1.93V19.75a.09.09,0,0,0-.1-.1Z"/><path class="cls-1" d="M40.46,0V33.51H154.83V0Zm71.21,11,1.54-2.75a.38.38,0,0,1,.31-.18h1.08c.11,0,.17,0,.19.09a.21.21,0,0,1,0,.21L113,11.16a.34.34,0,0,1-.3.17h-.86c-.1,0-.17,0-.2-.08A.2.2,0,0,1,111.67,11ZM57.6,9.41a.23.23,0,0,1-.26.26H49.76a.09.09,0,0,0-.1.1V16a.1.1,0,0,0,.1.11h5.11a.22.22,0,0,1,.25.25v1.06a.22.22,0,0,1-.25.25H49.76a.09.09,0,0,0-.1.1v6.32a.09.09,0,0,0,.1.1h7.58a.23.23,0,0,1,.26.25v1.07a.23.23,0,0,1-.26.25H48.12a.22.22,0,0,1-.25-.25V8.35a.22.22,0,0,1,.25-.25h9.22c.17,0,.26.08.26.25ZM67.38,25a4.7,4.7,0,0,1-3.11,1A5,5,0,0,1,61.13,25,2.91,2.91,0,0,1,60,22.58v-.23a.22.22,0,0,1,.25-.25h1.24a.22.22,0,0,1,.25.25v.18a1.76,1.76,0,0,0,.72,1.4,2.81,2.81,0,0,0,1.86.6,2.65,2.65,0,0,0,1.79-.59,1.8,1.8,0,0,0,.68-1.46,1.5,1.5,0,0,0-.38-1.06,2.69,2.69,0,0,0-.93-.69c-.37-.16-.88-.36-1.54-.58a14.64,14.64,0,0,1-2-.81,3.76,3.76,0,0,1-1.33-1.12,3,3,0,0,1-.54-1.83,3.19,3.19,0,0,1,1.13-2.57,5.29,5.29,0,0,1,6.08,0,3.17,3.17,0,0,1,1.15,2.53v.05a.22.22,0,0,1-.25.25H67c-.17,0-.26-.08-.26-.25v-.1a1.78,1.78,0,0,0-.69-1.43,2.83,2.83,0,0,0-1.86-.57,2.69,2.69,0,0,0-1.75.54,1.73,1.73,0,0,0-.67,1.41,1.52,1.52,0,0,0,.67,1.34,9.79,9.79,0,0,0,2.11,1,15.44,15.44,0,0,1,2,.81A3.93,3.93,0,0,1,68,20.52a2.91,2.91,0,0,1,.57,1.86A3.17,3.17,0,0,1,67.38,25Zm9.07-10.79a.23.23,0,0,1-.26.26h-2.4a.09.09,0,0,0-.1.1V22.1a2.31,2.31,0,0,0,.47,1.65,2,2,0,0,0,1.5.47h.43a.23.23,0,0,1,.26.25v1.07a.23.23,0,0,1-.26.25l-.78,0a4,4,0,0,1-2.5-.67A3,3,0,0,1,72,22.66V14.52c0-.07,0-.1-.1-.1H70.58a.23.23,0,0,1-.25-.26v-.91a.23.23,0,0,1,.25-.25h1.27c.07,0,.1,0,.1-.1V10a.22.22,0,0,1,.25-.25h1.24a.22.22,0,0,1,.25.25V12.9a.09.09,0,0,0,.1.1h2.4a.23.23,0,0,1,.26.25ZM87.69,25.54a.22.22,0,0,1-.25.25H86.15a.22.22,0,0,1-.25-.25v-.91a.08.08,0,0,0,0-.08s0,0-.09,0a3.47,3.47,0,0,1-1.41,1.06,5.17,5.17,0,0,1-1.92.35,4.37,4.37,0,0,1-2.72-.86,3.3,3.3,0,0,1-1.12-2.8,3.7,3.7,0,0,1,1.3-3.07,5.48,5.48,0,0,1,3.55-1.05H85.8a.09.09,0,0,0,.1-.1v-1a3,3,0,0,0-.65-2,2.36,2.36,0,0,0-1.9-.74,2.67,2.67,0,0,0-1.65.49,2,2,0,0,0-.78,1.3.25.25,0,0,1-.28.23l-1.39-.08a.25.25,0,0,1-.19-.07.22.22,0,0,1,0-.18A3.33,3.33,0,0,1,80.4,13.7a4.81,4.81,0,0,1,3-.9A4.26,4.26,0,0,1,86.54,14a4.2,4.2,0,0,1,1.15,3.09Zm12.06-8.8a.26.26,0,0,1-.07.17.21.21,0,0,1-.16.06l-1.29.08a.27.27,0,0,1-.28-.23,2,2,0,0,0,0-.31A2.4,2.4,0,0,0,97.05,15a2.71,2.71,0,0,0-1.83-.63,2.53,2.53,0,0,0-1.83.68,2.8,2.8,0,0,0-.85,1.77,23.79,23.79,0,0,0-.12,2.58,24.19,24.19,0,0,0,.12,2.6,2.76,2.76,0,0,0,.85,1.77,2.64,2.64,0,0,0,1.83.65,2.79,2.79,0,0,0,1.86-.63,2.29,2.29,0,0,0,.85-1.54l0-.2c0-.19.13-.26.28-.23l1.26.1c.16,0,.23.11.23.23v.1a1.53,1.53,0,0,1,0,.3A3.62,3.62,0,0,1,98.27,25a4.74,4.74,0,0,1-3,1,4.47,4.47,0,0,1-3-1,4.15,4.15,0,0,1-1.45-2.69,25.51,25.51,0,0,1-.15-2.93q0-1.29.15-2.91a4.11,4.11,0,0,1,1.45-2.65,4.53,4.53,0,0,1,3-1,4.73,4.73,0,0,1,3,1,3.58,3.58,0,0,1,1.43,2.4l.08.53Zm4.87,8.8a.22.22,0,0,1-.25.25h-1.29a.22.22,0,0,1-.25-.25V13.25a.22.22,0,0,1,.25-.25h1.29a.22.22,0,0,1,.25.25Zm.15-15.27a1.46,1.46,0,0,1-2,0,1.39,1.39,0,0,1-.39-1,1.44,1.44,0,0,1,2.42-1,1.46,1.46,0,0,1,0,2Zm12.46,12A4,4,0,0,1,115.8,25a5.11,5.11,0,0,1-6.07,0,4.18,4.18,0,0,1-1.44-2.69,25.15,25.15,0,0,1-.15-2.93,23.89,23.89,0,0,1,.15-2.88,4.1,4.1,0,0,1,1.42-2.68,5.1,5.1,0,0,1,6.09,0,4.11,4.11,0,0,1,1.43,2.68,20.87,20.87,0,0,1,.15,2.88A21.4,21.4,0,0,1,117.23,22.3Zm12,3.24a.23.23,0,0,1-.26.25h-1.29a.23.23,0,0,1-.25-.25V17.27a3.09,3.09,0,0,0-.68-2.09,2.34,2.34,0,0,0-1.87-.79,2.46,2.46,0,0,0-1.91.8,3.05,3.05,0,0,0-.72,2.13v8.22a.22.22,0,0,1-.25.25h-1.29a.22.22,0,0,1-.25-.25V13.25a.22.22,0,0,1,.25-.25H122a.22.22,0,0,1,.25.25v1a.09.09,0,0,0,0,.08s0,0,.09,0a3.39,3.39,0,0,1,3-1.47A3.58,3.58,0,0,1,128.21,14a4.4,4.4,0,0,1,1,3.07Zm17.46-2.35a4.69,4.69,0,0,1-1.78,2.07A5.38,5.38,0,0,1,142,26a5.51,5.51,0,0,1-3.44-1.06,4.61,4.61,0,0,1-1.74-2.83,10.32,10.32,0,0,1-.2-1.72.27.27,0,0,1,.3-.3h3c.21,0,.31.1.31.3a5.06,5.06,0,0,0,.15,1.11,1.74,1.74,0,0,0,.56,1.06,1.71,1.71,0,0,0,2.1,0,1.88,1.88,0,0,0,.6-1,7.19,7.19,0,0,0,.2-1.77,5.2,5.2,0,0,0-.25-1.79,1.57,1.57,0,0,0-2.55-1,.35.35,0,0,1-.18,0,.36.36,0,0,1-.25-.1l-1.49-1.65a.48.48,0,0,1-.11-.22.31.31,0,0,1,.11-.21l3.58-3.66a.07.07,0,0,0,0-.1s0-.05-.1-.05h-5.36a.27.27,0,0,1-.21-.09.29.29,0,0,1-.09-.22V8.4a.29.29,0,0,1,.09-.21.27.27,0,0,1,.21-.09h9.63a.31.31,0,0,1,.3.3v2.53a.66.66,0,0,1-.15.38l-3.16,3.46c0,.09,0,.14.05.15a3.72,3.72,0,0,1,1.71.77,4.29,4.29,0,0,1,1.15,1.56,7.52,7.52,0,0,1,.5,2.85A7.28,7.28,0,0,1,146.7,23.19Z"/><polygon class="cls-1" points="32.53 24.46 32.53 0 0 0 0 24.46 23.07 24.46 23.07 30.84 27.08 24.46 32.53 24.46"/><line class="cls-2" x1="7.73" y1="12.1" x2="24.8" y2="12.1"/><line class="cls-2" x1="7.73" y1="6.64" x2="24.8" y2="6.64"/><line class="cls-2" x1="7.73" y1="17.56" x2="24.8" y2="17.56"/></g></g></svg>