<svg xmlns="http://www.w3.org/2000/svg" viewBox="0 0 98.6 30.7"><defs><style>.cls-1{font-size:25.07px;font-family:BarlowSemiCondensed-Regular, Barlow Semi Condensed;}.cls-1,.cls-3{fill:#fff;}.cls-2{letter-spacing:0em;}</style></defs><title>Asset 156</title><g id="Layer_2" data-name="Layer 2"><g id="Layer_1-2" data-name="Layer 1"><text class="cls-1" transform="translate(43.92 23.34)"><tspan class="cls-2">A</tspan><tspan x="12.66" y="0">udio</tspan></text><path class="cls-3" d="M20.93,13.74V24.58A1.34,1.34,0,0,1,20.09,26a1.37,1.37,0,0,1-1.54-.44c-2.2-2.22-4.4-4.42-6.63-6.61-2.06-.05-4.12,0-6.18,0a.45.45,0,0,1-.44-.44c0-3.22,0-6.43,0-9.65a.31.31,0,0,1,.31-.31c2.1,0,4.2,0,6.3,0Q15.22,5.24,18.47,2a1.4,1.4,0,0,1,1.62-.52A1.45,1.45,0,0,1,20.94,3C20.92,6.54,20.93,10.14,20.93,13.74Z"/><path class="cls-3" d="M27.62,22.83a9.72,9.72,0,0,0,5.89-8.34A10.69,10.69,0,0,0,32.31,9a9.75,9.75,0,0,0-4.73-4.4,1.28,1.28,0,0,0-.48-.11.82.82,0,0,0-.76.49.85.85,0,0,0,.45,1.17l.24.13.2.09a8.38,8.38,0,0,1,4.48,6.17,8,8,0,0,1-2.29,6.92,10.38,10.38,0,0,1-2,1.45l-.68.43c-.49.32-.65.76-.41,1.17A.9.9,0,0,0,27.62,22.83Z"/><path class="cls-3" d="M25.55,18a4.77,4.77,0,0,0,2.78-4.34,1.42,1.42,0,0,1,0-.27,3.8,3.8,0,0,0-.1-.71,4.5,4.5,0,0,0-2.75-3.36.91.91,0,0,0-.39-.08.8.8,0,0,0-.72.44.77.77,0,0,0,.26,1.09,2.82,2.82,0,0,0,.54.38,2.78,2.78,0,0,1,1.45,2.55,2.76,2.76,0,0,1-1.44,2.51,3.11,3.11,0,0,0-.38.25l-.07.05c-.48.36-.61.75-.37,1.18A.89.89,0,0,0,25.55,18Z"/><rect class="cls-3" x="-4.47" y="14.35" width="46.75" height="2" transform="translate(-5.44 15.12) rotate(-38.54)"/></g></g></svg>